<?xml version="1.0" encoding="utf-8"?>
<!-- Generator: Adobe Illustrator 17.0.0, SVG Export Plug-In . SVG Version: 6.00 Build 0)  -->
<!DOCTYPE svg PUBLIC "-//W3C//DTD SVG 1.1//EN" "http://www.w3.org/Graphics/SVG/1.1/DTD/svg11.dtd">
<svg version="1.1" id="图层_1" xmlns="http://www.w3.org/2000/svg" xmlns:xlink="http://www.w3.org/1999/xlink" x="0px" y="0px"
	 width="1000px" height="150px" viewBox="0 0 1000 150" enable-background="new 0 0 1000 150" xml:space="preserve">
<g>
	<g>
		<polygon fill="#F4A54F" points="49.961,53.151 40.786,45.377 32.579,49.36 32.142,48.46 40.935,44.193 49.76,51.669 
			58.818,38.363 67.618,48.838 66.853,49.482 58.902,40.017 		"/>
	</g>
	<g>
		<polygon fill="#5EAFE2" points="49.877,60.575 40.799,53.451 32.581,57.496 32.14,56.599 40.922,52.276 49.843,59.277 
			58.811,51.454 67.5,56.873 66.971,57.722 58.91,52.694 		"/>
	</g>
</g>
<g>
	<g>
		<polygon fill="#FCECDB" points="99.843,59.277 108.802,51.462 117.86,56.719 117.86,49.719 117.829,49.748 108.918,39.994 
			99.961,53.151 90.78,45.372 81.86,49.46 81.86,56.496 90.928,52.281 		"/>
	</g>
	<polygon fill="#F4A54F" points="108.803,38.386 99.76,51.669 90.941,44.198 81.86,48.36 81.86,48.91 81.86,49.46 90.78,45.372 
		99.961,53.151 108.918,39.994 117.829,49.748 117.86,49.719 117.86,49.042 117.86,48.3 	"/>
	<polygon fill="#DCF0FA" points="99.877,60.575 90.793,53.446 81.86,57.599 81.86,68 117.86,68 117.86,57.876 108.919,52.687 	"/>
	<polygon fill="#5EAFE2" points="108.802,51.462 99.843,59.277 90.928,52.281 81.86,56.496 81.86,57.047 81.86,57.599 
		90.793,53.446 99.877,60.575 108.919,52.687 117.86,57.876 117.86,57.297 117.86,56.719 	"/>
</g>
<g>
	<rect x="132.694" y="34" fill="#5EAFE2" width="5" height="34"/>
	<rect x="152.249" y="34" fill="#5EAFE2" width="5" height="34"/>
	<rect x="142.471" y="40" fill="#F4A54F" width="5" height="28"/>
	<rect x="162.027" y="46" fill="#F4A54F" width="5" height="22"/>
</g>
<g>
	<rect x="181.86" y="36.542" fill="#5EAFE2" width="36" height="5"/>
	<rect x="181.86" y="43.847" fill="#92C878" width="29" height="5"/>
	<rect x="181.86" y="51.153" fill="#F4A54F" width="22" height="5"/>
	<rect x="181.86" y="58.458" fill="#EB6B51" width="15" height="5"/>
</g>
<g>
	<path fill="#5EAFE2" d="M239.302,35.444c-4.502,3.272-7.441,8.565-7.441,14.556c0,9.941,8.059,18,18,18
		c4.525,0,8.648-1.682,11.811-4.439l-12.179-13.222L239.302,35.444z"/>
	<path fill="#F4A54F" d="M262.411,62.889c3.357-3.27,5.449-7.832,5.449-12.889c0-6.184-3.12-11.636-7.87-14.876l-9.504,14.826
		L262.411,62.889z"/>
	<path fill="#8BC567" d="M259.14,34.597C256.427,32.96,253.26,32,249.86,32c-3.591,0-6.928,1.063-9.737,2.875l9.723,14.219
		L259.14,34.597z"/>
</g>
<g>
	<path fill="#DCDCDC" d="M300.36,32.025V32h-1v0.025c-9.693,0.268-17.5,8.218-17.5,17.975c0,9.925,8.075,18,18,18s18-8.075,18-18
		C317.86,40.243,310.053,32.294,300.36,32.025z M316.835,49.5H300.36V33.025C309.334,33.288,316.572,40.526,316.835,49.5z
		 M299.36,33.025V49.5h-16.475C283.149,40.526,290.386,33.288,299.36,33.025z M282.886,50.5h16.475v16.475
		C290.386,66.712,283.149,59.474,282.886,50.5z M300.36,66.975V50.5h16.475C316.572,59.474,309.334,66.712,300.36,66.975z"/>
	<path fill="#5EAFE2" d="M310.86,47.281c-0.5,0-0.964,0.151-1.355,0.404l-7.573-7.724c0.27-0.399,0.428-0.881,0.428-1.399
		c0-1.381-1.119-2.5-2.5-2.5s-2.5,1.119-2.5,2.5c0,0.527,0.165,1.014,0.443,1.417l-7.61,7.912c-0.387-0.245-0.842-0.392-1.334-0.392
		c-1.381,0-2.5,1.119-2.5,2.5s1.119,2.5,2.5,2.5c0.638,0,1.213-0.246,1.655-0.639l7.089,5.297c-0.152,0.323-0.244,0.68-0.244,1.061
		c0,1.381,1.119,2.5,2.5,2.5s2.5-1.119,2.5-2.5c0-0.392-0.098-0.758-0.259-1.089l7.129-5.468c0.439,0.381,1.004,0.619,1.631,0.619
		c1.381,0,2.5-1.119,2.5-2.5C313.36,48.401,312.241,47.281,310.86,47.281z M299.86,55.719c-0.638,0-1.214,0.246-1.655,0.639
		l-7.089-5.297c0.152-0.323,0.244-0.68,0.244-1.061c0-0.527-0.165-1.014-0.443-1.417l7.61-7.912
		c0.387,0.245,0.842,0.392,1.334,0.392c0.5,0,0.964-0.151,1.355-0.404l7.573,7.723c-0.27,0.399-0.428,0.881-0.428,1.399
		c0,0.392,0.098,0.758,0.259,1.089l-7.128,5.468C301.052,55.957,300.487,55.719,299.86,55.719z"/>
	<polygon opacity="0.5" fill="#5EAFE2" enable-background="new    " points="299.864,39.28 289.613,49.938 299.856,57.592 
		310.108,49.728 	"/>
</g>
<g>
	<g>
		<path fill="#F4A54F" d="M412.397,41.051c-1.562-1.519-3.393-2.76-5.421-3.637c-0.153-0.066-0.31-0.122-0.465-0.184
			c-1.986-0.793-4.142-1.245-6.401-1.276c-0.084-0.001-0.166-0.013-0.25-0.013s-0.166,0.011-0.25,0.013
			c-2.259,0.031-4.415,0.483-6.401,1.276c-0.155,0.062-0.312,0.118-0.465,0.184c-2.027,0.876-3.859,2.118-5.421,3.637
			c-0.12,0.116-0.237,0.234-0.354,0.354l3.534,3.534l1.911,1.911c0.115-0.121,0.233-0.238,0.353-0.354l-1.911-1.911
			c1.1-1.059,2.383-1.928,3.801-2.55l1.036,2.5c0.152-0.068,0.307-0.128,0.463-0.188l-1.035-2.499
			c1.396-0.549,2.907-0.864,4.489-0.894v2.708c0.084-0.002,0.166-0.013,0.25-0.013s0.166,0.011,0.25,0.013v-2.708
			c1.582,0.03,3.092,0.345,4.488,0.894l-1.035,2.499c0.156,0.06,0.311,0.121,0.463,0.188l1.036-2.5
			c1.417,0.622,2.701,1.49,3.801,2.55l-1.911,1.911c0.121,0.115,0.238,0.233,0.354,0.354l1.911-1.911l3.534-3.534
			C412.634,41.285,412.517,41.168,412.397,41.051z"/>
		<path fill="#EB6B51" d="M417.848,53.692c-0.031-2.259-0.483-4.415-1.276-6.401c-0.062-0.155-0.118-0.312-0.184-0.465
			c-0.876-2.027-2.117-3.859-3.637-5.42l-3.534,3.534c1.059,1.1,1.928,2.383,2.549,3.801l-2.5,1.036
			c0.067,0.152,0.128,0.307,0.188,0.463l2.499-1.035c0.549,1.396,0.864,2.907,0.894,4.489h-2.708
			c0.002,0.084,0.013,0.166,0.013,0.25s-0.011,0.166-0.013,0.25h2.708c-0.03,1.582-0.345,3.092-0.894,4.489l-2.499-1.035
			c-0.06,0.156-0.121,0.311-0.188,0.463l2.5,1.036l4.621,1.914c0.066-0.153,0.122-0.31,0.184-0.465
			c0.794-1.986,1.245-4.143,1.276-6.401c0.001-0.084,0.013-0.166,0.013-0.25S417.849,53.776,417.848,53.692z"/>
		<path fill="#5EAFE2" d="M390.267,50.239c0.06-0.156,0.121-0.311,0.188-0.463l-2.5-1.036c0.622-1.417,1.49-2.7,2.549-3.801
			l-3.534-3.534c-1.519,1.562-2.76,3.393-3.637,5.42c-0.066,0.153-0.122,0.31-0.184,0.465c-0.794,1.986-1.245,4.142-1.276,6.401
			c-0.001,0.084-0.013,0.166-0.013,0.25s0.011,0.166,0.013,0.25c0.031,2.259,0.483,4.415,1.276,6.401
			c0.062,0.155,0.118,0.312,0.184,0.465l4.621-1.914l2.5-1.036c-0.068-0.152-0.128-0.307-0.188-0.463l-2.499,1.035
			c-0.549-1.396-0.864-2.907-0.894-4.488h2.708c-0.002-0.084-0.013-0.166-0.013-0.25s0.011-0.166,0.013-0.25h-2.708
			c0.03-1.582,0.345-3.092,0.894-4.488L390.267,50.239z"/>
	</g>
	<path fill="#92C878" d="M401.661,59.422l-6.985-10.042l3.163,11.816l0.172,0.612c0.514,1.106,1.827,1.587,2.933,1.073
		c1.106-0.514,1.587-1.827,1.073-2.933L401.661,59.422z"/>
</g>
<g>
	<g>
		<path fill="#F4A54F" d="M349.86,41.924c3.181,0,6.095,1.152,8.357,3.056l3.357-3.695c-3.152-2.711-7.24-4.361-11.713-4.361
			c-4.928,0-9.398,1.994-12.652,5.214l3.617,3.458C343.167,43.327,346.351,41.924,349.86,41.924z"/>
		<path fill="#5EAFE2" d="M337.836,59.851c-0.626-1.521-0.976-3.183-0.976-4.927c0-3.3,1.246-6.307,3.279-8.602l-3.61-3.451
			c-2.891,3.195-4.669,7.414-4.669,12.052c0,2.421,0.487,4.728,1.357,6.838l0.018-0.025L337.836,59.851z"/>
		<path fill="#EB6B51" d="M361.89,59.835l4.627,1.889c0.861-2.1,1.343-4.394,1.343-6.8c0-5.093-2.135-9.689-5.547-12.966
			l-3.356,3.695c2.405,2.361,3.903,5.643,3.903,9.271C362.86,56.662,362.512,58.318,361.89,59.835z"/>
	</g>
	<path fill="#92C878" d="M352.661,59.183l-6.985-10.042l3.163,11.816l0.172,0.612c0.514,1.106,1.827,1.587,2.933,1.073
		c1.106-0.514,1.587-1.827,1.073-2.933L352.661,59.183z"/>
</g>
<g>
	<g>
		<g>
			<g>
				<path fill="#DCDCDC" d="M715.708,38.703v0.008c0.327,0.094,0.627-0.253,0.816-0.439c0.161-0.281,0.651-0.747,0.986-0.747
					c0.186,0.063,0.003,0.527,0.2,0.685c0.024,0.01,0.174,0.191,0.146,0.208c-0.085,0.224-0.233,1.695-0.139,1.756
					c-0.013,0.151-0.004,0.245-0.116,0.354c-0.123,0.184-0.419,0.046-0.585,0.046c-0.061,0.1-0.25,0.17-0.285,0.277
					c-0.148,0.447,0.617,1.175,0.477,1.656H717.2c0,0.054-0.096,0.448-0.116,0.524c-0.018,0.07-0.038,0.121-0.108,0.139
					c0,0.029-0.289-0.065-0.339-0.069c-0.112-0.134-0.053-0.43-0.115-0.424c-0.084,0.011-0.15,0.139-0.162,0.139
					c-0.017,0.132-0.139,0.547-0.277,0.616c-0.081,0.101-0.265,0.116-0.385,0.116v0.008c-0.039,0.022-0.038,0.017-0.039,0.077
					c0.128,0.077,0.199,0.218,0.193,0.316c0.035,0.174-0.205,0.328-0.262,0.293c-0.259,0-0.448-0.139-0.678-0.139v0.008
					c-0.097,0.028-0.121,0.354-0.193,0.354c-0.062,0.249-0.286,0.402-0.424,0.608h-0.015c-0.003,0.005-0.005,0.01-0.008,0.015
					c-0.165,0.055-0.281,0.202-0.408,0.308c0,0.129-0.102,0.291-0.116,0.439c-0.409,0.341-0.926,0.164-1.224,0.847
					c-0.008,0.148-0.193,0.436-0.193,0.439c-0.159,0.005-0.321,0.02-0.478,0.023c-0.012-0.147,0.106-0.408,0.277-0.408
					c0-0.072-0.3-0.447-0.162-0.447c0.003-0.018,0.005-0.036,0.008-0.054h0.008c0-0.246,0.329-0.329,0.239-0.67
					c-0.049-0.198-0.271-0.267-0.439-0.2c0,0.008-1.277,1.556-1.278,1.556c-0.06,0.09-0.543,0.178-0.662,0.208
					c-0.155,0.133-0.251,0.467-0.015,0.585c0.034,0.136,0.108,0.199,0.108,0.339c0.055,0.029,0.442-0.173,0.639-0.092
					c0.054,0.125,0.1,0.251,0.1,0.393h0.008c0.033,0.069,0.238,0.281,0.316,0.293v0.008c0.011-0.001-0.003-0.006,0.008-0.008
					c0.294,0,0.295-0.693,0.862-0.693c0.243-0.069,0.458,0.189,0.739,0.108c0.17-0.049,0.276,0.007,0.4,0.069
					c0,0.044,0.033,0.362-0.085,0.362c-0.03,0.045-0.635,0.307-0.647,0.3c0.053,0.09-0.528,0.681-0.608,0.624
					c-0.02,0.065-0.216,0.349-0.216,0.354c-0.028,0.021-0.085,0.103-0.085,0.131h-0.008c-0.028,0.074-0.1,0.535-0.1,0.547
					c0.015,0.013,0.006,0.018,0.015,0.031c0.008,0.005,0.015,0.01,0.023,0.015c0,0.04,0.085,0.065,0.085,0.085
					c0.853,0.116,0.887,1.41,1.194,1.563c0,0.018,0.009,0.019,0.015,0.038c0.214,0.187,0.479,0.294,0.724,0.477v0.015
					c0.296,0.148-0.296,0.164-0.308,0.262c0.18,0.104,0.384,0.205,0.485,0.501h-0.008c0,0.335-0.736,0.631-0.901,0.816h-0.008v0.023
					c0.063,0.024,0.193,0.015,0.262,0.015c0.183-0.344,0.72-0.083,0.97,0.015c-0.004,0.016,0.001,0.007-0.008,0.015
					c-0.049,0.185-0.377,0.28-0.377,0.431c0.063,0,0.241-0.2,0.3-0.1c0,0.062,0.067,0.218,0.008,0.277
					c-0.086,0.103-0.17,0.018-0.246,0.085h-0.008c0,0.397,0.456,0.947-0.208,0.947c-0.198,0.343-0.246,0.39-0.262,0.847
					c-0.18,0.119-0.15,0.396-0.308,0.531c-0.088-0.003-0.243-0.009-0.27,0.046c0,0.103,0.185,0.174,0.27,0.193
					c-0.02,0.167-0.272,0.095-0.2,0.323c0.014,0.194,0.062,0.308,0.015,0.493c-0.368,0.026-0.107,0.335-0.393,0.477
					c-0.082,0.246-0.454,0.24-0.477,0.323c-0.078,0.085-0.457,0.832-0.608,0.832c-0.003,0.005-0.005,0.01-0.008,0.015
					c-0.178,0.059-0.57,0.127-0.57,0.339c-0.016,0.056,0.013,0.087,0.015,0.146c-0.372,0.211-0.859,0.708-1.348,0.554
					c-0.2-0.063-0.226,0.37-0.416,0.37c-0.106,0.098-0.377-0.183-0.377-0.27c-0.152-0.102-0.16,0.081-0.185,0.131
					c-0.082,0.326-0.618,0.67-0.947,0.67c-0.221,0.068-1.307,0.18-1.348,0.385h-0.008c0,0.094-0.066,0.3-0.185,0.3
					c-0.102,0.122-0.039,0.074-0.008,0.2c0.064-0.001,0.114,0.006,0.162,0.015c0.033,0.057,0.026,0.217,0.015,0.285
					c-0.15,0.083-0.208,0.076-0.385,0.069V63.23c-0.073-0.015-0.212-0.334-0.277-0.416c-0.251-0.126,0.001-0.381,0.015-0.524
					c-0.013-0.005-0.024-0.007-0.046-0.008v0.008c-0.156,0.043-0.274,0.125-0.431,0.139v-0.008
					c-0.027-0.007-0.366-0.513-0.377-0.254c0.082,0.041,0.104,0.116,0,0.131c0,0.049-0.588-0.018-0.639-0.023
					c-0.197,0-0.926-0.2-0.862-0.516h-0.008c-0.03-0.096,0.06-0.32,0.062-0.424c-0.021-0.018-0.041-0.036-0.062-0.054
					c-0.066-0.007-0.77-0.136-0.77-0.139c-0.115-0.029-0.087-0.164-0.154-0.185c-0.036-0.032-0.18,0.01-0.2,0.023
					c-0.058,0.086-0.29,0.377-0.416,0.377v0.008c-0.113,0.007-0.202-0.009-0.293,0.069c0,0.204-0.273,0.123-0.362,0.123
					c-0.033-0.04-0.112-0.086-0.131-0.123c-0.033,0-0.3,0.076-0.3,0.085c-0.194,0.058-0.329-0.123-0.501-0.123
					c-0.03,0.039-0.16,0.184-0.193,0.185c-0.059,0.05-0.345-0.07-0.4-0.023c-0.081,0.018-0.064,0.104-0.062,0.2
					c0.085,0.074,0.106,0.348,0.1,0.447c0.079,0,0.074,0.394,0.054,0.447c-0.026,0.128-0.131,0.086-0.231,0.069v-0.008
					c-0.209-0.042-0.323-0.264-0.323-0.462c0-0.138-0.016-0.065-0.085-0.169c-0.215,0-0.209,0.216-0.347,0.216v0.008
					c-0.101-0.008-0.116-0.046-0.208-0.054c-0.034-0.158-0.4-0.445-0.4-0.454c-0.058-0.021-0.207,0.034-0.246,0
					c-0.045-0.012-0.11-0.098-0.123-0.139h-0.008c-0.032-0.193,0.04-0.526-0.023-0.685c-0.097-0.032-0.162-0.032-0.231-0.116
					c-0.124-0.083-0.169-0.536-0.3-0.701c-0.216-0.145-0.323,0.123-0.493,0.123v0.008c-0.237-0.063-0.139-0.192-0.185-0.416
					c-0.075-0.264,0.057-0.436,0.115-0.67c0.005-0.003,0.01-0.005,0.015-0.008c0-0.143,0.413-0.327,0.516-0.439
					c0.035-0.009,0.039-0.018,0.062-0.046c0.058-0.029,0.321-1.186,0.177-1.348c0-0.081-0.293-0.187-0.293-0.27
					c-0.024-0.018-0.049-0.092-0.054-0.092c0-0.232-0.085-0.314-0.216-0.477c-0.085-0.021-0.184-0.06-0.246,0.015
					c-0.143,0.071,0.005,0.446-0.216,0.477c-0.145,0.047-0.308-0.227-0.447-0.323c-0.131,0-0.398-0.204-0.547-0.246v0.008
					c-0.132,0.025-0.325,0.215-0.416,0.323c-0.384,0.041-0.722,0.513-1.078,0.631c-0.146,0.078-1.126,0.275-1.314,0
					c-0.078-0.077,0.013-0.364,0.021-0.47c-0.13-0.087-0.209-0.125-0.208-0.308c-0.049-0.028-0.354-0.09-0.354-0.092
					c-0.259-0.065-0.434-0.447-0.77-0.447c0-0.003-0.515,0.169-0.577,0.277c0,0.1,0.033,0.267-0.023,0.354
					c-0.166,0.083-0.169,0.087-0.362,0.023c-0.116-0.232,0.004-0.399,0.008-0.624c-0.117-0.078-0.365-0.08-0.493-0.031
					c-0.13,0.026-0.25,0.197-0.4,0.154c-0.164-0.05-0.253-0.193-0.362-0.323c-0.227-0.045-0.411-0.034-0.639-0.039
					c-0.176-0.16-0.332-0.422-0.477-0.616c-0.125-0.08-0.277,0.002-0.4-0.162c-0.018-0.015-0.036-0.031-0.054-0.046
					c-0.089-0.12-0.175-0.408-0.185-0.601c-0.096-0.064-0.37,0-0.416-0.092c-0.06,0-0.193-0.26-0.193-0.3
					c-0.118-0.088-0.328-0.149-0.416-0.254c-0.005-0.003-0.01-0.005-0.015-0.008c0-0.093-0.318-0.468-0.323-0.47
					c-0.325,0.054-0.706,0.232-0.955-0.092c-0.074-0.081-0.092-0.262-0.092-0.408c-0.331-0.265-0.436-0.593-0.893-0.593
					c-0.094-0.027-0.07-0.032-0.123-0.077c0.014-0.159-0.015-0.246,0.1-0.346v-0.015c0.169-0.113,0.062-0.604,0.062-0.762h-0.008
					c0-0.207-0.022-0.111,0.039-0.231c0.177,0,0.293,0.135,0.447,0.139c0.018-0.066,0.039-0.024,0.039-0.108h0.008
					c0-0.313-0.096-0.575-0.146-0.878h-0.008c-0.077-0.235,0.185-0.363,0.185-0.547c-0.019-0.113-0.039-0.116-0.085-0.154
					c-0.286-0.057-0.324-0.41-0.262-0.631c0.072-0.256-0.735-0.897-0.886-0.762c-0.059-0.004-0.138-0.107-0.131-0.116
					c0-0.145,0.137-0.54,0.062-0.662c-0.116-0.058-0.487-0.362-0.57-0.462c-0.008-0.005-0.015-0.01-0.023-0.015
					c-0.146-0.218,0.038-0.423,0.254-0.477c0.119-0.238,0.062-0.486,0.062-0.739h-0.008c0-0.276-0.302-0.096-0.454-0.092
					c-0.111-0.081-0.234-0.138-0.116-0.4c0.24-0.053,0.175-0.354,0.062-0.354c-0.032-0.066,0.256-0.228,0.292-0.385
					c0.215,0,0.877-0.574,1.263-0.447c0.269,0.045,0.057,0.369,0.416,0.385c0.52-0.433,0.79-0.462,1.456-0.462v-0.008
					c0.056-0.019,0.708-0.086,0.708-0.123c0.214-0.112,0.229-0.213,0.208-0.339c0.021-0.017,0.618-0.748,0.624-0.762
					c0.071-0.313,0.085-0.635,0.023-0.955h0.008c0.032-0.1,0.046-0.237-0.038-0.3c-0.07-0.1-0.022-0.177,0.1-0.177
					c0.485-0.148,0.871,0.139,1.325,0.139c0.003-0.008,0.005-0.015,0.008-0.023c0.12-0.14-0.131-0.547,0.331-0.778
					c0.068-0.108,0.3-0.536,0.316-0.601h0.008c0.056-0.084,0.163-0.054,0.246-0.046c0,0.211,0.988,0.361,1.032,0.354v-0.008
					c0.15-0.009,0.182-0.042,0.223-0.177c0.003,0-0.014-0.482,0.015-0.547h0.008c0.083-0.331,0.565-0.299,0.824-0.385v-0.008
					c0.145-0.121,0.088-0.37,0.393-0.37c0.144-0.045,0.362,0.046,0.362,0.216h0.008c0.004,0.095,0.062,0.222,0.062,0.277
					c-0.042,0.122,0.544,0.58,0.647,0.562c0.089,0.024,0.35,0.174,0.37,0.239c0,0.175,0.026,0.536,0.154,0.632
					c0.047,0.235,0.237,0.607-0.031,0.809v0.015c-0.242,0.252-0.294,0.443-0.062,0.701c0.142,0.103,0.414,0.135,0.601,0.177
					c0.114-0.007,1.998,0.671,1.925,1.14h0.008c0.009,0.172,0.075,0.461,0.246,0.547c0.003,0.01,0.005,0.021,0.008,0.031h0.008
					c0,0.008-0.01,0.331,0.039,0.331v0.015c0.018,0.015,0.036,0.031,0.054,0.046l0.015,0.023c0.208,0,0.441,0.092,0.685,0.092
					c0.187,0.056,0.553,0.2,0.708,0.2c0.003,0.005,0.005,0.01,0.008,0.015c0.451,0,0.88-0.023,1.325-0.023v0.008
					c0.457,0.057,0.696,0.521,1.032,0.57c0.153-0.173,0.48,0.068,0.547,0.162v0.008c0.33,0,0.408,0.179,0.601,0.323
					c0.04,0.054,0.086,0.062,0.154,0.062c0.097-0.292,2.025-0.703,2.025-0.986h0.015V44.71c0.309-0.089,0.721,0.174,1.093,0.1
					c0.055-0.163,0.404-0.493,0.531-0.608c0.15-0.135,0.742-0.574,0.67-0.654c-0.057-0.208-0.411-1.12,0.139-1.117v0.008
					c0.006,0.001,0.678,0.426,0.678,0.262c0.19,0,0.563-0.46,0.608-0.631c0.225-0.045,0.627-0.053,0.732-0.262
					c0.147-0.111,0.282-0.501,0.323-0.501c0.102-0.122,0.281-0.163,0.431-0.2v-0.008h0.023c0.069-0.087,0.338-0.3,0.424-0.3
					c0-0.04,0.753-0.054,0.863-0.085c0.001-0.097-0.023-0.207-0.023-0.277c-0.095-0.303-0.467-0.489-0.762-0.655
					c-0.128-0.004-0.175,0.146-0.347,0.146c-0.076,0.087-0.086,0.168-0.162,0.262c-0.178-0.007-0.507-0.158-0.624-0.123v0.008
					c-0.176,0-0.321,0.149-0.593,0.139c-0.038-0.071-0.098-0.114-0.1-0.223c0.101-0.116,0.275-0.257,0.223-0.431
					c0-0.371,0.108-0.609,0.185-0.993c0.005-0.003,0.01-0.005,0.015-0.008c0.032-0.048,0.083-0.097,0.139-0.116
					c0.374,0,0.774,0.034,1.04-0.27c0.023-0.021,0.046-0.041,0.069-0.062c0-0.203,0.139-0.504,0.139-0.739h0.008
					c0-0.305,0.353-0.824,0.362-0.824c0.092-0.215-0.167-0.445-0.339-0.531c0-0.014-0.007-0.085-0.015-0.085
					c0.034-0.219,0.052-0.247,0.2-0.362c0.168-0.042,0.324-0.093,0.485-0.146c0.099-0.198,0.674-0.37,0.893-0.37
					c0.154-0.034,0.329,0.123,0.477,0.123v0.008c0.282-0.013,0.437-0.037,0.685,0.069v0.008c0.01,0.003,0.021,0.005,0.031,0.008
					v0.008h0.015c0.008,0.007,0.863,0.896,0.863,1.063h0.008c0.005,0.015,0.01,0.031,0.015,0.046
					c0.013,0.01,0.026,0.021,0.039,0.031v0.015c0.127,0.115,0.267,0.253,0.393,0.354v0.023h0.008c0,0.206,0.11,0.316,0.254,0.424
					c0,0.02,0.006,0.02,0.023,0.031c0.014,0.057,0.063,0.323,0.138,0.323c0.003,0.005,0.005,0.01,0.008,0.015
					c0.17,0,0.49-0.037,0.624,0.015c0,0.076,0.333,0.002,0.431,0.031c0,0.016,0.135,0.07,0.154,0.092
					c0.016,0.152,0.325,0.237,0.5,0.277C715.246,38.193,715.502,38.703,715.708,38.703L715.708,38.703L715.708,38.703z
					 M712.898,60.404c0.021-0.214,0.049-0.403,0.062-0.631h0.008c0-0.274,0.139-0.328,0.139-0.562h0.008
					c0-0.245,0.245-0.694,0.447-0.87c0.03-0.042,0.302-0.09,0.37-0.069v0.008c0.492,0.07,0.177,0.358,0.177,0.57h-0.008
					c0,0.303,0.121,0.741,0.039,1.017c0,0.121-0.116,0.219-0.116,0.308c-0.067,0.102-0.3,0.132-0.3,0.3h-0.008
					c-0.111,0.294,0.028,0.485-0.223,0.778h-0.008v-0.008h-0.008c0-0.09-0.192-0.189-0.208-0.316h-0.008
					C713.083,60.716,712.97,60.658,712.898,60.404L712.898,60.404L712.898,60.404z M704.719,63.569
					c0.293-0.028,0.935-0.3,1.255-0.169c0.082,0.017,0.232,0.081,0.254,0.169c0.074,0.104-0.125,0.345-0.3,0.87
					c-0.005,0.003-0.01,0.005-0.015,0.008v0.015c-0.141,0.281-0.804,0.542-0.824,0.477h-0.031v0.008
					c-0.119,0.036-0.601-0.142-0.601-0.254c-0.005-0.003-0.01-0.005-0.015-0.008C704.246,63.905,704.686,64.12,704.719,63.569
					L704.719,63.569L704.719,63.569z"/>
			</g>
		</g>
		<circle fill="#F4A54F" cx="695.994" cy="47.812" r="2.464"/>
		<circle fill="#EB6B51" cx="703.25" cy="46.032" r="2.601"/>
		<circle fill="#5EAFE2" cx="710.055" cy="51.523" r="3.711"/>
		<circle fill="#F4A54F" cx="707.713" cy="58.108" r="1.369"/>
		<circle fill="#A9D392" cx="696.674" cy="55.995" r="3.145"/>
	</g>
</g>
<g>
	<path fill="#5EAFE2" d="M467.848,55.192c-0.031-2.259-0.483-4.415-1.276-6.401c-0.062-0.155-0.118-0.312-0.184-0.465
		c-0.876-2.027-2.117-3.859-3.637-5.42c-0.116-0.12-0.234-0.237-0.354-0.354c-1.562-1.519-3.393-2.76-5.421-3.637
		c-0.153-0.066-0.31-0.122-0.465-0.184c-1.986-0.793-4.142-1.245-6.401-1.276c-0.084-0.001-0.166-0.013-0.25-0.013
		s-0.166,0.011-0.25,0.013c-2.259,0.031-4.415,0.483-6.401,1.276c-0.155,0.062-0.312,0.118-0.465,0.184
		c-2.027,0.876-3.859,2.118-5.421,3.637c-0.12,0.116-0.237,0.234-0.354,0.354c-1.519,1.562-2.76,3.393-3.637,5.42
		c-0.066,0.153-0.122,0.31-0.184,0.465c-0.794,1.986-1.245,4.142-1.276,6.401c-0.001,0.084-0.013,0.166-0.013,0.25
		s0.011,0.166,0.013,0.25c0.031,2.259,0.483,4.415,1.276,6.401c0.062,0.155,0.118,0.312,0.184,0.465l4.621-1.914l2.5-1.036
		c-0.068-0.152-0.128-0.307-0.188-0.463l-2.499,1.035c-0.549-1.396-0.864-2.907-0.894-4.488h2.708
		c-0.002-0.084-0.013-0.166-0.013-0.25s0.011-0.166,0.013-0.25h-2.708c0.03-1.582,0.345-3.092,0.894-4.488l2.499,1.035
		c0.06-0.156,0.121-0.311,0.188-0.463l-2.5-1.036c0.622-1.417,1.49-2.7,2.549-3.801l1.911,1.911
		c0.115-0.121,0.233-0.238,0.353-0.354l-1.911-1.911c1.1-1.059,2.383-1.928,3.801-2.55l1.036,2.5
		c0.152-0.068,0.307-0.128,0.463-0.188l-1.035-2.499c1.396-0.549,2.907-0.864,4.489-0.894v2.708c0.084-0.002,0.166-0.013,0.25-0.013
		s0.166,0.011,0.25,0.013v-2.708c1.582,0.03,3.092,0.345,4.488,0.894l-1.035,2.499c0.156,0.06,0.311,0.121,0.463,0.188l1.036-2.5
		c1.417,0.622,2.701,1.49,3.801,2.55l-1.911,1.911c0.121,0.115,0.238,0.233,0.354,0.354l1.911-1.911
		c1.059,1.1,1.928,2.383,2.549,3.801l-2.5,1.036c0.067,0.152,0.128,0.307,0.188,0.463l2.499-1.035
		c0.549,1.396,0.864,2.907,0.894,4.489h-2.708c0.002,0.084,0.013,0.166,0.013,0.25s-0.011,0.166-0.013,0.25h2.708
		c-0.03,1.582-0.345,3.092-0.894,4.489l-2.499-1.035c-0.06,0.156-0.121,0.311-0.188,0.463l2.5,1.036l4.621,1.914
		c0.066-0.153,0.122-0.31,0.184-0.465c0.794-1.986,1.245-4.143,1.276-6.401c0.001-0.084,0.013-0.166,0.013-0.25
		S467.849,55.276,467.848,55.192z"/>
	<path fill="#EB6B51" d="M451.661,59.417l-6.985-10.042l3.163,11.816l0.172,0.612c0.514,1.106,1.827,1.587,2.933,1.073
		c1.106-0.514,1.587-1.827,1.073-2.933L451.661,59.417z"/>
	<path fill="#92C878" d="M452.112,61.586l5.248-11.049l-8.686,8.613l-0.446,0.454c-0.705,0.995-0.47,2.373,0.525,3.079
		c0.995,0.705,2.373,0.47,3.079-0.525L452.112,61.586z"/>
</g>
<g>
	<g>
		<path fill="#5EAFE2" d="M549.86,63c-7.168,0-13-5.832-13-13s5.832-13,13-13s13,5.832,13,13h5c0-9.941-8.059-18-18-18
			s-18,8.059-18,18s8.059,18,18,18c2.623,0,5.108-0.574,7.356-1.583l-2.045-4.564C553.548,62.584,551.753,63,549.86,63z"/>
	</g>
	<g>
		<path fill="#F4A54F" d="M549.86,58c-4.411,0-8-3.589-8-8s3.589-8,8-8c1.319,0,2.562,0.327,3.66,0.895l1.832-3.556
			c-1.647-0.85-3.511-1.339-5.492-1.339c-6.627,0-12,5.373-12,12s5.373,12,12,12c1.749,0,3.406-0.383,4.904-1.055l-1.636-3.65
			C552.13,57.744,551.025,58,549.86,58z"/>
	</g>
</g>
<g>
	<g>
		<path fill="#5EAFE2" d="M499.86,63c-7.168,0-13-5.832-13-13s5.832-13,13-13c6.999,0,12.709,5.564,12.975,12.5h5
			c-0.267-9.708-8.202-17.5-17.975-17.5c-9.941,0-18,8.059-18,18s8.059,18,18,18c2.848,0,5.531-0.679,7.925-1.857l-2.328-4.427
			C503.759,62.53,501.866,63,499.86,63z"/>
		<path fill="#EB6B51" d="M506.343,61.252l2.332,4.434c5.342-3.009,8.981-8.661,9.161-15.185h-5
			C512.659,55.095,510.095,59.081,506.343,61.252z"/>
	</g>
</g>
<g>
	<circle fill="#5EAFE2" cx="596.11" cy="63.519" r="2"/>
	<circle fill="#5EAFE2" cx="594.777" cy="58" r="2"/>
	<circle fill="#5EAFE2" cx="600.11" cy="53.187" r="2"/>
	<circle fill="#5EAFE2" cx="611.694" cy="49" r="2"/>
	<circle fill="#5EAFE2" cx="592.777" cy="48.5" r="2"/>
	<circle fill="#5EAFE2" cx="588.86" cy="45.812" r="2"/>
	<circle fill="#5EAFE2" cx="612.715" cy="40" r="2"/>
	<circle fill="#5EAFE2" cx="595.277" cy="40" r="2"/>
	<circle fill="#5EAFE2" cx="587.36" cy="38.5" r="2"/>
	<circle fill="#5EAFE2" cx="601.86" cy="60" r="2"/>
	<circle fill="#5EAFE2" cx="587.944" cy="54.625" r="2"/>
	<circle fill="#5EAFE2" cx="607.006" cy="52.625" r="2"/>
	<circle fill="#5EAFE2" cx="603.006" cy="42" r="2"/>
</g>
<g>
	<circle fill="#5EAFE2" cx="660.36" cy="47.812" r="5.875"/>
	<circle fill="#92C878" cx="646.185" cy="52.281" r="3.064"/>
	<circle fill="#5EAFE2" cx="642.311" cy="58.14" r="1.811"/>
	<circle fill="#EB6B51" cx="648.934" cy="62.656" r="1.45"/>
	<circle fill="#5EAFE2" cx="647.275" cy="39.965" r="4.216"/>
	<circle fill="#5EAFE2" cx="654.705" cy="57.813" r="2.387"/>
	<circle fill="#F4A54F" cx="637.903" cy="48.655" r="4.407"/>
</g>
<g>
	<g>
		<rect x="831.86" y="61" fill="#DBEFF9" width="9.875" height="7"/>
		<rect x="831.86" y="40" fill="#DBEFF9" width="9.875" height="6"/>
		<rect x="831.86" y="54" fill="#DBEFF9" width="9.875" height="6"/>
		<rect x="831.86" y="47" fill="#DBEFF9" width="9.875" height="6"/>
		<polygon fill="#DBEFF9" points="831.86,32 831.86,38.5 831.86,39 863.86,39 863.86,32 		"/>
	</g>
	<path fill="#DDDDDC" d="M831.86,40h9.875v6h-9.875v1h9.875v6h-9.875v1h9.875v6h-9.875v1h9.875v7h1v-7h9.833v7h1v-7h10.292v-1
		h-10.292v-6h10.292v-1h-10.292v-6h10.292v-1h-10.292v-6h10.292v-1h-32V40z M842.735,40h9.833v6h-9.833V40z M842.735,47h9.833v6
		h-9.833V47z M842.735,54h9.833v6h-9.833V54z"/>
</g>
<g>
	<g>
		<g>
			<g>
				<path fill="#DCDCDC" d="M765.708,38.703v0.008c0.327,0.094,0.627-0.253,0.816-0.439c0.161-0.281,0.651-0.747,0.986-0.747
					c0.186,0.063,0.003,0.527,0.2,0.685c0.024,0.01,0.174,0.191,0.146,0.208c-0.085,0.224-0.233,1.695-0.139,1.756
					c-0.013,0.151-0.004,0.245-0.116,0.354c-0.123,0.184-0.419,0.046-0.585,0.046c-0.061,0.1-0.25,0.17-0.285,0.277
					c-0.148,0.447,0.617,1.175,0.478,1.656h-0.008c0,0.054-0.096,0.448-0.116,0.524c-0.018,0.07-0.038,0.121-0.108,0.139
					c0,0.029-0.289-0.065-0.339-0.069c-0.112-0.134-0.054-0.43-0.115-0.424c-0.084,0.011-0.15,0.139-0.162,0.139
					c-0.017,0.132-0.139,0.547-0.277,0.616c-0.081,0.101-0.265,0.116-0.385,0.116v0.008c-0.039,0.022-0.038,0.017-0.039,0.077
					c0.128,0.077,0.199,0.218,0.193,0.316c0.035,0.174-0.205,0.328-0.262,0.293c-0.259,0-0.448-0.139-0.678-0.139v0.008
					c-0.097,0.028-0.121,0.354-0.193,0.354c-0.062,0.249-0.286,0.402-0.424,0.608h-0.015c-0.003,0.005-0.005,0.01-0.008,0.015
					c-0.165,0.055-0.281,0.202-0.408,0.308c0,0.129-0.102,0.291-0.116,0.439c-0.409,0.341-0.926,0.164-1.224,0.847
					c-0.008,0.148-0.193,0.436-0.193,0.439c-0.159,0.005-0.321,0.02-0.477,0.023c-0.012-0.147,0.106-0.408,0.277-0.408
					c0-0.072-0.3-0.447-0.162-0.447c0.003-0.018,0.005-0.036,0.008-0.054h0.008c0-0.246,0.329-0.329,0.239-0.67
					c-0.049-0.198-0.271-0.267-0.439-0.2c0,0.008-1.277,1.556-1.278,1.556c-0.06,0.09-0.543,0.178-0.662,0.208
					c-0.155,0.133-0.251,0.467-0.015,0.585c0.034,0.136,0.108,0.199,0.108,0.339c0.055,0.029,0.442-0.173,0.639-0.092
					c0.054,0.125,0.1,0.251,0.1,0.393h0.008c0.033,0.069,0.238,0.281,0.316,0.293v0.008c0.011-0.001-0.003-0.006,0.008-0.008
					c0.294,0,0.296-0.693,0.862-0.693c0.243-0.069,0.458,0.189,0.739,0.108c0.17-0.049,0.276,0.007,0.4,0.069
					c0,0.044,0.033,0.362-0.085,0.362c-0.03,0.045-0.635,0.307-0.647,0.3c0.053,0.09-0.528,0.681-0.608,0.624
					c-0.02,0.065-0.215,0.349-0.215,0.354c-0.028,0.021-0.085,0.103-0.085,0.131h-0.008c-0.028,0.074-0.1,0.535-0.1,0.547
					c0.015,0.013,0.006,0.018,0.015,0.031c0.008,0.005,0.015,0.01,0.023,0.015c0,0.04,0.085,0.065,0.085,0.085
					c0.853,0.116,0.887,1.41,1.194,1.563c0,0.018,0.009,0.019,0.015,0.038c0.214,0.187,0.479,0.294,0.724,0.477v0.015
					c0.296,0.148-0.296,0.164-0.308,0.262c0.18,0.104,0.384,0.205,0.485,0.501h-0.008c0,0.335-0.736,0.631-0.901,0.816h-0.008v0.023
					c0.063,0.024,0.193,0.015,0.262,0.015c0.183-0.344,0.719-0.083,0.97,0.015c-0.004,0.016,0.001,0.007-0.008,0.015
					c-0.049,0.185-0.377,0.28-0.377,0.431c0.063,0,0.241-0.2,0.3-0.1c0,0.062,0.067,0.218,0.008,0.277
					c-0.086,0.103-0.17,0.018-0.246,0.085h-0.008c0,0.397,0.456,0.947-0.208,0.947c-0.198,0.343-0.246,0.39-0.262,0.847
					c-0.18,0.119-0.15,0.396-0.308,0.531c-0.088-0.003-0.243-0.009-0.27,0.046c0,0.103,0.185,0.174,0.27,0.193
					c-0.02,0.167-0.272,0.095-0.2,0.323c0.014,0.194,0.062,0.308,0.015,0.493c-0.368,0.026-0.107,0.335-0.393,0.477
					c-0.082,0.246-0.454,0.24-0.478,0.323c-0.078,0.085-0.457,0.832-0.608,0.832c-0.003,0.005-0.005,0.01-0.008,0.015
					c-0.178,0.059-0.57,0.127-0.57,0.339c-0.016,0.056,0.013,0.087,0.015,0.146c-0.372,0.211-0.859,0.708-1.348,0.554
					c-0.2-0.063-0.226,0.37-0.416,0.37c-0.106,0.098-0.377-0.183-0.377-0.27c-0.152-0.102-0.16,0.081-0.185,0.131
					c-0.082,0.326-0.618,0.67-0.947,0.67c-0.221,0.068-1.307,0.18-1.348,0.385h-0.008c0,0.094-0.066,0.3-0.185,0.3
					c-0.102,0.122-0.039,0.074-0.008,0.2c0.064-0.001,0.114,0.006,0.162,0.015c0.033,0.057,0.026,0.217,0.015,0.285
					c-0.15,0.083-0.208,0.076-0.385,0.069V63.23c-0.073-0.015-0.212-0.334-0.277-0.416c-0.251-0.126,0.001-0.381,0.015-0.524
					c-0.013-0.005-0.024-0.007-0.046-0.008v0.008c-0.156,0.043-0.274,0.125-0.431,0.139v-0.008
					c-0.027-0.007-0.366-0.513-0.377-0.254c0.082,0.041,0.104,0.116,0,0.131c0,0.049-0.588-0.018-0.639-0.023
					c-0.197,0-0.926-0.2-0.862-0.516h-0.008c-0.03-0.096,0.06-0.32,0.062-0.424c-0.021-0.018-0.041-0.036-0.062-0.054
					c-0.066-0.007-0.77-0.136-0.77-0.139c-0.115-0.029-0.087-0.164-0.154-0.185c-0.036-0.032-0.18,0.01-0.2,0.023
					c-0.058,0.086-0.29,0.377-0.416,0.377v0.008c-0.113,0.007-0.202-0.009-0.293,0.069c0,0.204-0.273,0.123-0.362,0.123
					c-0.033-0.04-0.112-0.086-0.131-0.123c-0.033,0-0.3,0.076-0.3,0.085c-0.194,0.058-0.329-0.123-0.501-0.123
					c-0.03,0.039-0.16,0.184-0.193,0.185c-0.059,0.05-0.345-0.07-0.4-0.023c-0.081,0.018-0.064,0.104-0.062,0.2
					c0.085,0.074,0.106,0.348,0.1,0.447c0.079,0,0.074,0.394,0.054,0.447c-0.026,0.128-0.131,0.086-0.231,0.069v-0.008
					c-0.209-0.042-0.323-0.264-0.323-0.462c0-0.138-0.016-0.065-0.085-0.169c-0.215,0-0.209,0.216-0.347,0.216v0.008
					c-0.101-0.008-0.116-0.046-0.208-0.054c-0.034-0.158-0.4-0.445-0.4-0.454c-0.058-0.021-0.207,0.034-0.246,0
					c-0.045-0.012-0.11-0.098-0.123-0.139h-0.008c-0.032-0.193,0.04-0.526-0.023-0.685c-0.097-0.032-0.162-0.032-0.231-0.116
					c-0.124-0.083-0.169-0.536-0.3-0.701c-0.216-0.145-0.323,0.123-0.493,0.123v0.008c-0.237-0.063-0.139-0.192-0.185-0.416
					c-0.075-0.264,0.057-0.436,0.115-0.67c0.005-0.003,0.01-0.005,0.015-0.008c0-0.143,0.413-0.327,0.516-0.439
					c0.035-0.009,0.039-0.018,0.062-0.046c0.058-0.029,0.321-1.186,0.177-1.348c0-0.081-0.293-0.187-0.293-0.27
					c-0.024-0.018-0.049-0.092-0.054-0.092c0-0.232-0.085-0.314-0.216-0.477c-0.085-0.021-0.184-0.06-0.246,0.015
					c-0.143,0.071,0.005,0.446-0.216,0.477c-0.145,0.047-0.308-0.227-0.447-0.323c-0.131,0-0.398-0.204-0.547-0.246v0.008
					c-0.132,0.025-0.325,0.215-0.416,0.323c-0.384,0.041-0.722,0.513-1.078,0.631c-0.146,0.078-1.126,0.275-1.314,0
					c-0.078-0.077,0.013-0.364,0.021-0.47c-0.13-0.087-0.21-0.125-0.208-0.308c-0.049-0.028-0.354-0.09-0.354-0.092
					c-0.259-0.065-0.434-0.447-0.77-0.447c0-0.003-0.515,0.169-0.577,0.277c0,0.1,0.033,0.267-0.023,0.354
					c-0.166,0.083-0.169,0.087-0.362,0.023c-0.116-0.232,0.004-0.399,0.008-0.624c-0.117-0.078-0.365-0.08-0.493-0.031
					c-0.13,0.026-0.25,0.197-0.4,0.154c-0.164-0.05-0.253-0.193-0.362-0.323c-0.227-0.045-0.411-0.034-0.639-0.039
					c-0.176-0.16-0.332-0.422-0.477-0.616c-0.125-0.08-0.277,0.002-0.4-0.162c-0.018-0.015-0.036-0.031-0.054-0.046
					c-0.089-0.12-0.175-0.408-0.185-0.601c-0.096-0.064-0.37,0-0.416-0.092c-0.06,0-0.193-0.26-0.193-0.3
					c-0.118-0.088-0.328-0.149-0.416-0.254c-0.005-0.003-0.01-0.005-0.015-0.008c0-0.093-0.318-0.468-0.323-0.47
					c-0.325,0.054-0.706,0.232-0.955-0.092c-0.074-0.081-0.092-0.262-0.092-0.408c-0.331-0.265-0.435-0.593-0.893-0.593
					c-0.094-0.027-0.07-0.032-0.123-0.077c0.014-0.159-0.015-0.246,0.1-0.346v-0.015c0.169-0.113,0.062-0.604,0.062-0.762H733.5
					c0-0.207-0.022-0.111,0.039-0.231c0.177,0,0.293,0.135,0.447,0.139c0.018-0.066,0.039-0.024,0.039-0.108h0.008
					c0-0.313-0.096-0.575-0.146-0.878h-0.008c-0.077-0.235,0.185-0.363,0.185-0.547c-0.019-0.113-0.039-0.116-0.085-0.154
					c-0.286-0.057-0.324-0.41-0.262-0.631c0.072-0.256-0.735-0.897-0.886-0.762c-0.059-0.004-0.138-0.107-0.131-0.116
					c0-0.145,0.137-0.54,0.062-0.662c-0.116-0.058-0.487-0.362-0.57-0.462c-0.008-0.005-0.015-0.01-0.023-0.015
					c-0.146-0.218,0.038-0.423,0.254-0.477c0.119-0.238,0.062-0.486,0.062-0.739h-0.008c0-0.276-0.302-0.096-0.454-0.092
					c-0.111-0.081-0.234-0.138-0.115-0.4c0.24-0.053,0.175-0.354,0.062-0.354c-0.032-0.066,0.256-0.228,0.292-0.385
					c0.215,0,0.877-0.574,1.263-0.447c0.269,0.045,0.057,0.369,0.416,0.385c0.52-0.433,0.79-0.462,1.456-0.462v-0.008
					c0.056-0.019,0.708-0.086,0.708-0.123c0.214-0.112,0.229-0.213,0.208-0.339c0.021-0.017,0.618-0.748,0.624-0.762
					c0.071-0.313,0.085-0.635,0.023-0.955h0.008c0.032-0.1,0.046-0.237-0.038-0.3c-0.07-0.1-0.022-0.177,0.1-0.177
					c0.485-0.148,0.871,0.139,1.325,0.139c0.003-0.008,0.005-0.015,0.008-0.023c0.12-0.14-0.131-0.547,0.331-0.778
					c0.068-0.108,0.3-0.536,0.316-0.601h0.008c0.056-0.084,0.163-0.054,0.246-0.046c0,0.211,0.988,0.361,1.032,0.354v-0.008
					c0.15-0.009,0.182-0.042,0.223-0.177c0.003,0-0.014-0.482,0.015-0.547h0.008c0.083-0.331,0.565-0.299,0.824-0.385v-0.008
					c0.145-0.121,0.088-0.37,0.393-0.37c0.144-0.045,0.362,0.046,0.362,0.216h0.008c0.004,0.095,0.062,0.222,0.062,0.277
					c-0.042,0.122,0.544,0.58,0.647,0.562c0.089,0.024,0.35,0.174,0.37,0.239c0,0.175,0.026,0.536,0.154,0.632
					c0.047,0.235,0.237,0.607-0.031,0.809v0.015c-0.242,0.252-0.294,0.443-0.062,0.701c0.142,0.103,0.414,0.135,0.601,0.177
					c0.114-0.007,1.998,0.671,1.925,1.14h0.008c0.009,0.172,0.075,0.461,0.246,0.547c0.003,0.01,0.005,0.021,0.008,0.031h0.008
					c0,0.008-0.01,0.331,0.039,0.331v0.015c0.018,0.015,0.036,0.031,0.054,0.046l0.015,0.023c0.208,0,0.441,0.092,0.685,0.092
					c0.187,0.056,0.553,0.2,0.708,0.2c0.003,0.005,0.005,0.01,0.008,0.015c0.451,0,0.88-0.023,1.325-0.023v0.008
					c0.457,0.057,0.696,0.521,1.032,0.57c0.153-0.173,0.48,0.068,0.547,0.162v0.008c0.33,0,0.409,0.179,0.601,0.323
					c0.04,0.054,0.086,0.062,0.154,0.062c0.097-0.292,2.025-0.703,2.025-0.986h0.015V44.71c0.309-0.089,0.721,0.174,1.093,0.1
					c0.055-0.163,0.404-0.493,0.531-0.608c0.15-0.135,0.742-0.574,0.67-0.654c-0.057-0.208-0.411-1.12,0.139-1.117v0.008
					c0.006,0.001,0.678,0.426,0.678,0.262c0.19,0,0.563-0.46,0.608-0.631c0.225-0.045,0.627-0.053,0.732-0.262
					c0.147-0.111,0.282-0.501,0.324-0.501c0.102-0.122,0.281-0.163,0.431-0.2v-0.008h0.023c0.069-0.087,0.338-0.3,0.424-0.3
					c0-0.04,0.753-0.054,0.863-0.085c0.001-0.097-0.023-0.207-0.023-0.277c-0.095-0.303-0.467-0.489-0.762-0.655
					c-0.128-0.004-0.175,0.146-0.347,0.146c-0.076,0.087-0.086,0.168-0.162,0.262c-0.178-0.007-0.507-0.158-0.624-0.123v0.008
					c-0.176,0-0.321,0.149-0.593,0.139c-0.038-0.071-0.098-0.114-0.1-0.223c0.101-0.116,0.275-0.257,0.223-0.431
					c0-0.371,0.108-0.609,0.185-0.993c0.005-0.003,0.01-0.005,0.015-0.008c0.032-0.048,0.083-0.097,0.139-0.116
					c0.374,0,0.774,0.034,1.04-0.27c0.023-0.021,0.046-0.041,0.069-0.062c0-0.203,0.139-0.504,0.139-0.739h0.008
					c0-0.305,0.353-0.824,0.362-0.824c0.092-0.215-0.167-0.445-0.339-0.531c0-0.014-0.007-0.085-0.015-0.085
					c0.034-0.219,0.052-0.247,0.2-0.362c0.168-0.042,0.324-0.093,0.485-0.146c0.099-0.198,0.674-0.37,0.893-0.37
					c0.154-0.034,0.329,0.123,0.477,0.123v0.008c0.282-0.013,0.437-0.037,0.685,0.069v0.008c0.01,0.003,0.021,0.005,0.031,0.008
					v0.008h0.015c0.008,0.007,0.863,0.896,0.863,1.063h0.008c0.005,0.015,0.01,0.031,0.015,0.046
					c0.013,0.01,0.026,0.021,0.039,0.031v0.015c0.127,0.115,0.267,0.253,0.393,0.354v0.023h0.008c0,0.206,0.11,0.316,0.254,0.424
					c0,0.02,0.006,0.02,0.023,0.031c0.014,0.057,0.063,0.323,0.138,0.323c0.003,0.005,0.005,0.01,0.008,0.015
					c0.17,0,0.49-0.037,0.624,0.015c0,0.076,0.333,0.002,0.431,0.031c0,0.016,0.135,0.07,0.154,0.092
					c0.016,0.152,0.325,0.237,0.5,0.277C765.246,38.193,765.502,38.703,765.708,38.703L765.708,38.703L765.708,38.703z
					 M762.898,60.404c0.021-0.214,0.049-0.403,0.062-0.631h0.008c0-0.274,0.139-0.328,0.139-0.562h0.008
					c0-0.245,0.245-0.694,0.447-0.87c0.03-0.042,0.302-0.09,0.37-0.069v0.008c0.492,0.07,0.177,0.358,0.177,0.57h-0.008
					c0,0.303,0.121,0.741,0.039,1.017c0,0.121-0.116,0.219-0.116,0.308c-0.067,0.102-0.3,0.132-0.3,0.3h-0.008
					c-0.111,0.294,0.028,0.485-0.223,0.778h-0.008v-0.008h-0.008c0-0.09-0.192-0.189-0.208-0.316h-0.008
					C763.083,60.716,762.97,60.658,762.898,60.404L762.898,60.404L762.898,60.404z M754.719,63.569
					c0.293-0.028,0.935-0.3,1.255-0.169c0.082,0.017,0.232,0.081,0.254,0.169c0.074,0.104-0.125,0.345-0.3,0.87
					c-0.005,0.003-0.01,0.005-0.015,0.008v0.015c-0.141,0.281-0.804,0.542-0.824,0.477h-0.031v0.008
					c-0.119,0.036-0.601-0.142-0.601-0.254c-0.005-0.003-0.01-0.005-0.015-0.008C754.246,63.905,754.686,64.12,754.719,63.569
					L754.719,63.569L754.719,63.569z"/>
			</g>
		</g>
	</g>
	<g>
		<circle opacity="0.5" fill="#5EAFE2" enable-background="new    " cx="745.994" cy="47.812" r="2.464"/>
		<circle opacity="0.5" fill="#5EAFE2" enable-background="new    " cx="753.25" cy="46.032" r="2.601"/>
		<circle opacity="0.5" fill="#5EAFE2" enable-background="new    " cx="760.055" cy="51.523" r="3.711"/>
		<circle opacity="0.5" fill="#5EAFE2" enable-background="new    " cx="757.713" cy="58.108" r="1.369"/>
		<circle opacity="0.5" fill="#5EAFE2" enable-background="new    " cx="746.674" cy="55.995" r="3.145"/>
	</g>
	<g>
		<circle fill="#5EAFE2" cx="760.055" cy="51.523" r="1.854"/>
		<circle fill="#5EAFE2" cx="745.994" cy="47.812" r="1.289"/>
		<circle fill="#5EAFE2" cx="753.25" cy="46.032" r="1.361"/>
		<circle fill="#5EAFE2" cx="757.713" cy="58.108" r="0.716"/>
		<circle fill="#5EAFE2" cx="746.674" cy="56.065" r="1.645"/>
	</g>
	<g>
		
			<rect x="749.298" y="51.299" transform="matrix(0.4045 0.9145 -0.9145 0.4045 496.5291 -653.1337)" fill="#E95E61" width="0.999" height="6.824"/>
		
			<rect x="740.939" y="43.719" transform="matrix(0.0508 0.9987 -0.9987 0.0508 751.7484 -694.8846)" fill="#E95E61" width="1" height="8.636"/>
		
			<rect x="755.674" y="46.318" transform="matrix(-0.0634 0.998 -0.998 -0.0634 855.3146 -709.0671)" fill="#E95E61" width="9.417" height="1"/>
		
			<rect x="751.689" y="47.626" transform="matrix(0.2902 0.957 -0.957 0.2902 581.1849 -687.3052)" fill="#E95E61" width="4.435" height="1"/>
	</g>
</g>
<g>
	<path fill="#DCDCDC" d="M805.974,63.4c-0.321-0.131-0.962,0.141-1.255,0.169c-0.033,0.551-0.473,0.336-0.277,1.117
		c0.005,0.003,0.01,0.005,0.015,0.008c0,0.112,0.481,0.29,0.601,0.254V64.94h0.031c0.02,0.064,0.683-0.196,0.824-0.477v-0.015
		c0.005-0.003,0.01-0.005,0.015-0.008c0.175-0.525,0.374-0.766,0.3-0.87C806.206,63.48,806.057,63.416,805.974,63.4z"/>
	<path fill="#DCDCDC" d="M817.857,38.418c0.028-0.017-0.122-0.198-0.146-0.208c-0.198-0.158-0.014-0.622-0.2-0.685
		c-0.334,0-0.825,0.466-0.986,0.747c-0.189,0.186-0.489,0.533-0.816,0.439v-0.008c-0.207,0-0.462-0.51-0.462-0.685
		c-0.175-0.04-0.484-0.126-0.5-0.277c-0.019-0.023-0.154-0.077-0.154-0.092c-0.099-0.029-0.431,0.046-0.431-0.031
		c-0.134-0.053-0.453-0.015-0.624-0.015c-0.003-0.005-0.005-0.01-0.008-0.015c-0.076,0-0.124-0.267-0.138-0.323
		c-0.017-0.011-0.023-0.011-0.023-0.031c-0.144-0.108-0.254-0.217-0.254-0.424h-0.008v-0.023c-0.126-0.101-0.266-0.239-0.393-0.354
		v-0.015c-0.013-0.01-0.026-0.021-0.039-0.031c-0.005-0.015-0.01-0.031-0.015-0.046h-0.008c0-0.166-0.854-1.055-0.863-1.063h-0.015
		V35.27c-0.01-0.003-0.021-0.005-0.031-0.008v-0.008c-0.248-0.106-0.404-0.083-0.685-0.069v-0.008c-0.149,0-0.324-0.157-0.477-0.123
		c-0.219,0-0.795,0.172-0.893,0.37c-0.161,0.054-0.317,0.104-0.485,0.146c-0.149,0.115-0.166,0.142-0.2,0.362
		c0.009,0,0.015,0.071,0.015,0.085c0.172,0.086,0.431,0.317,0.339,0.531c-0.009,0-0.362,0.519-0.362,0.824h-0.008
		c0,0.236-0.139,0.536-0.139,0.739c-0.023,0.021-0.046,0.041-0.069,0.062c-0.266,0.304-0.666,0.27-1.04,0.27
		c-0.055,0.018-0.107,0.068-0.139,0.115c-0.005,0.003-0.01,0.005-0.015,0.008c-0.077,0.384-0.185,0.622-0.185,0.993
		c0.051,0.174-0.122,0.316-0.223,0.431c0.002,0.109,0.062,0.152,0.1,0.223c0.272,0.01,0.417-0.139,0.593-0.139v-0.008
		c0.117-0.035,0.445,0.116,0.624,0.123c0.075-0.094,0.086-0.175,0.162-0.262c0.172,0,0.218-0.15,0.347-0.146
		c0.296,0.165,0.667,0.352,0.762,0.655c0,0.07,0.024,0.18,0.023,0.277c-0.11,0.03-0.863,0.045-0.863,0.085
		c-0.086,0-0.354,0.214-0.424,0.3h-0.023v0.008c-0.15,0.038-0.329,0.078-0.431,0.2c-0.042,0-0.177,0.39-0.324,0.501
		c-0.104,0.209-0.506,0.217-0.732,0.262c-0.045,0.172-0.419,0.631-0.608,0.631c0,0.164-0.672-0.261-0.678-0.262V42.43
		c-0.549-0.003-0.196,0.908-0.139,1.117c0.072,0.081-0.52,0.519-0.67,0.655c-0.128,0.115-0.477,0.445-0.531,0.608
		c-0.372,0.073-0.784-0.189-1.093-0.1v0.008h-0.015c0,0.282-1.928,0.694-2.025,0.986c-0.068,0-0.114-0.007-0.154-0.062
		c-0.192-0.144-0.271-0.323-0.601-0.323V45.31c-0.066-0.094-0.394-0.335-0.547-0.162c-0.336-0.049-0.575-0.513-1.032-0.57V44.57
		c-0.444,0-0.874,0.023-1.325,0.023c-0.003-0.005-0.005-0.01-0.008-0.015c-0.156,0-0.522-0.145-0.708-0.2
		c-0.178,0-0.345-0.04-0.505-0.067c0.019,0.101,0.039,0.2,0.062,0.283c0.08,0.288,0.151,0.772,0.151,0.772s0.053,0.09-0.053,0.296
		s0.098,0.312-0.337,0.345s-0.692,0.082-0.692,0.082s0,0-0.133,0.09s-0.497,0.32-0.646,0.411c-0.149,0.09-0.028,0.772-0.037,1.126
		c-0.009,0.353,0.364,0.394-1.082,0.329c-1.445-0.066-1.215,0.739-1.215,0.739s0,0,0.239,0.279s0.018,0.534-0.08,0.641
		s-0.417,0.214-0.541,0.255s-0.497,0.016-0.665-0.148c-0.168-0.164-0.39-0.189-0.745-0.197s-0.381,0.09-0.621,0.09
		c-0.239,0-0.364,0.033-0.532,0.057c-0.169,0.025-0.408,0.222-0.621,0.189c-0.213-0.033-0.124,0.025-0.692-0.033
		c-0.567-0.058-0.452-0.255-0.727-0.378c-0.275-0.123-0.541,0-0.913,0.099s-0.408-0.049-0.621-0.148
		c-0.213-0.099-0.514,0.131-0.603,0.246c-0.089,0.115-0.443,0.263-0.443,0.263h-0.638h-0.272c0.052,0.286,0.138,0.541,0.138,0.839
		h-0.008c0,0.084-0.02,0.042-0.039,0.108c-0.154-0.004-0.27-0.139-0.447-0.139c-0.06,0.12-0.039,0.024-0.039,0.231h0.008
		c0,0.159,0.108,0.649-0.062,0.762v0.015c-0.115,0.101-0.087,0.188-0.1,0.346c0.053,0.045,0.029,0.05,0.123,0.077
		c0.458,0,0.562,0.328,0.893,0.593c0,0.146,0.018,0.327,0.092,0.408c0.249,0.324,0.63,0.146,0.955,0.092
		c0.005,0.001,0.323,0.377,0.323,0.47c0.005,0.003,0.01,0.005,0.015,0.008c0.088,0.105,0.298,0.166,0.416,0.254
		c0,0.04,0.133,0.3,0.193,0.3c0.046,0.093,0.32,0.028,0.416,0.092c0.01,0.192,0.096,0.481,0.185,0.601
		c0.018,0.015,0.036,0.031,0.054,0.046c0.123,0.164,0.275,0.082,0.4,0.162c0.146,0.194,0.302,0.456,0.477,0.616
		c0.228,0.004,0.412-0.007,0.639,0.039c0.109,0.13,0.198,0.273,0.362,0.323c0.151,0.043,0.27-0.128,0.4-0.154
		c0.128-0.049,0.376-0.048,0.493,0.031c-0.004,0.225-0.124,0.392-0.008,0.624c0.193,0.064,0.196,0.06,0.362-0.023
		c0.056-0.087,0.023-0.255,0.023-0.354c0.063-0.109,0.577-0.28,0.577-0.277c0.336,0,0.511,0.382,0.77,0.447
		c0,0.003,0.305,0.065,0.354,0.092c-0.002,0.183,0.078,0.221,0.208,0.308c-0.008,0.105-0.099,0.393-0.021,0.47
		c0.189,0.275,1.169,0.078,1.314,0c0.357-0.119,0.694-0.59,1.078-0.631c0.09-0.109,0.284-0.299,0.416-0.323v-0.008
		c0.148,0.042,0.416,0.246,0.547,0.246c0.138,0.096,0.302,0.37,0.447,0.323c0.221-0.032,0.073-0.406,0.216-0.477
		c0.063-0.075,0.162-0.037,0.246-0.015c0.131,0.163,0.216,0.246,0.216,0.477c0.005,0,0.03,0.075,0.054,0.092
		c0,0.083,0.293,0.189,0.293,0.27c0.144,0.162-0.119,1.319-0.177,1.348c-0.023,0.028-0.027,0.038-0.062,0.046
		c-0.103,0.112-0.516,0.296-0.516,0.439c-0.005,0.003-0.01,0.005-0.015,0.008c-0.058,0.234-0.19,0.406-0.115,0.67
		c0.046,0.224-0.052,0.353,0.185,0.416v-0.008c0.17,0,0.277-0.268,0.493-0.123c0.132,0.165,0.176,0.618,0.3,0.701
		c0.069,0.083,0.133,0.083,0.231,0.116c0.064,0.159-0.009,0.492,0.023,0.685h0.008c0.014,0.041,0.078,0.126,0.123,0.139
		c0.04,0.034,0.188-0.021,0.246,0c0,0.01,0.366,0.296,0.4,0.454c0.092,0.008,0.107,0.045,0.208,0.054v-0.008
		c0.138,0,0.132-0.216,0.347-0.216c0.069,0.104,0.085,0.031,0.085,0.169c0,0.198,0.115,0.42,0.323,0.462v0.008
		c0.1,0.017,0.206,0.059,0.231-0.069c0.02-0.053,0.025-0.447-0.054-0.447c0.005-0.098-0.015-0.372-0.1-0.447
		c-0.003-0.096-0.019-0.182,0.062-0.2c0.055-0.047,0.342,0.073,0.4,0.023c0.032-0.001,0.163-0.146,0.193-0.185
		c0.172,0,0.306,0.181,0.501,0.123c0-0.008,0.267-0.085,0.3-0.085c0.019,0.037,0.098,0.084,0.131,0.123
		c0.089,0,0.362,0.081,0.362-0.123c0.091-0.078,0.18-0.062,0.293-0.069v-0.008c0.126,0,0.358-0.291,0.416-0.377
		c0.02-0.013,0.165-0.055,0.2-0.023c0.067,0.021,0.039,0.156,0.154,0.185c0,0.003,0.704,0.132,0.77,0.139
		c0.021,0.018,0.041,0.036,0.062,0.054c-0.001,0.103-0.092,0.328-0.062,0.424h0.008c-0.063,0.316,0.665,0.516,0.862,0.516
		c0.051,0.005,0.639,0.072,0.639,0.023c0.104-0.015,0.082-0.09,0-0.131c0.012-0.259,0.35,0.247,0.377,0.254v0.008
		c0.158-0.013,0.275-0.096,0.431-0.139v-0.008c0.022,0,0.033,0.003,0.046,0.008c-0.014,0.142-0.267,0.398-0.015,0.524
		c0.065,0.082,0.204,0.401,0.277,0.416v0.008c0.177,0.007,0.235,0.014,0.385-0.069c0.011-0.068,0.017-0.227-0.015-0.285
		c-0.048-0.009-0.098-0.016-0.162-0.015c-0.031-0.126-0.094-0.078,0.008-0.2c0.119,0,0.185-0.206,0.185-0.3h0.008
		c0.041-0.205,1.126-0.317,1.348-0.385c0.329,0,0.866-0.343,0.947-0.67c0.025-0.05,0.032-0.233,0.185-0.131
		c0,0.086,0.271,0.368,0.377,0.27c0.19,0,0.216-0.432,0.416-0.37c0.489,0.153,0.975-0.343,1.348-0.555
		c-0.002-0.06-0.031-0.09-0.015-0.146c0-0.212,0.392-0.279,0.57-0.339c0.003-0.005,0.005-0.01,0.008-0.015
		c0.151,0,0.53-0.747,0.608-0.832c0.023-0.084,0.396-0.078,0.478-0.323c0.285-0.143,0.024-0.451,0.393-0.477
		c0.047-0.185-0.002-0.299-0.015-0.493c-0.072-0.228,0.181-0.157,0.2-0.323c-0.084-0.019-0.27-0.089-0.27-0.193
		c0.026-0.055,0.181-0.049,0.27-0.046c0.158-0.135,0.128-0.412,0.308-0.531c0.016-0.457,0.064-0.505,0.262-0.847
		c0.663,0,0.208-0.55,0.208-0.947h0.008c0.076-0.067,0.16,0.018,0.246-0.085c0.059-0.059-0.008-0.216-0.008-0.277
		c-0.059-0.099-0.238,0.1-0.3,0.1c0-0.152,0.328-0.247,0.377-0.431c0.009-0.009,0.003,0,0.008-0.015
		c-0.251-0.098-0.787-0.359-0.97-0.015c-0.069,0-0.199,0.008-0.262-0.015v-0.023h0.008c0.165-0.185,0.901-0.481,0.901-0.816h0.008
		c-0.101-0.296-0.305-0.397-0.485-0.501c0.012-0.098,0.604-0.114,0.308-0.262V52.66c-0.244-0.183-0.51-0.29-0.724-0.477
		c-0.007-0.02-0.015-0.021-0.015-0.039c-0.306-0.153-0.341-1.448-1.194-1.563c0-0.02-0.085-0.045-0.085-0.085
		c-0.008-0.005-0.015-0.01-0.023-0.015c-0.009-0.013,0-0.017-0.015-0.031c0-0.012,0.072-0.473,0.1-0.547h0.008
		c0-0.028,0.057-0.11,0.085-0.131c0-0.005,0.196-0.289,0.215-0.354c0.08,0.057,0.661-0.534,0.608-0.624
		c0.012,0.007,0.617-0.256,0.647-0.3c0.118,0,0.085-0.318,0.085-0.362c-0.124-0.062-0.231-0.118-0.4-0.069
		c-0.281,0.081-0.496-0.177-0.739-0.108c-0.567,0-0.568,0.693-0.862,0.693c-0.011,0.002,0.003,0.007-0.008,0.008v-0.008
		c-0.078-0.011-0.283-0.224-0.316-0.293h-0.008c0-0.142-0.046-0.268-0.1-0.393c-0.197-0.08-0.585,0.121-0.639,0.092
		c0-0.14-0.074-0.203-0.108-0.339c-0.236-0.118-0.139-0.453,0.015-0.585c0.119-0.03,0.602-0.118,0.662-0.208
		c0.002,0,1.278-1.548,1.278-1.556c0.168-0.067,0.39,0.002,0.439,0.2c0.09,0.341-0.239,0.424-0.239,0.67h-0.008
		c-0.003,0.018-0.005,0.036-0.008,0.054c-0.138,0,0.162,0.375,0.162,0.447c-0.172,0-0.29,0.261-0.277,0.408
		c0.156-0.003,0.318-0.018,0.477-0.023c0-0.003,0.184-0.291,0.193-0.439c0.299-0.683,0.815-0.506,1.224-0.847
		c0.014-0.148,0.116-0.31,0.116-0.439c0.127-0.106,0.244-0.253,0.408-0.308c0.003-0.005,0.005-0.01,0.008-0.015h0.015
		c0.137-0.206,0.361-0.359,0.424-0.608c0.072,0,0.095-0.326,0.193-0.354v-0.008c0.229,0,0.419,0.139,0.678,0.139
		c0.057,0.035,0.297-0.118,0.262-0.293c0.006-0.097-0.065-0.239-0.193-0.316c0.001-0.06,0-0.055,0.039-0.077v-0.008
		c0.12,0,0.304-0.015,0.385-0.115c0.138-0.069,0.261-0.484,0.277-0.616c0.012,0,0.078-0.128,0.162-0.139
		c0.062-0.006,0.003,0.289,0.115,0.424c0.05,0.005,0.339,0.099,0.339,0.069c0.07-0.018,0.089-0.068,0.108-0.139
		c0.02-0.075,0.116-0.469,0.116-0.524h0.008c0.14-0.481-0.625-1.209-0.478-1.656c0.035-0.107,0.224-0.177,0.285-0.277
		c0.166,0,0.463,0.138,0.585-0.046c0.111-0.109,0.103-0.203,0.116-0.354C817.624,40.112,817.772,38.642,817.857,38.418z"/>
	<path fill="#DCDCDC" d="M813.929,58.279v-0.008c-0.067-0.021-0.339,0.027-0.37,0.069c-0.201,0.176-0.447,0.625-0.447,0.87h-0.008
		c0,0.234-0.139,0.289-0.139,0.562h-0.008c-0.013,0.228-0.04,0.417-0.062,0.631c0.073,0.254,0.185,0.312,0.362,0.524h0.008
		c0.016,0.127,0.208,0.226,0.208,0.316h0.008v0.008h0.008c0.251-0.293,0.113-0.484,0.223-0.778h0.008c0-0.168,0.233-0.198,0.3-0.3
		c0-0.089,0.116-0.187,0.116-0.308c0.082-0.276-0.039-0.714-0.039-1.017h0.008C814.107,58.636,814.421,58.349,813.929,58.279z"/>
	<path fill="#5EAFE2" d="M784.806,50c0,0,0.355-0.148,0.443-0.263c0.089-0.115,0.39-0.345,0.603-0.246
		c0.213,0.099,0.248,0.246,0.621,0.148c0.372-0.099,0.638-0.222,0.913-0.099s0.16,0.32,0.727,0.378c0.568,0.057,0.479,0,0.692,0.033
		s0.452-0.164,0.621-0.189c0.168-0.025,0.293-0.057,0.532-0.057c0.239,0,0.266-0.099,0.621-0.09s0.576,0.033,0.745,0.197
		c0.169,0.164,0.541,0.189,0.665,0.148s0.443-0.148,0.541-0.255s0.319-0.362,0.08-0.641c-0.239-0.279-0.239-0.279-0.239-0.279
		s-0.231-0.805,1.215-0.739c1.445,0.066,1.073,0.025,1.082-0.329c0.009-0.353-0.113-1.035,0.037-1.126
		c0.149-0.09,0.513-0.32,0.646-0.411c0.133-0.09,0.133-0.09,0.133-0.09s0.257-0.049,0.692-0.082c0.434-0.033,0.231-0.14,0.337-0.345
		s0.053-0.296,0.053-0.296s-0.071-0.485-0.151-0.772c-0.023-0.083-0.044-0.182-0.062-0.283c-0.06-0.01-0.123-0.025-0.18-0.025
		l-0.015-0.023c-0.018-0.015-0.036-0.031-0.054-0.046v-0.015c-0.049,0-0.039-0.323-0.039-0.331h-0.008
		c-0.003-0.01-0.005-0.021-0.008-0.031c-0.172-0.086-0.238-0.375-0.246-0.547h-0.008c0.073-0.469-1.811-1.146-1.925-1.14
		c-0.186-0.042-0.458-0.074-0.601-0.177c-0.232-0.258-0.181-0.449,0.062-0.701v-0.015c0.268-0.201,0.078-0.573,0.031-0.809
		c-0.128-0.096-0.154-0.457-0.154-0.632c-0.02-0.065-0.281-0.214-0.37-0.239c-0.103,0.018-0.689-0.441-0.647-0.562
		c0-0.055-0.058-0.182-0.062-0.277h-0.008c0-0.17-0.218-0.261-0.362-0.216c-0.305,0-0.248,0.249-0.393,0.37v0.008
		c-0.259,0.086-0.741,0.054-0.824,0.385h-0.008c-0.029,0.065-0.013,0.547-0.015,0.547c-0.041,0.135-0.073,0.168-0.223,0.177v0.008
		c-0.044,0.006-1.032-0.143-1.032-0.354c-0.083-0.008-0.19-0.038-0.246,0.046h-0.008c-0.016,0.064-0.247,0.493-0.316,0.601
		c-0.463,0.231-0.211,0.638-0.331,0.778c-0.003,0.008-0.005,0.015-0.008,0.023c-0.454,0-0.839-0.286-1.325-0.139
		c-0.122,0-0.17,0.077-0.1,0.177c0.085,0.063,0.07,0.2,0.038,0.3h-0.008c0.062,0.32,0.047,0.642-0.023,0.955
		c-0.006,0.015-0.602,0.745-0.624,0.762c0.021,0.126,0.006,0.227-0.208,0.339c0,0.037-0.653,0.105-0.708,0.123v0.008
		c-0.665,0-0.935,0.029-1.456,0.462c-0.359-0.016-0.147-0.34-0.416-0.385c-0.386-0.127-1.048,0.447-1.263,0.447
		c-0.036,0.157-0.325,0.319-0.292,0.385c0.114,0,0.179,0.302-0.062,0.354c-0.119,0.263,0.005,0.32,0.116,0.401
		c0.153-0.004,0.454-0.184,0.454,0.092h0.008c0,0.253,0.057,0.501-0.062,0.739c-0.216,0.054-0.401,0.26-0.254,0.478
		c0.008,0.005,0.015,0.01,0.023,0.015c0.083,0.1,0.454,0.404,0.57,0.462c0.075,0.122-0.062,0.517-0.062,0.662
		c-0.007,0.009,0.072,0.111,0.131,0.116c0.15-0.135,0.958,0.507,0.886,0.762c-0.063,0.221-0.024,0.574,0.262,0.631
		c0.046,0.038,0.065,0.041,0.085,0.154c0,0.184-0.262,0.312-0.185,0.547h0.008c0.002,0.013,0.006,0.025,0.008,0.038h0.272
		L784.806,50z"/>
</g>
<g>
	<g>
		<path fill="#5EA6D5" d="M885.545,46.282c-2.397,0.137-3.625,2.058-3.685,5.769c0.03,3.711,1.258,5.597,3.685,5.666
			c2.516,0.034,3.759-1.852,3.729-5.666C889.244,48.238,888.001,46.317,885.545,46.282z M885.59,56.236
			c-1.064,0-1.596-1.378-1.596-4.134c0-2.859,0.532-4.271,1.596-4.237c1.034-0.069,1.536,1.344,1.512,4.237
			C887.101,54.859,886.594,56.236,885.59,56.236z"/>
		<path fill="#5EA6D5" d="M894.038,46.282c-2.397,0.137-3.625,2.058-3.685,5.769c0.03,3.711,1.258,5.597,3.685,5.666
			c2.516,0.034,3.759-1.852,3.729-5.666S896.494,46.317,894.038,46.282z M894.082,56.236c-1.064,0-1.596-1.378-1.596-4.134
			c0-2.859,0.532-4.271,1.596-4.237c1.034-0.069,1.536,1.344,1.512,4.237C895.594,54.859,895.087,56.236,894.082,56.236z"/>
		<polygon fill="#5EA6D5" points="905.974,46.272 899.794,57.728 901.325,57.728 907.52,46.272 		"/>
		<path fill="#5EA6D5" d="M902.77,48.892c-0.017-1.747-0.724-2.627-2.122-2.642c-1.364,0.063-2.063,0.943-2.097,2.642
			c0.017,1.7,0.716,2.564,2.097,2.595C902.079,51.503,902.787,50.639,902.77,48.892z M899.765,48.916
			c0-1.309,0.303-1.956,0.908-1.941c0.589-0.031,0.874,0.615,0.86,1.941c0,1.262-0.289,1.893-0.86,1.893
			C900.067,50.809,899.765,50.178,899.765,48.916z"/>
		<path fill="#5EA6D5" d="M906.547,52.481c-1.364,0.063-2.063,0.943-2.097,2.642c0.017,1.7,0.716,2.564,2.097,2.595
			c1.432,0.016,2.139-0.849,2.122-2.595C908.653,53.377,907.945,52.497,906.547,52.481z M906.573,57.04
			c-0.606,0-0.908-0.631-0.908-1.893c0-1.309,0.303-1.956,0.908-1.941c0.589-0.031,0.874,0.615,0.86,1.941
			C907.433,56.409,907.145,57.04,906.573,57.04z"/>
	</g>
	<g>
		<path fill="#DF674F" d="M914.797,57.738l-0.003-7.353l3.066,0.004l-3.807-4.126l-3.807,4.126h2.956l-0.002,7.35L914.797,57.738
			L914.797,57.738z"/>
	</g>
	<rect x="881.86" y="34.406" fill="#DCDCDB" width="36" height="7.188"/>
</g>
<g>
	<path fill="#4FB467" d="M934.033,58.58c-0.02-0.036-0.034-0.075-0.053-0.111C933.999,58.505,934.013,58.544,934.033,58.58z"/>
	<g>
		<path fill="#D4644D" d="M944.93,45.777c-0.873,1.018-1.435,2.307-1.544,3.723h5.267L944.93,45.777z"/>
		<g>
			<path fill="#D4644D" d="M951.067,49.5h5.268c-0.109-1.416-0.671-2.705-1.544-3.724L951.067,49.5z"/>
			<path fill="#D4644D" d="M959.032,41.536l-3.534,3.534c1.052,1.202,1.725,2.739,1.837,4.431h5
				C962.213,46.432,960.984,43.65,959.032,41.536z"/>
		</g>
		<g>
			<path fill="#58A7DD" d="M951.067,50.5l3.724,3.724c0.874-1.018,1.435-2.307,1.544-3.724H951.067z"/>
			<path fill="#58A7DD" d="M963.335,50.5c-0.123,3.344-1.464,6.375-3.597,8.671l2.474,2.474c2.765-2.932,4.497-6.836,4.623-11.145
				L963.335,50.5z"/>
			<path fill="#58A7DD" d="M957.335,50.5c-0.112,1.692-0.785,3.229-1.837,4.431l3.534,3.534c1.953-2.114,3.181-4.896,3.303-7.964
				L957.335,50.5L957.335,50.5z"/>
		</g>
		<g>
			<path fill="#8BC676" d="M949.361,48.793v-5.268c-1.416,0.109-2.706,0.67-3.724,1.544L949.361,48.793z"/>
			<path fill="#8BC676" d="M944.93,44.363c1.202-1.053,2.739-1.725,4.431-1.837v-5c-3.068,0.122-5.851,1.351-7.965,3.303
				L944.93,44.363z"/>
			<path fill="#8BC676" d="M938.215,37.648l2.474,2.474c2.296-2.133,5.327-3.473,8.671-3.597v-3.5
				C945.052,33.151,941.147,34.883,938.215,37.648z"/>
		</g>
		<g>
			<path fill="#F3A24E" d="M941.396,59.171c2.114,1.953,4.896,3.181,7.965,3.303v-5c-1.692-0.112-3.229-0.785-4.431-1.837
				L941.396,59.171z"/>
			<path fill="#F3A24E" d="M945.637,54.931c1.018,0.874,2.307,1.435,3.724,1.544v-5.268L945.637,54.931z"/>
		</g>
		<path fill="#8BC676" d="M950.36,56.475c1.416-0.109,2.705-0.67,3.724-1.544l-3.724-3.723V56.475z"/>
		<g>
			<path fill="#58A7DD" d="M932.886,50.5c0.126,4.308,1.857,8.213,4.623,11.145l2.474-2.474c-2.133-2.296-3.473-5.327-3.596-8.671
				H932.886z"/>
			<path fill="#58A7DD" d="M937.386,50.5c0.122,3.068,1.351,5.85,3.303,7.964l3.534-3.534c-1.052-1.202-1.725-2.739-1.837-4.43
				H937.386z"/>
			<path fill="#58A7DD" d="M943.386,50.5c0.109,1.416,0.67,2.705,1.544,3.723l3.724-3.723H943.386z"/>
		</g>
		<path fill="#58A7DD" d="M954.084,45.069c-1.018-0.873-2.307-1.435-3.724-1.544v5.267L954.084,45.069z"/>
		<path fill="#DCDCDB" d="M949.86,33c9.374,0,17,7.626,17,17s-7.626,17-17,17s-17-7.626-17-17S940.487,33,949.86,33 M949.86,32
			c-9.941,0-18,8.059-18,18s8.059,18,18,18s18-8.059,18-18S959.801,32,949.86,32L949.86,32z"/>
	</g>
</g>
<g>
	<polygon fill="#DBDBDB" points="68,100 64.333,97.883 64.333,99.5 50.5,99.5 50.5,85.667 52.117,85.667 50,82 47.883,85.667 
		49.5,85.667 49.5,99.5 35.667,99.5 35.667,97.883 32,100 35.667,102.117 35.667,100.5 49.5,100.5 49.5,114.333 47.883,114.333 
		50,118 52.117,114.333 50.5,114.333 50.5,100.5 64.333,100.5 64.333,102.117 	"/>
	<g>
		<path fill="#8BC676" d="M50.5,111.725c6.089-0.257,10.968-5.136,11.225-11.225H50.5V111.725z"/>
		<path fill="#58A7DD" d="M49.5,88.275c-6.089,0.257-10.968,5.136-11.225,11.225H49.5V88.275z"/>
		<path fill="#F3A24E" d="M61.725,99.5c-0.257-6.089-5.136-10.968-11.225-11.225V99.5H61.725z"/>
		<path fill="#CA604B" d="M38.275,100.5c0.257,6.089,5.136,10.968,11.225,11.225V100.5H38.275z"/>
	</g>
</g>
<g>
	<g>
		<g>
			<path fill="#58A7DD" d="M115.848,88.703v0.008c0.327,0.094,0.627-0.253,0.816-0.439c0.161-0.281,0.651-0.747,0.986-0.747
				c0.186,0.063,0.003,0.527,0.2,0.685c0.024,0.01,0.174,0.191,0.146,0.208c-0.085,0.224-0.233,1.695-0.139,1.756
				c-0.013,0.151-0.004,0.245-0.116,0.354c-0.123,0.184-0.419,0.046-0.585,0.046c-0.061,0.1-0.25,0.17-0.285,0.277
				c-0.148,0.447,0.617,1.175,0.477,1.656h-0.008c0,0.054-0.096,0.448-0.116,0.524c-0.018,0.07-0.038,0.121-0.108,0.139
				c0,0.029-0.289-0.065-0.339-0.069c-0.112-0.134-0.053-0.43-0.115-0.424c-0.084,0.011-0.15,0.139-0.162,0.139
				c-0.017,0.132-0.139,0.547-0.277,0.616c-0.081,0.101-0.265,0.116-0.385,0.116v0.008c-0.039,0.022-0.038,0.017-0.039,0.077
				c0.128,0.077,0.199,0.218,0.193,0.316c0.035,0.174-0.205,0.328-0.262,0.293c-0.259,0-0.448-0.139-0.678-0.139v0.008
				c-0.097,0.028-0.121,0.354-0.193,0.354c-0.062,0.249-0.286,0.402-0.424,0.608h-0.015c-0.003,0.005-0.005,0.01-0.008,0.015
				c-0.165,0.055-0.281,0.202-0.408,0.308c0,0.129-0.102,0.291-0.116,0.439c-0.409,0.341-0.926,0.164-1.224,0.847
				c-0.008,0.148-0.193,0.436-0.193,0.439c-0.159,0.005-0.321,0.02-0.477,0.023c-0.012-0.147,0.106-0.408,0.277-0.408
				c0-0.072-0.3-0.447-0.162-0.447c0.003-0.018,0.005-0.036,0.008-0.054h0.008c0-0.246,0.329-0.329,0.239-0.67
				c-0.05-0.198-0.271-0.267-0.439-0.2c0,0.008-1.277,1.556-1.278,1.556c-0.06,0.09-0.543,0.178-0.662,0.208
				c-0.155,0.133-0.251,0.467-0.015,0.585c0.034,0.136,0.108,0.199,0.108,0.339c0.055,0.029,0.442-0.173,0.639-0.092
				c0.054,0.125,0.1,0.251,0.1,0.393h0.008c0.033,0.069,0.238,0.281,0.316,0.293v0.008c0.011-0.001-0.003-0.006,0.008-0.008
				c0.294,0,0.295-0.693,0.862-0.693c0.243-0.069,0.458,0.189,0.739,0.108c0.17-0.049,0.276,0.007,0.4,0.069
				c0,0.044,0.033,0.362-0.085,0.362c-0.03,0.045-0.635,0.307-0.647,0.3c0.053,0.09-0.528,0.681-0.608,0.624
				c-0.02,0.065-0.215,0.349-0.215,0.354c-0.028,0.021-0.085,0.103-0.085,0.131h-0.008c-0.028,0.074-0.1,0.535-0.1,0.547
				c0.015,0.013,0.006,0.018,0.015,0.031c0.008,0.005,0.015,0.01,0.023,0.015c0,0.04,0.085,0.065,0.085,0.085
				c0.853,0.116,0.887,1.41,1.194,1.563c0,0.018,0.009,0.019,0.015,0.038c0.214,0.187,0.479,0.294,0.724,0.477v0.015
				c0.296,0.148-0.296,0.164-0.308,0.262c0.18,0.104,0.384,0.205,0.485,0.501h-0.008c0,0.335-0.736,0.631-0.901,0.816h-0.008v0.023
				c0.063,0.024,0.193,0.015,0.262,0.015c0.183-0.344,0.72-0.083,0.97,0.015c-0.004,0.016,0.001,0.007-0.008,0.015
				c-0.049,0.185-0.377,0.28-0.377,0.431c0.062,0,0.241-0.199,0.3-0.1c0,0.062,0.067,0.218,0.008,0.277
				c-0.086,0.103-0.17,0.018-0.246,0.085h-0.008c0,0.397,0.456,0.947-0.208,0.947c-0.198,0.343-0.246,0.39-0.262,0.847
				c-0.18,0.12-0.15,0.396-0.308,0.531c-0.088-0.003-0.243-0.009-0.27,0.046c0,0.103,0.185,0.174,0.27,0.193
				c-0.02,0.167-0.272,0.095-0.2,0.323c0.014,0.194,0.062,0.308,0.015,0.493c-0.368,0.026-0.107,0.335-0.393,0.477
				c-0.082,0.246-0.454,0.24-0.478,0.323c-0.078,0.085-0.457,0.832-0.608,0.832c-0.003,0.005-0.005,0.01-0.008,0.015
				c-0.178,0.059-0.57,0.127-0.57,0.339c-0.016,0.056,0.013,0.087,0.015,0.146c-0.372,0.211-0.859,0.708-1.348,0.554
				c-0.2-0.063-0.226,0.37-0.416,0.37c-0.106,0.098-0.377-0.183-0.377-0.27c-0.152-0.102-0.16,0.081-0.185,0.131
				c-0.082,0.326-0.618,0.67-0.947,0.67c-0.221,0.068-1.307,0.18-1.348,0.385h-0.008c0,0.094-0.066,0.3-0.185,0.3
				c-0.102,0.122-0.039,0.074-0.008,0.2c0.064-0.001,0.114,0.006,0.162,0.015c0.033,0.057,0.026,0.218,0.015,0.285
				c-0.15,0.083-0.208,0.076-0.385,0.069v-0.008c-0.073-0.015-0.212-0.334-0.277-0.416c-0.251-0.126,0.001-0.381,0.015-0.524
				c-0.013-0.005-0.024-0.007-0.046-0.008v0.008c-0.156,0.043-0.274,0.125-0.431,0.139v-0.008c-0.027-0.007-0.366-0.513-0.377-0.254
				c0.082,0.041,0.104,0.116,0,0.131c0,0.049-0.588-0.018-0.639-0.023c-0.197,0-0.926-0.2-0.862-0.516h-0.008
				c-0.03-0.096,0.06-0.32,0.062-0.424c-0.021-0.018-0.041-0.036-0.062-0.054c-0.066-0.007-0.77-0.136-0.77-0.139
				c-0.115-0.029-0.087-0.164-0.154-0.185c-0.036-0.032-0.18,0.01-0.2,0.023c-0.058,0.086-0.29,0.377-0.416,0.377v0.008
				c-0.113,0.007-0.202-0.009-0.293,0.069c0,0.204-0.273,0.123-0.362,0.123c-0.033-0.04-0.112-0.086-0.131-0.123
				c-0.033,0-0.3,0.076-0.3,0.085c-0.194,0.058-0.329-0.123-0.501-0.123c-0.03,0.039-0.16,0.184-0.193,0.185
				c-0.059,0.05-0.345-0.07-0.4-0.023c-0.081,0.018-0.064,0.104-0.062,0.2c0.085,0.074,0.106,0.348,0.1,0.447
				c0.079,0,0.074,0.394,0.054,0.447c-0.026,0.128-0.131,0.086-0.231,0.069v-0.008c-0.209-0.042-0.323-0.264-0.323-0.462
				c0-0.138-0.016-0.065-0.085-0.169c-0.215,0-0.209,0.216-0.347,0.216v0.008c-0.101-0.008-0.116-0.046-0.208-0.054
				c-0.034-0.158-0.4-0.445-0.4-0.454c-0.058-0.021-0.207,0.034-0.246,0c-0.045-0.012-0.11-0.098-0.123-0.139H97.36
				c-0.032-0.193,0.04-0.526-0.023-0.685c-0.097-0.032-0.162-0.032-0.231-0.116c-0.124-0.083-0.169-0.536-0.3-0.701
				c-0.216-0.145-0.323,0.123-0.493,0.123v0.008c-0.237-0.063-0.139-0.192-0.185-0.416c-0.075-0.264,0.057-0.436,0.116-0.67
				c0.005-0.003,0.01-0.005,0.015-0.008c0-0.143,0.413-0.327,0.516-0.439c0.035-0.009,0.039-0.018,0.062-0.046
				c0.058-0.029,0.321-1.186,0.177-1.348c0-0.081-0.293-0.187-0.293-0.27c-0.024-0.018-0.048-0.092-0.054-0.092
				c0-0.232-0.085-0.314-0.216-0.477c-0.085-0.021-0.184-0.06-0.246,0.015c-0.143,0.071,0.005,0.446-0.216,0.478
				c-0.145,0.047-0.308-0.227-0.447-0.323c-0.131,0-0.398-0.204-0.547-0.246v0.008c-0.132,0.025-0.325,0.215-0.416,0.323
				c-0.384,0.041-0.722,0.513-1.078,0.631c-0.146,0.078-1.126,0.275-1.314,0c-0.078-0.077,0.013-0.364,0.021-0.47
				c-0.13-0.087-0.21-0.125-0.208-0.308c-0.049-0.028-0.354-0.09-0.354-0.092c-0.259-0.065-0.434-0.447-0.77-0.447
				c0-0.003-0.515,0.169-0.577,0.277c0,0.1,0.033,0.267-0.023,0.354c-0.166,0.083-0.169,0.087-0.362,0.023
				c-0.116-0.232,0.004-0.399,0.008-0.624c-0.117-0.078-0.365-0.08-0.493-0.031c-0.131,0.026-0.25,0.197-0.4,0.154
				c-0.164-0.05-0.253-0.193-0.362-0.323c-0.227-0.045-0.411-0.034-0.639-0.039c-0.176-0.16-0.332-0.422-0.478-0.616
				c-0.125-0.08-0.277,0.002-0.4-0.162c-0.018-0.015-0.036-0.031-0.054-0.046c-0.089-0.119-0.175-0.408-0.185-0.601
				c-0.096-0.064-0.37,0-0.416-0.092c-0.06,0-0.193-0.26-0.193-0.3c-0.118-0.088-0.328-0.149-0.416-0.254
				c-0.005-0.003-0.01-0.005-0.015-0.008c0-0.093-0.318-0.468-0.323-0.47c-0.325,0.054-0.706,0.232-0.955-0.092
				c-0.074-0.081-0.092-0.262-0.092-0.408c-0.331-0.265-0.436-0.593-0.893-0.593c-0.094-0.027-0.07-0.032-0.123-0.077
				c0.014-0.159-0.015-0.246,0.1-0.346v-0.015c0.169-0.113,0.062-0.604,0.062-0.762h-0.008c0-0.207-0.022-0.111,0.039-0.231
				c0.177,0,0.293,0.135,0.447,0.139c0.018-0.066,0.039-0.024,0.039-0.108h0.008c0-0.313-0.096-0.575-0.146-0.878H84.02
				c-0.077-0.235,0.185-0.363,0.185-0.547c-0.019-0.113-0.039-0.116-0.085-0.154c-0.286-0.057-0.324-0.41-0.262-0.631
				c0.072-0.256-0.735-0.897-0.886-0.762c-0.059-0.004-0.138-0.107-0.131-0.116c0-0.145,0.137-0.54,0.062-0.662
				c-0.116-0.058-0.486-0.362-0.57-0.462c-0.008-0.005-0.015-0.01-0.023-0.015c-0.146-0.218,0.038-0.423,0.254-0.477
				c0.119-0.238,0.062-0.486,0.062-0.739h-0.008c0-0.276-0.302-0.096-0.454-0.092c-0.111-0.081-0.234-0.138-0.116-0.4
				c0.24-0.053,0.175-0.354,0.062-0.354c-0.032-0.066,0.256-0.228,0.292-0.385c0.215,0,0.877-0.574,1.263-0.447
				c0.269,0.045,0.057,0.369,0.416,0.385c0.52-0.433,0.79-0.462,1.456-0.462V93.63c0.055-0.019,0.708-0.086,0.708-0.123
				c0.214-0.112,0.229-0.213,0.208-0.339c0.022-0.017,0.618-0.748,0.624-0.762c0.071-0.313,0.085-0.635,0.023-0.955h0.008
				c0.032-0.1,0.046-0.237-0.038-0.3c-0.07-0.1-0.022-0.177,0.1-0.177c0.485-0.148,0.871,0.139,1.325,0.139
				c0.003-0.008,0.005-0.015,0.008-0.023c0.12-0.14-0.131-0.547,0.331-0.778c0.068-0.108,0.3-0.536,0.316-0.601h0.008
				c0.056-0.084,0.163-0.054,0.246-0.046c0,0.211,0.988,0.361,1.032,0.354v-0.008c0.15-0.009,0.182-0.042,0.223-0.177
				c0.003,0-0.014-0.482,0.015-0.547h0.008c0.083-0.331,0.565-0.299,0.824-0.385v-0.008c0.145-0.121,0.088-0.37,0.393-0.37
				c0.144-0.045,0.362,0.046,0.362,0.216h0.008c0.004,0.095,0.062,0.222,0.062,0.277c-0.042,0.122,0.544,0.58,0.647,0.562
				c0.089,0.024,0.35,0.174,0.37,0.239c0,0.175,0.026,0.536,0.154,0.632c0.047,0.235,0.237,0.607-0.031,0.809v0.015
				c-0.242,0.252-0.294,0.443-0.062,0.701c0.142,0.103,0.414,0.135,0.601,0.177c0.114-0.007,1.998,0.671,1.925,1.14h0.008
				c0.009,0.172,0.075,0.461,0.246,0.547c0.003,0.01,0.005,0.021,0.008,0.031h0.008c0,0.008-0.01,0.331,0.039,0.331v0.015
				c0.018,0.015,0.036,0.031,0.054,0.046l0.015,0.023c0.208,0,0.441,0.092,0.685,0.092c0.187,0.056,0.553,0.2,0.708,0.2
				c0.003,0.005,0.005,0.01,0.008,0.015c0.451,0,0.88-0.023,1.325-0.023v0.008c0.457,0.057,0.696,0.521,1.032,0.57
				c0.153-0.173,0.48,0.068,0.547,0.162v0.008c0.33,0,0.408,0.179,0.601,0.323c0.04,0.054,0.086,0.062,0.154,0.062
				c0.097-0.292,2.025-0.703,2.025-0.986h0.015V94.71c0.309-0.089,0.721,0.174,1.093,0.1c0.054-0.163,0.404-0.493,0.531-0.608
				c0.15-0.135,0.742-0.574,0.67-0.655c-0.058-0.208-0.411-1.12,0.139-1.117v0.008c0.006,0.001,0.678,0.426,0.678,0.262
				c0.19,0,0.563-0.46,0.608-0.631c0.225-0.045,0.627-0.053,0.732-0.262c0.147-0.111,0.282-0.501,0.323-0.501
				c0.102-0.122,0.281-0.163,0.431-0.2v-0.008h0.023c0.069-0.087,0.338-0.3,0.424-0.3c0-0.04,0.753-0.054,0.863-0.085
				c0.001-0.097-0.023-0.207-0.023-0.277c-0.095-0.303-0.467-0.489-0.762-0.655c-0.128-0.004-0.175,0.146-0.347,0.146
				c-0.076,0.087-0.086,0.168-0.162,0.262c-0.178-0.007-0.507-0.158-0.624-0.123v0.008c-0.176,0-0.321,0.149-0.593,0.139
				c-0.038-0.071-0.098-0.114-0.1-0.223c0.101-0.116,0.275-0.257,0.223-0.431c0-0.371,0.108-0.609,0.185-0.993
				c0.005-0.003,0.01-0.005,0.015-0.008c0.032-0.047,0.083-0.097,0.139-0.116c0.374,0,0.774,0.034,1.04-0.27
				c0.023-0.021,0.046-0.041,0.069-0.062c0-0.203,0.139-0.504,0.139-0.739h0.008c0-0.305,0.353-0.824,0.362-0.824
				c0.092-0.215-0.167-0.445-0.339-0.531c0-0.014-0.007-0.085-0.015-0.085c0.034-0.219,0.052-0.247,0.2-0.362
				c0.168-0.042,0.324-0.093,0.485-0.146c0.099-0.198,0.674-0.37,0.893-0.37c0.154-0.034,0.329,0.123,0.477,0.123v0.008
				c0.282-0.013,0.437-0.037,0.685,0.069v0.008c0.01,0.003,0.021,0.005,0.031,0.008v0.008h0.015
				c0.008,0.007,0.863,0.896,0.863,1.063h0.008c0.005,0.015,0.01,0.031,0.015,0.046c0.013,0.01,0.026,0.021,0.039,0.031v0.015
				c0.127,0.115,0.267,0.253,0.393,0.354v0.023h0.008c0,0.206,0.11,0.316,0.254,0.424c0,0.02,0.006,0.02,0.023,0.031
				c0.014,0.057,0.063,0.323,0.138,0.323c0.003,0.005,0.005,0.01,0.008,0.015c0.17,0,0.49-0.037,0.624,0.015
				c0,0.076,0.333,0.002,0.431,0.031c0,0.016,0.135,0.07,0.154,0.092c0.016,0.152,0.325,0.237,0.5,0.277
				C115.386,88.193,115.641,88.703,115.848,88.703L115.848,88.703L115.848,88.703z M113.037,110.404
				c0.021-0.214,0.049-0.403,0.062-0.631h0.008c0-0.274,0.139-0.328,0.139-0.562h0.008c0-0.245,0.245-0.694,0.447-0.87
				c0.03-0.042,0.302-0.09,0.37-0.069v0.008c0.492,0.07,0.177,0.358,0.177,0.57h-0.008c0,0.303,0.121,0.741,0.038,1.017
				c0,0.121-0.116,0.219-0.116,0.308c-0.067,0.102-0.3,0.132-0.3,0.3h-0.008c-0.111,0.294,0.028,0.485-0.223,0.778h-0.008v-0.008
				h-0.008c0-0.09-0.192-0.189-0.208-0.316h-0.008C113.223,110.716,113.11,110.658,113.037,110.404L113.037,110.404L113.037,110.404
				z M104.859,113.569c0.293-0.028,0.935-0.3,1.255-0.169c0.082,0.017,0.232,0.081,0.254,0.169c0.074,0.104-0.125,0.345-0.3,0.87
				c-0.005,0.003-0.01,0.005-0.015,0.008v0.015c-0.14,0.281-0.804,0.542-0.824,0.477h-0.031v0.008
				c-0.119,0.036-0.601-0.142-0.601-0.254c-0.005-0.003-0.01-0.005-0.015-0.008C104.386,113.905,104.826,114.12,104.859,113.569
				L104.859,113.569L104.859,113.569z"/>
		</g>
	</g>
	<g>
		<path fill="#FFFFFF" d="M99.836,103.034c1.008-0.212,0.871-1.389,0.841-1.647c-0.05-0.397-0.527-1.09-1.175-1.035
			c-0.816,0.071-0.935,1.223-0.935,1.223C98.456,102.108,98.831,103.246,99.836,103.034L99.836,103.034L99.836,103.034z
			 M100.907,105.082c-0.029,0.083-0.095,0.295-0.038,0.479c0.113,0.413,0.517,0.346,0.517,0.346h0.567v-1.133h-0.567
			C101.132,104.848,100.934,105,100.907,105.082L100.907,105.082L100.907,105.082z M101.708,101.059c0.557,0,1.007-0.627,1.007-1.4
			c0-0.774-0.45-1.4-1.007-1.4c-0.556,0-1.007,0.626-1.007,1.4C100.701,100.433,101.152,101.059,101.708,101.059L101.708,101.059
			L101.708,101.059z M104.106,101.152c0.745,0.094,1.223-0.682,1.318-1.27c0.097-0.587-0.383-1.27-0.911-1.387
			c-0.528-0.118-1.187,0.708-1.247,1.247C103.195,100.4,103.364,101.058,104.106,101.152L104.106,101.152L104.106,101.152z
			 M105.93,104.611c0,0-1.152-0.871-1.824-1.812c-0.911-1.387-2.206-0.823-2.639-0.117c-0.431,0.706-1.103,1.152-1.199,1.27
			c-0.097,0.116-1.391,0.799-1.104,2.046c0.287,1.247,1.37,1.327,1.37,1.327s0.67-0.032,1.532-0.221
			c0.863-0.187,1.606,0.047,1.606,0.047s2.016,0.66,2.568-0.61C106.793,105.269,105.93,104.611,105.93,104.611L105.93,104.611
			L105.93,104.611z M102.519,106.474h-1.417c-0.566-0.013-0.724-0.461-0.752-0.525c-0.028-0.065-0.188-0.369-0.103-0.885
			c0.245-0.774,0.856-0.857,0.856-0.857h0.85v-0.85h0.567L102.519,106.474L102.519,106.474L102.519,106.474L102.519,106.474z
			 M104.786,106.474h-1.417c-0.558-0.024-0.568-0.535-0.568-0.535l0.001-1.732h0.567v1.417c0.037,0.156,0.283,0.283,0.283,0.283
			h0.567v-1.7h0.567V106.474L104.786,106.474L104.786,106.474z M107.057,102.14c0-0.281-0.239-1.129-1.127-1.129
			c-0.889,0-1.008,0.8-1.008,1.366c0,0.54,0.046,1.293,1.151,1.269C107.178,103.622,107.057,102.423,107.057,102.14L107.057,102.14
			L107.057,102.14z"/>
	</g>
</g>
<g>
	<g>
		<g>
			<path fill="#8BC676" d="M165.848,88.703v0.008c0.327,0.094,0.627-0.253,0.816-0.439c0.161-0.281,0.651-0.747,0.986-0.747
				c0.186,0.063,0.003,0.527,0.2,0.685c0.025,0.01,0.174,0.191,0.146,0.208c-0.085,0.224-0.233,1.695-0.139,1.756
				c-0.013,0.151-0.004,0.245-0.116,0.354c-0.123,0.184-0.419,0.046-0.585,0.046c-0.061,0.1-0.25,0.17-0.285,0.277
				c-0.148,0.447,0.617,1.175,0.477,1.656h-0.008c0,0.054-0.096,0.448-0.116,0.524c-0.018,0.07-0.038,0.121-0.108,0.139
				c0,0.029-0.289-0.065-0.339-0.069c-0.112-0.134-0.053-0.43-0.115-0.424c-0.084,0.011-0.15,0.139-0.162,0.139
				c-0.017,0.132-0.139,0.547-0.277,0.616c-0.081,0.101-0.265,0.116-0.385,0.116v0.008c-0.039,0.022-0.038,0.017-0.039,0.077
				c0.128,0.077,0.199,0.218,0.193,0.316c0.035,0.174-0.205,0.328-0.262,0.293c-0.259,0-0.448-0.139-0.678-0.139v0.008
				c-0.097,0.028-0.121,0.354-0.193,0.354c-0.062,0.249-0.286,0.402-0.424,0.608h-0.015c-0.003,0.005-0.005,0.01-0.008,0.015
				c-0.165,0.055-0.281,0.202-0.408,0.308c0,0.129-0.102,0.291-0.116,0.439c-0.409,0.341-0.926,0.164-1.224,0.847
				c-0.008,0.148-0.193,0.436-0.193,0.439c-0.159,0.005-0.321,0.02-0.477,0.023c-0.012-0.147,0.106-0.408,0.277-0.408
				c0-0.072-0.3-0.447-0.162-0.447c0.003-0.018,0.005-0.036,0.008-0.054h0.008c0-0.246,0.329-0.329,0.239-0.67
				c-0.05-0.198-0.271-0.267-0.439-0.2c0,0.008-1.277,1.556-1.278,1.556c-0.06,0.09-0.543,0.178-0.662,0.208
				c-0.155,0.133-0.251,0.467-0.015,0.585c0.034,0.136,0.108,0.199,0.108,0.339c0.055,0.029,0.442-0.173,0.639-0.092
				c0.054,0.125,0.1,0.251,0.1,0.393h0.008c0.033,0.069,0.238,0.281,0.316,0.293v0.008c0.011-0.001-0.003-0.006,0.008-0.008
				c0.294,0,0.295-0.693,0.862-0.693c0.243-0.069,0.458,0.189,0.739,0.108c0.17-0.049,0.276,0.007,0.4,0.069
				c0,0.044,0.033,0.362-0.085,0.362c-0.03,0.045-0.635,0.307-0.647,0.3c0.053,0.09-0.528,0.681-0.608,0.624
				c-0.02,0.065-0.215,0.349-0.215,0.354c-0.028,0.021-0.085,0.103-0.085,0.131h-0.008c-0.028,0.074-0.1,0.535-0.1,0.547
				c0.015,0.013,0.006,0.018,0.015,0.031c0.008,0.005,0.015,0.01,0.023,0.015c0,0.04,0.085,0.065,0.085,0.085
				c0.853,0.116,0.887,1.41,1.194,1.563c0,0.018,0.009,0.019,0.015,0.038c0.214,0.187,0.48,0.294,0.724,0.477v0.015
				c0.296,0.148-0.296,0.164-0.308,0.262c0.18,0.104,0.384,0.205,0.485,0.501h-0.008c0,0.335-0.736,0.631-0.901,0.816h-0.008v0.023
				c0.063,0.024,0.193,0.015,0.262,0.015c0.183-0.344,0.72-0.083,0.97,0.015c-0.004,0.016,0.001,0.007-0.008,0.015
				c-0.049,0.185-0.377,0.28-0.377,0.431c0.062,0,0.241-0.199,0.3-0.1c0,0.062,0.067,0.218,0.008,0.277
				c-0.086,0.103-0.17,0.018-0.246,0.085h-0.008c0,0.397,0.456,0.947-0.208,0.947c-0.198,0.343-0.246,0.39-0.262,0.847
				c-0.18,0.12-0.15,0.396-0.308,0.531c-0.088-0.003-0.243-0.009-0.27,0.046c0,0.103,0.185,0.174,0.27,0.193
				c-0.02,0.167-0.272,0.095-0.2,0.323c0.014,0.194,0.062,0.308,0.015,0.493c-0.368,0.026-0.107,0.335-0.393,0.477
				c-0.082,0.246-0.454,0.24-0.477,0.323c-0.078,0.085-0.457,0.832-0.608,0.832c-0.003,0.005-0.005,0.01-0.008,0.015
				c-0.178,0.059-0.57,0.127-0.57,0.339c-0.016,0.056,0.013,0.087,0.015,0.146c-0.372,0.211-0.859,0.708-1.348,0.554
				c-0.2-0.063-0.226,0.37-0.416,0.37c-0.106,0.098-0.377-0.183-0.377-0.27c-0.152-0.102-0.16,0.081-0.185,0.131
				c-0.082,0.326-0.618,0.67-0.947,0.67c-0.221,0.068-1.307,0.18-1.348,0.385h-0.008c0,0.094-0.066,0.3-0.185,0.3
				c-0.102,0.122-0.039,0.074-0.008,0.2c0.064-0.001,0.114,0.006,0.162,0.015c0.033,0.057,0.026,0.218,0.015,0.285
				c-0.15,0.083-0.208,0.076-0.385,0.069v-0.008c-0.073-0.015-0.212-0.334-0.277-0.416c-0.251-0.126,0.001-0.381,0.015-0.524
				c-0.013-0.005-0.024-0.007-0.046-0.008v0.008c-0.156,0.043-0.274,0.125-0.431,0.139v-0.008c-0.027-0.007-0.366-0.513-0.377-0.254
				c0.082,0.041,0.104,0.116,0,0.131c0,0.049-0.588-0.018-0.639-0.023c-0.197,0-0.926-0.2-0.862-0.516h-0.008
				c-0.03-0.096,0.06-0.32,0.062-0.424c-0.021-0.018-0.041-0.036-0.062-0.054c-0.066-0.007-0.77-0.136-0.77-0.139
				c-0.115-0.029-0.087-0.164-0.154-0.185c-0.036-0.032-0.18,0.01-0.2,0.023c-0.058,0.086-0.29,0.377-0.416,0.377v0.008
				c-0.113,0.007-0.202-0.009-0.293,0.069c0,0.204-0.273,0.123-0.362,0.123c-0.033-0.04-0.112-0.086-0.131-0.123
				c-0.033,0-0.3,0.076-0.3,0.085c-0.194,0.058-0.329-0.123-0.501-0.123c-0.03,0.039-0.16,0.184-0.193,0.185
				c-0.059,0.05-0.345-0.07-0.4-0.023c-0.081,0.018-0.064,0.104-0.062,0.2c0.085,0.074,0.106,0.348,0.1,0.447
				c0.079,0,0.074,0.394,0.054,0.447c-0.026,0.128-0.131,0.086-0.231,0.069v-0.008c-0.209-0.042-0.323-0.264-0.323-0.462
				c0-0.138-0.016-0.065-0.085-0.169c-0.215,0-0.209,0.216-0.347,0.216v0.008c-0.101-0.008-0.116-0.046-0.208-0.054
				c-0.034-0.158-0.4-0.445-0.4-0.454c-0.058-0.021-0.207,0.034-0.246,0c-0.045-0.012-0.11-0.098-0.123-0.139h-0.008
				c-0.032-0.193,0.04-0.526-0.023-0.685c-0.097-0.032-0.162-0.032-0.231-0.116c-0.124-0.083-0.169-0.536-0.3-0.701
				c-0.216-0.145-0.323,0.123-0.493,0.123v0.008c-0.237-0.063-0.139-0.192-0.185-0.416c-0.075-0.264,0.057-0.436,0.116-0.67
				c0.005-0.003,0.01-0.005,0.015-0.008c0-0.143,0.413-0.327,0.516-0.439c0.035-0.009,0.039-0.018,0.062-0.046
				c0.058-0.029,0.321-1.186,0.177-1.348c0-0.081-0.293-0.187-0.293-0.27c-0.024-0.018-0.048-0.092-0.054-0.092
				c0-0.232-0.085-0.314-0.216-0.477c-0.085-0.021-0.184-0.06-0.246,0.015c-0.143,0.071,0.005,0.446-0.216,0.478
				c-0.145,0.047-0.308-0.227-0.447-0.323c-0.131,0-0.398-0.204-0.547-0.246v0.008c-0.132,0.025-0.325,0.215-0.416,0.323
				c-0.384,0.041-0.722,0.513-1.078,0.631c-0.146,0.078-1.126,0.275-1.314,0c-0.078-0.077,0.013-0.364,0.021-0.47
				c-0.13-0.087-0.21-0.125-0.208-0.308c-0.049-0.028-0.354-0.09-0.354-0.092c-0.259-0.065-0.434-0.447-0.77-0.447
				c0-0.003-0.515,0.169-0.577,0.277c0,0.1,0.033,0.267-0.023,0.354c-0.166,0.083-0.169,0.087-0.362,0.023
				c-0.116-0.232,0.004-0.399,0.008-0.624c-0.117-0.078-0.365-0.08-0.493-0.031c-0.131,0.026-0.25,0.197-0.4,0.154
				c-0.164-0.05-0.253-0.193-0.362-0.323c-0.227-0.045-0.411-0.034-0.639-0.039c-0.176-0.16-0.332-0.422-0.477-0.616
				c-0.125-0.08-0.277,0.002-0.4-0.162c-0.018-0.015-0.036-0.031-0.054-0.046c-0.089-0.119-0.175-0.408-0.185-0.601
				c-0.096-0.064-0.37,0-0.416-0.092c-0.06,0-0.193-0.26-0.193-0.3c-0.118-0.088-0.328-0.149-0.416-0.254
				c-0.005-0.003-0.01-0.005-0.015-0.008c0-0.093-0.318-0.468-0.323-0.47c-0.325,0.054-0.706,0.232-0.955-0.092
				c-0.074-0.081-0.092-0.262-0.092-0.408c-0.331-0.265-0.436-0.593-0.893-0.593c-0.094-0.027-0.07-0.032-0.123-0.077
				c0.014-0.159-0.015-0.246,0.1-0.346v-0.015c0.169-0.113,0.062-0.604,0.062-0.762h-0.008c0-0.207-0.022-0.111,0.039-0.231
				c0.177,0,0.293,0.135,0.447,0.139c0.018-0.066,0.039-0.024,0.039-0.108h0.008c0-0.313-0.096-0.575-0.146-0.878h-0.008
				c-0.077-0.235,0.185-0.363,0.185-0.547c-0.019-0.113-0.039-0.116-0.085-0.154c-0.286-0.057-0.324-0.41-0.262-0.631
				c0.072-0.256-0.735-0.897-0.886-0.762c-0.059-0.004-0.138-0.107-0.131-0.116c0-0.145,0.137-0.54,0.062-0.662
				c-0.116-0.058-0.486-0.362-0.57-0.462c-0.008-0.005-0.015-0.01-0.023-0.015c-0.146-0.218,0.038-0.423,0.254-0.477
				c0.119-0.238,0.062-0.486,0.062-0.739h-0.008c0-0.276-0.302-0.096-0.454-0.092c-0.111-0.081-0.234-0.138-0.116-0.4
				c0.24-0.053,0.175-0.354,0.062-0.354c-0.032-0.066,0.256-0.228,0.292-0.385c0.215,0,0.877-0.574,1.263-0.447
				c0.269,0.045,0.057,0.369,0.416,0.385c0.52-0.433,0.79-0.462,1.456-0.462V93.63c0.055-0.019,0.708-0.086,0.708-0.123
				c0.214-0.112,0.229-0.213,0.208-0.339c0.021-0.017,0.618-0.748,0.624-0.762c0.071-0.313,0.085-0.635,0.023-0.955h0.008
				c0.032-0.1,0.046-0.237-0.038-0.3c-0.07-0.1-0.022-0.177,0.1-0.177c0.485-0.148,0.871,0.139,1.325,0.139
				c0.003-0.008,0.005-0.015,0.008-0.023c0.12-0.14-0.131-0.547,0.331-0.778c0.068-0.108,0.3-0.536,0.316-0.601h0.008
				c0.056-0.084,0.163-0.054,0.246-0.046c0,0.211,0.988,0.361,1.032,0.354v-0.008c0.15-0.009,0.182-0.042,0.223-0.177
				c0.003,0-0.014-0.482,0.015-0.547h0.008c0.083-0.331,0.565-0.299,0.824-0.385v-0.008c0.145-0.121,0.088-0.37,0.393-0.37
				c0.144-0.045,0.362,0.046,0.362,0.216h0.008c0.004,0.095,0.062,0.222,0.062,0.277c-0.042,0.122,0.544,0.58,0.647,0.562
				c0.089,0.024,0.35,0.174,0.37,0.239c0,0.175,0.026,0.536,0.154,0.632c0.047,0.235,0.237,0.607-0.031,0.809v0.015
				c-0.242,0.252-0.294,0.443-0.062,0.701c0.142,0.103,0.414,0.135,0.601,0.177c0.114-0.007,1.998,0.671,1.925,1.14h0.008
				c0.009,0.172,0.075,0.461,0.246,0.547c0.003,0.01,0.005,0.021,0.008,0.031h0.008c0,0.008-0.01,0.331,0.039,0.331v0.015
				c0.018,0.015,0.036,0.031,0.054,0.046l0.015,0.023c0.208,0,0.441,0.092,0.685,0.092c0.187,0.056,0.553,0.2,0.708,0.2
				c0.003,0.005,0.005,0.01,0.008,0.015c0.451,0,0.88-0.023,1.325-0.023v0.008c0.457,0.057,0.696,0.521,1.032,0.57
				c0.153-0.173,0.48,0.068,0.547,0.162v0.008c0.33,0,0.408,0.179,0.601,0.323c0.04,0.054,0.086,0.062,0.154,0.062
				c0.097-0.292,2.025-0.703,2.025-0.986h0.015V94.71c0.309-0.089,0.721,0.174,1.093,0.1c0.054-0.163,0.404-0.493,0.531-0.608
				c0.15-0.135,0.742-0.574,0.67-0.655c-0.058-0.208-0.411-1.12,0.139-1.117v0.008c0.006,0.001,0.678,0.426,0.678,0.262
				c0.19,0,0.563-0.46,0.608-0.631c0.225-0.045,0.627-0.053,0.732-0.262c0.147-0.111,0.282-0.501,0.323-0.501
				c0.102-0.122,0.281-0.163,0.431-0.2v-0.008h0.023c0.069-0.087,0.338-0.3,0.424-0.3c0-0.04,0.753-0.054,0.863-0.085
				c0.001-0.097-0.023-0.207-0.023-0.277c-0.095-0.303-0.467-0.489-0.762-0.655c-0.128-0.004-0.175,0.146-0.347,0.146
				c-0.076,0.087-0.086,0.168-0.162,0.262c-0.178-0.007-0.507-0.158-0.624-0.123v0.008c-0.176,0-0.321,0.149-0.593,0.139
				c-0.038-0.071-0.098-0.114-0.1-0.223c0.101-0.116,0.275-0.257,0.223-0.431c0-0.371,0.108-0.609,0.185-0.993
				c0.005-0.003,0.01-0.005,0.015-0.008c0.032-0.047,0.083-0.097,0.139-0.116c0.374,0,0.774,0.034,1.04-0.27
				c0.023-0.021,0.046-0.041,0.069-0.062c0-0.203,0.139-0.504,0.139-0.739h0.008c0-0.305,0.353-0.824,0.362-0.824
				c0.092-0.215-0.167-0.445-0.339-0.531c0-0.014-0.007-0.085-0.015-0.085c0.034-0.219,0.052-0.247,0.2-0.362
				c0.168-0.042,0.324-0.093,0.485-0.146c0.099-0.198,0.674-0.37,0.893-0.37c0.154-0.034,0.329,0.123,0.478,0.123v0.008
				c0.282-0.013,0.437-0.037,0.685,0.069v0.008c0.01,0.003,0.021,0.005,0.031,0.008v0.008h0.015
				c0.008,0.007,0.863,0.896,0.863,1.063h0.008c0.005,0.015,0.01,0.031,0.015,0.046c0.013,0.01,0.026,0.021,0.039,0.031v0.015
				c0.127,0.115,0.267,0.253,0.393,0.354v0.023h0.008c0,0.206,0.11,0.316,0.254,0.424c0,0.02,0.006,0.02,0.023,0.031
				c0.014,0.057,0.063,0.323,0.138,0.323c0.003,0.005,0.005,0.01,0.008,0.015c0.17,0,0.49-0.037,0.624,0.015
				c0,0.076,0.333,0.002,0.431,0.031c0,0.016,0.135,0.07,0.154,0.092c0.016,0.152,0.325,0.237,0.5,0.277
				C165.386,88.193,165.641,88.703,165.848,88.703L165.848,88.703L165.848,88.703z M163.037,110.404
				c0.021-0.214,0.049-0.403,0.062-0.631h0.008c0-0.274,0.139-0.328,0.139-0.562h0.008c0-0.245,0.245-0.694,0.447-0.87
				c0.03-0.042,0.302-0.09,0.37-0.069v0.008c0.492,0.07,0.177,0.358,0.177,0.57h-0.008c0,0.303,0.121,0.741,0.038,1.017
				c0,0.121-0.116,0.219-0.116,0.308c-0.067,0.102-0.3,0.132-0.3,0.3h-0.008c-0.111,0.294,0.028,0.485-0.223,0.778h-0.008v-0.008
				h-0.008c0-0.09-0.192-0.189-0.208-0.316h-0.008C163.223,110.716,163.11,110.658,163.037,110.404L163.037,110.404L163.037,110.404
				z M154.859,113.569c0.293-0.028,0.935-0.3,1.255-0.169c0.082,0.017,0.232,0.081,0.254,0.169c0.074,0.104-0.125,0.345-0.3,0.87
				c-0.005,0.003-0.01,0.005-0.015,0.008v0.015c-0.141,0.281-0.804,0.542-0.824,0.477h-0.031v0.008
				c-0.119,0.036-0.601-0.142-0.601-0.254c-0.005-0.003-0.01-0.005-0.015-0.008C154.386,113.905,154.826,114.12,154.859,113.569
				L154.859,113.569L154.859,113.569z"/>
		</g>
	</g>
	<g>
		<path fill="#FFFFFF" d="M149.925,98.374v7.483l2.016,1.37l5.134-3.062v-2.16l-4.477-1.37l0.963,1.971l1.278,0.601l-4.728,2.539
			l1.884-1.793l-0.066-5.044L149.925,98.374z"/>
	</g>
</g>
<g>
	<polygon fill="#EB6B51" points="185.344,99.136 184.936,99.136 182,99.136 182,109.136 184.936,109.136 185.344,109.136 
		186.872,109.136 186.872,99.136 	"/>
	<polygon fill="#DCDCDC" points="183.936,95.807 183.936,99.136 184.436,99.136 184.936,99.136 184.936,95.807 	"/>
	<polygon fill="#DCDCDC" points="184.436,109.136 183.936,109.136 183.936,112.463 184.436,112.463 184.936,112.463 
		184.936,109.136 	"/>
</g>
<g>
	<polygon fill="#EB6B51" points="196,96.136 195.312,96.136 192.376,96.136 192.376,102.136 195.312,102.136 196,102.136 
		197.248,102.136 197.248,96.136 	"/>
	<polygon fill="#DCDCDC" points="194.812,91.208 194.312,91.208 194.312,96.136 194.812,96.136 195.312,96.136 195.312,91.208 	"/>
	<polygon fill="#DCDCDC" points="194.812,102.136 194.312,102.136 194.312,107.802 194.812,107.802 195.312,107.802 
		195.312,102.136 	"/>
</g>
<g>
	<polygon fill="#EB6B51" points="206.203,87.136 205.688,87.136 202.752,87.136 202.752,101.136 205.688,101.136 206.203,101.136 
		207.624,101.136 207.624,87.136 	"/>
	<polygon fill="#DCDCDC" points="204.688,85.125 204.688,87.136 205.188,87.136 205.688,87.136 205.688,85.125 	"/>
	<polygon fill="#DCDCDC" points="205.188,101.136 204.688,101.136 204.688,103.541 205.188,103.541 205.688,103.541 
		205.688,101.136 	"/>
</g>
<g>
	<polygon fill="#5EAFE2" points="216.953,90.571 216.064,90.571 213.128,90.571 213.128,112.571 216.064,112.571 216.953,112.571 
		218,112.571 218,90.571 	"/>
	<polygon fill="#DCDCDC" points="215.064,88.125 215.064,90.571 215.564,90.571 216.064,90.571 216.064,88.125 	"/>
	<polygon fill="#DCDCDC" points="215.564,112.571 215.064,112.571 215.064,114.875 216.064,114.875 216.064,112.571 	"/>
</g>
<g>
	<path fill="#5EAFE2" d="M240.188,100c0-3.18,1.527-6.002,3.879-7.797l-4.625-6.759C234.94,88.716,232,94.009,232,100
		c0,9.941,8.059,18,18,18c4.525,0,8.648-1.682,11.811-4.439l-5.544-6.019c-1.701,1.416-3.886,2.27-6.267,2.27
		C244.589,109.813,240.188,105.41,240.188,100z"/>
	<path fill="#F4A54F" d="M259.813,100c0,2.671-1.076,5.094-2.814,6.865l5.552,6.024c3.357-3.27,5.449-7.832,5.449-12.889
		c0-6.184-3.12-11.636-7.87-14.876l-4.427,6.906C258.186,93.813,259.813,96.717,259.813,100z"/>
	<path fill="#8BC567" d="M254.862,91.488l4.418-6.891C256.566,82.96,253.399,82,250,82c-3.591,0-6.928,1.063-9.737,2.875
		l4.626,6.765c1.491-0.915,3.238-1.453,5.112-1.453C251.769,90.188,253.427,90.665,254.862,91.488z"/>
	<g>
		<path fill="#EB6B51" d="M250,91.185c-4.869,0-8.815,3.947-8.815,8.815s3.947,8.815,8.815,8.815s8.815-3.947,8.815-8.815
			S254.869,91.185,250,91.185z M249.175,95.688h5.137v0.675h-5.137V95.688z M247.975,99.175v5.324H246.4v-4.162h-0.9l1.575-2.325
			h1.687L247.975,99.175z M247.15,97.825h-1.65l1.575-2.325h1.687L247.15,97.825z M254.499,98.65h-0.75v5.849h-2.175l0.45-1.05
			V98.65h-3.15v-0.675h5.624v0.675H254.499z"/>
	</g>
</g>
<g>
	<g>
		<path fill="none" d="M296.401,103.499V100.5h-13.375c0.263,8.974,7.5,16.212,16.475,16.475V100.5h-1.526v2.999H296.401z"/>
		<path fill="none" d="M298.875,96.975h0.625v-1.612h-0.325v-0.675h0.325V83.025c-8.974,0.263-16.211,7.501-16.475,16.475H296.4
			v-0.163h-0.9l1.575-2.325h1.687l-0.787,1.162V99.5h1.525v-1.85h-0.625L298.875,96.975L298.875,96.975z M297.15,96.825h-1.65
			l1.575-2.325h1.687L297.15,96.825z"/>
		<path fill="none" d="M304.312,95.363H300.5v1.612h3.999v0.675h-0.75v1.85h13.226c-0.263-8.974-7.501-16.212-16.475-16.475v11.663
			h3.812V95.363z"/>
		<rect x="300.5" y="97.65" fill="none" width="1.525" height="1.85"/>
		<path fill="none" d="M303.75,103.499h-2.175l0.45-1.05v-1.95H300.5v16.475c8.974-0.263,16.212-7.501,16.475-16.475H303.75V103.499
			z"/>
		<path fill="#DCDCDC" d="M300.5,82.025V82h-1v0.025C289.807,82.293,282,90.243,282,100c0,9.925,8.075,18,18,18s18-8.075,18-18
			C318,90.243,310.193,82.294,300.5,82.025z M300.5,116.975V100.5h1.525v-1H300.5v-1.85h-1v1.85h-1.525v1h1.526v16.475
			c-8.975-0.263-16.212-7.501-16.475-16.475h13.375v-1h-13.375c0.264-8.974,7.501-16.212,16.475-16.475v11.663h1V83.025
			c8.974,0.263,16.212,7.501,16.475,16.475H303.75v1h13.226C316.712,109.474,309.474,116.712,300.5,116.975z"/>
		<rect x="299.5" y="95.363" fill="#DCDCDC" width="1" height="1.612"/>
	</g>
	<g>
		<path opacity="0.5" fill="#5EAFE2" enable-background="new    " d="M300.004,89.28l-10.251,10.658l10.243,7.654l10.252-7.864
			L300.004,89.28z M299.175,94.688h5.137v0.675h-5.137V94.688z M297.975,98.175v5.324H296.4v-4.162h-0.9l1.575-2.325h1.687
			L297.975,98.175z M297.15,96.825h-1.65l1.575-2.325h1.687L297.15,96.825z M303.75,97.65v5.849h-2.175l0.45-1.05V97.65h-3.15
			v-0.675h5.624v0.675H303.75z"/>
	</g>
	<path fill="#5EAFE2" d="M311,97.281c-0.5,0-0.964,0.151-1.355,0.404l-7.573-7.724c0.27-0.399,0.428-0.881,0.428-1.399
		c0-1.381-1.119-2.5-2.5-2.5s-2.5,1.119-2.5,2.5c0,0.527,0.165,1.014,0.443,1.417l-7.61,7.912c-0.387-0.245-0.842-0.392-1.334-0.392
		c-1.381,0-2.5,1.119-2.5,2.5s1.119,2.5,2.5,2.5c0.638,0,1.213-0.246,1.655-0.639l7.089,5.297c-0.152,0.323-0.244,0.68-0.244,1.061
		c0,1.381,1.119,2.5,2.5,2.5s2.5-1.119,2.5-2.5c0-0.392-0.098-0.758-0.259-1.089l7.129-5.468c0.439,0.381,1.004,0.619,1.631,0.619
		c1.381,0,2.5-1.119,2.5-2.5C313.5,98.401,312.381,97.281,311,97.281z M300,105.719c-0.638,0-1.214,0.246-1.655,0.639l-7.089-5.297
		c0.152-0.323,0.244-0.68,0.244-1.061c0-0.527-0.165-1.014-0.443-1.417l7.61-7.912c0.387,0.245,0.842,0.392,1.334,0.392
		c0.5,0,0.964-0.151,1.355-0.404l7.573,7.723c-0.27,0.399-0.428,0.881-0.428,1.399c0,0.392,0.098,0.758,0.259,1.089l-7.128,5.468
		C301.192,105.957,300.627,105.719,300,105.719z"/>
</g>
<g>
	<g>
		<path fill="#FCECDB" d="M355,86.005h-10c-0.551,0-1,0.449-1,1v7c0,0.551,0.449,1,1,1h10c0.551,0,1-0.449,1-1v-7
			C356,86.454,355.551,86.005,355,86.005z"/>
		<path fill="#F4A54F" d="M355,85.005h-10c-1.105,0-2,0.895-2,2v7c0,1.105,0.895,2,2,2h10c1.105,0,2-0.895,2-2v-7
			C357,85.9,356.105,85.005,355,85.005z M356,94.005c0,0.551-0.449,1-1,1h-10c-0.551,0-1-0.449-1-1v-7c0-0.551,0.449-1,1-1h10
			c0.551,0,1,0.449,1,1V94.005z"/>
	</g>
	<g>
		<path fill="#DCF0FA" d="M344,104.995h-10c-0.551,0-1,0.449-1,1v7c0,0.551,0.449,1,1,1h10c0.551,0,1-0.449,1-1v-7
			C345,105.444,344.551,104.995,344,104.995z"/>
		<path fill="#5EAFE2" d="M344,103.995h-10c-1.105,0-2,0.895-2,2v7c0,1.105,0.895,2,2,2h10c1.105,0,2-0.895,2-2v-7
			C346,104.89,345.105,103.995,344,103.995z M345,112.995c0,0.551-0.449,1-1,1h-10c-0.551,0-1-0.449-1-1v-7c0-0.551,0.449-1,1-1h10
			c0.551,0,1,0.449,1,1V112.995z"/>
	</g>
	<g>
		<path fill="#DCF0FA" d="M366,104.995h-10c-0.551,0-1,0.449-1,1v7c0,0.551,0.449,1,1,1h10c0.551,0,1-0.449,1-1v-7
			C367,105.444,366.551,104.995,366,104.995z"/>
		<path fill="#5EAFE2" d="M366,103.995h-10c-1.105,0-2,0.895-2,2v7c0,1.105,0.895,2,2,2h10c1.105,0,2-0.895,2-2v-7
			C368,104.89,367.105,103.995,366,103.995z M367,112.995c0,0.551-0.449,1-1,1h-10c-0.551,0-1-0.449-1-1v-7c0-0.551,0.449-1,1-1h10
			c0.551,0,1,0.449,1,1V112.995z"/>
	</g>
	<g>
		<polygon fill="#DCDCDC" points="362.048,103.995 360.444,103.995 350.413,96.005 352.019,96.005 		"/>
		<polygon fill="#DCDCDC" points="347.812,96.005 349.401,96.005 339.541,103.995 337.952,103.995 		"/>
	</g>
</g>
<g>
	<polygon fill="#EAA050" points="395.154,106 404.846,106 408.308,101 391.692,101 	"/>
	<polygon fill="#DF674F" points="400,113 403.462,108 396.538,108 	"/>
	<polygon fill="#8CC075" points="390.308,99 409.692,99 413.154,94 386.846,94 	"/>
	<polygon fill="#5EA6D5" points="382,87 385.461,92 414.539,92 418,87 	"/>
</g>
<g>
	<path fill="#D2EBF7" d="M453.8,104.042V85.8c0-2.099-1.701-3.8-3.8-3.8s-3.8,1.701-3.8,3.8v18.242
		c-2.212,1.304-3.7,3.705-3.7,6.458c0,4.142,3.358,7.5,7.5,7.5s7.5-3.358,7.5-7.5C457.5,107.746,456.012,105.346,453.8,104.042z
		 M450,115.5c-2.761,0-5-2.238-5-5c0-2.049,1.235-3.805,3-4.578V94.75c0-1.151,0.895-2.083,2-2.083s2,0.933,2,2.083v11.172
		c1.764,0.772,3,2.529,3,4.578C455,113.261,452.761,115.5,450,115.5z"/>
	<path fill="#5EA6D5" d="M452,105.922V94.75c0-1.151-0.895-2.083-2-2.083s-2,0.933-2,2.083v11.172c-1.764,0.772-3,2.529-3,4.578
		c0,2.761,2.238,5,5,5s5-2.238,5-5C455,108.451,453.764,106.695,452,105.922z"/>
</g>
</svg>
