<?xml version="1.0" encoding="UTF-8"?>
<svg width="13px" height="12px" viewBox="0 0 13 12" version="1.1" xmlns="http://www.w3.org/2000/svg" xmlns:xlink="http://www.w3.org/1999/xlink">
    <!-- Generator: Sketch 43.1 (39012) - http://www.bohemiancoding.com/sketch -->
    <title>move</title>
    <desc>Created with Sketch.</desc>
    <defs></defs>
    <g id="Page-1" stroke="none" stroke-width="1" fill="none" fill-rule="evenodd">
        <g id="move" fill-rule="nonzero">
            <path d="M11.7648799,1.52955975 L6.92051756,1.52955975 L5.99778189,0.161006289 C5.92088725,0.0805031447 5.76709797,0 5.69020333,0 L1.23031423,0 C0.538262477,0 0,0.563522013 0,1.28805031 L0,10.7069182 C0,11.4314465 0.538262477,11.9949686 1.23031423,11.9949686 L11.7648799,11.9949686 C12.4569316,11.9949686 12.9951941,11.4314465 12.9951941,10.7069182 L12.9951941,2.81761006 C12.9951941,2.17358491 12.4569316,1.52955975 11.7648799,1.52955975 L11.7648799,1.52955975 Z" id="Shape" fill="#1276E5"></path>
            <path d="M10.0731978,6.19874214 L8.38151571,4.42767296 C8.22772643,4.26666667 7.99704251,4.26666667 7.84325323,4.42767296 C7.68946396,4.58867925 7.68946396,4.83018868 7.84325323,4.99119497 L9.15046211,6.35974843 L3.46025878,6.35974843 C3.22957486,6.44025157 3.07578558,6.60125786 3.07578558,6.8427673 C3.07578558,7.08427673 3.22957486,7.24528302 3.46025878,7.24528302 L9.07356747,7.24528302 L7.7663586,8.61383648 C7.61256932,8.77484277 7.61256932,9.0163522 7.7663586,9.17735849 C7.84325323,9.25786164 7.92014787,9.25786164 8.07393715,9.25786164 C8.15083179,9.25786164 8.30462107,9.25786164 8.38151571,9.17735849 L9.9194085,7.48679245 C9.99630314,7.48679245 9.99630314,7.40628931 10.0731978,7.40628931 C10.1500924,7.32578616 10.2269871,7.16477987 10.3038817,7.00377358 L10.3038817,6.8427673 C10.3038817,6.60125786 10.2269871,6.35974843 10.0731978,6.19874214 Z" id="Shape" fill="#FFFFFF"></path>
        </g>
    </g>
</svg>