<?xml version="1.0" encoding="utf-8"?>
<!-- Generator: Adobe Illustrator 17.0.0, SVG Export Plug-In . SVG Version: 6.00 Build 0)  -->
<!DOCTYPE svg PUBLIC "-//W3C//DTD SVG 1.1//EN" "http://www.w3.org/Graphics/SVG/1.1/DTD/svg11.dtd">
<svg version="1.1" id="图层_1" xmlns="http://www.w3.org/2000/svg" xmlns:xlink="http://www.w3.org/1999/xlink" x="0px" y="0px"
	 width="1000px" height="150px" viewBox="0 0 1000 150" enable-background="new 0 0 1000 150" xml:space="preserve">
<style type="text/css">
	.st0{fill:#F4A54F;}
	.st1{fill:#5EAFE2;}
	.st2{fill:#FCECDB;}
	.st3{fill:#DCF0FA;}
	.st4{fill:#92C878;}
	.st5{fill:#EB6B51;}
	.st6{fill:#8BC567;}
	.st7{fill:#DCDCDC;}
	.st8{opacity:0.5;fill:#5EAFE2;enable-background:new    ;}
	.st9{fill:#A9D392;}
	.st10{fill:#DBEFF9;}
	.st11{fill:#DDDDDC;}
	.st12{fill:#E95E61;}
	.st13{fill:#5EA6D5;}
	.st14{fill:#DF674F;}
	.st15{fill:#DCDCDB;}
	.st16{fill:#4FB467;}
	.st17{fill:#D4644D;}
	.st18{fill:#58A7DD;}
	.st19{fill:#8BC676;}
	.st20{fill:#F3A24E;}
	.st21{fill:#DBDBDB;}
	.st22{fill:#CA604B;}
	.st23{fill:#FFFFFF;}
	.st24{fill:none;}
	.st25{fill:#EAA050;}
	.st26{fill:#8CC075;}
	.st27{fill:#D2EBF7;}
	.st28{fill:#62B0E0;}
	.st29{font-family:'Arial-Black';}
	.st30{font-size:12px;}
	.st31{font-size:2.7439px;}
	.st32{fill:#4DBFF7;}
	.st33{fill:#FFC285;}
	.st34{fill:#FF734D;}
	.st35{fill:#F97821;}
	.st36{font-size:4px;}
	.st37{fill:#D8D8D8;}
	.st38{fill:#2EEFB8;}
	.st39{fill:#D3D3D3;}
	.st40{font-size:6.8541px;}
	.st41{fill:#3CDAEF;}
	.st42{font-size:4.2838px;}
	.st43{fill:#B7F2F7;}
	.st44{fill:#17E596;}
	.st45{fill:#BEBFBF;}
	.st46{font-size:6px;}
	.st47{fill:#2BC8F9;}
	.st48{font-size:9px;}
	.st49{fill:#50B9F9;}
	.st50{font-size:12.1501px;}
	.st51{fill:#28C3F9;}
	.st52{font-size:9.6073px;}
	.st53{fill:#56A2ED;}
</style>
<g>
	<g>
		<polygon class="st0" points="50,53.2 40.8,45.4 32.6,49.4 32.1,48.5 40.9,44.2 49.8,51.7 58.8,38.4 67.6,48.8 66.9,49.5 58.9,40
					"/>
	</g>
	<g>
		<polygon class="st1" points="49.9,60.6 40.8,53.5 32.6,57.5 32.1,56.6 40.9,52.3 49.8,59.3 58.8,51.5 67.5,56.9 67,57.7
			58.9,52.7 		"/>
	</g>
</g>
<g>
	<g>
		<polygon class="st2" points="99.8,59.3 108.8,51.5 117.9,56.7 117.9,49.7 117.8,49.7 108.9,40 100,53.2 90.8,45.4 81.9,49.5
			81.9,56.5 90.9,52.3 		"/>
	</g>
	<polygon class="st0" points="108.8,38.4 99.8,51.7 90.9,44.2 81.9,48.4 81.9,48.9 81.9,49.5 90.8,45.4 100,53.2 108.9,40
		117.8,49.7 117.9,49.7 117.9,49 117.9,48.3 	"/>
	<polygon class="st3" points="99.9,60.6 90.8,53.4 81.9,57.6 81.9,68 117.9,68 117.9,57.9 108.9,52.7 	"/>
	<polygon class="st1" points="108.8,51.5 99.8,59.3 90.9,52.3 81.9,56.5 81.9,57 81.9,57.6 90.8,53.4 99.9,60.6 108.9,52.7
		117.9,57.9 117.9,57.3 117.9,56.7 	"/>
</g>
<g>
	<rect x="132.7" y="34" class="st1" width="5" height="34"/>
	<rect x="152.2" y="34" class="st1" width="5" height="34"/>
	<rect x="142.5" y="40" class="st0" width="5" height="28"/>
	<rect x="162" y="46" class="st0" width="5" height="22"/>
</g>
<g>
	<rect x="181.9" y="36.5" class="st1" width="36" height="5"/>
	<rect x="181.9" y="43.8" class="st4" width="29" height="5"/>
	<rect x="181.9" y="51.2" class="st0" width="22" height="5"/>
	<rect x="181.9" y="58.5" class="st5" width="15" height="5"/>
</g>
<g>
	<path class="st1" d="M239.3,35.4c-4.5,3.3-7.4,8.6-7.4,14.6c0,9.9,8.1,18,18,18c4.5,0,8.6-1.7,11.8-4.4l-12.2-13.2L239.3,35.4z"/>
	<path class="st0" d="M262.4,62.9c3.4-3.3,5.4-7.8,5.4-12.9c0-6.2-3.1-11.6-7.9-14.9L250.5,50L262.4,62.9z"/>
	<path class="st6" d="M259.1,34.6c-2.7-1.6-5.9-2.6-9.3-2.6c-3.6,0-6.9,1.1-9.7,2.9l9.7,14.2L259.1,34.6z"/>
</g>
<g>
	<path class="st7" d="M300.4,32L300.4,32h-1l0,0c-9.7,0.3-17.5,8.2-17.5,18c0,9.9,8.1,18,18,18s18-8.1,18-18
		C317.9,40.2,310.1,32.3,300.4,32z M316.8,49.5h-16.5V33C309.3,33.3,316.6,40.5,316.8,49.5z M299.4,33v16.5h-16.5
		C283.1,40.5,290.4,33.3,299.4,33z M282.9,50.5h16.5V67C290.4,66.7,283.1,59.5,282.9,50.5z M300.4,67V50.5h16.5
		C316.6,59.5,309.3,66.7,300.4,67z"/>
	<path class="st1" d="M310.9,47.3c-0.5,0-1,0.2-1.4,0.4l-7.6-7.7c0.3-0.4,0.4-0.9,0.4-1.4c0-1.4-1.1-2.5-2.5-2.5s-2.5,1.1-2.5,2.5
		c0,0.5,0.2,1,0.4,1.4l-7.6,7.9c-0.4-0.2-0.8-0.4-1.3-0.4c-1.4,0-2.5,1.1-2.5,2.5s1.1,2.5,2.5,2.5c0.6,0,1.2-0.2,1.7-0.6l7.1,5.3
		c-0.2,0.3-0.2,0.7-0.2,1.1c0,1.4,1.1,2.5,2.5,2.5s2.5-1.1,2.5-2.5c0-0.4-0.1-0.8-0.3-1.1l7.1-5.5c0.4,0.4,1,0.6,1.6,0.6
		c1.4,0,2.5-1.1,2.5-2.5C313.4,48.4,312.2,47.3,310.9,47.3z M299.9,55.7c-0.6,0-1.2,0.2-1.7,0.6l-7.1-5.3c0.2-0.3,0.2-0.7,0.2-1.1
		c0-0.5-0.2-1-0.4-1.4l7.6-7.9c0.4,0.2,0.8,0.4,1.3,0.4s1-0.2,1.4-0.4l7.6,7.7c-0.3,0.4-0.4,0.9-0.4,1.4c0,0.4,0.1,0.8,0.3,1.1
		l-7.1,5.5C301.1,56,300.5,55.7,299.9,55.7z"/>
	<polygon class="st8" points="299.9,39.3 289.6,49.9 299.9,57.6 310.1,49.7 	"/>
</g>
<g>
	<g>
		<path class="st0" d="M412.4,41.1c-1.6-1.5-3.4-2.8-5.4-3.6c-0.2-0.1-0.3-0.1-0.5-0.2c-2-0.8-4.1-1.2-6.4-1.3c-0.1,0-0.2,0-0.2,0
			h-0.2c-2.3,0-4.4,0.5-6.4,1.3c-0.2,0.1-0.3,0.1-0.5,0.2c-2,0.9-3.9,2.1-5.4,3.6c-0.1,0.1-0.2,0.2-0.4,0.4l3.5,3.5l1.9,1.9
			c0.1-0.1,0.2-0.2,0.4-0.4l-1.9-1.9c1.1-1.1,2.4-1.9,3.8-2.5l1,2.5c0.2-0.1,0.3-0.1,0.5-0.2l-1-2.5c1.4-0.5,2.9-0.9,4.5-0.9v2.7
			c0.1,0,0.2,0,0.2,0h0.2V41c1.6,0,3.1,0.3,4.5,0.9l-1,2.5c0.2,0.1,0.3,0.1,0.5,0.2l1-2.5c1.4,0.6,2.7,1.5,3.8,2.5l-1.9,1.9
			c0.1,0.1,0.2,0.2,0.4,0.4l1.9-1.9l3.5-3.5C412.6,41.3,412.5,41.2,412.4,41.1z"/>
		<path class="st5" d="M417.8,53.7c0-2.3-0.5-4.4-1.3-6.4c-0.1-0.2-0.1-0.3-0.2-0.5c-0.9-2-2.1-3.9-3.6-5.4l-3.5,3.5
			c1.1,1.1,1.9,2.4,2.5,3.8l-2.5,1c0.1,0.2,0.1,0.3,0.2,0.5l2.5-1c0.5,1.4,0.9,2.9,0.9,4.5h-2.7c0,0.1,0,0.2,0,0.2v0.2h2.7
			c0,1.6-0.3,3.1-0.9,4.5l-2.5-1c-0.1,0.2-0.1,0.3-0.2,0.5l2.5,1l4.6,1.9c0.1-0.2,0.1-0.3,0.2-0.5c0.8-2,1.2-4.1,1.3-6.4
			c0-0.1,0-0.2,0-0.2S417.8,53.8,417.8,53.7z"/>
		<path class="st1" d="M390.3,50.2c0.1-0.2,0.1-0.3,0.2-0.5l-2.5-1c0.6-1.4,1.5-2.7,2.5-3.8l-3.5-3.5c-1.5,1.6-2.8,3.4-3.6,5.4
			c-0.1,0.2-0.1,0.3-0.2,0.5c-0.8,2-1.2,4.1-1.3,6.4c0,0.1,0,0.2,0,0.2v0.2c0,2.3,0.5,4.4,1.3,6.4c0.1,0.2,0.1,0.3,0.2,0.5l4.6-1.9
			l2.5-1c-0.1-0.2-0.1-0.3-0.2-0.5l-2.5,1c-0.5-1.4-0.9-2.9-0.9-4.5h2.7c0-0.1,0-0.2,0-0.2v-0.2h-2.7c0-1.6,0.3-3.1,0.9-4.5
			L390.3,50.2z"/>
	</g>
	<path class="st4" d="M401.7,59.4l-7-10l3.2,11.8l0.2,0.6c0.5,1.1,1.8,1.6,2.9,1.1s1.6-1.8,1.1-2.9L401.7,59.4z"/>
</g>
<g>
	<g>
		<path class="st0" d="M349.9,41.9c3.2,0,6.1,1.2,8.4,3.1l3.4-3.7c-3.2-2.7-7.2-4.4-11.7-4.4c-4.9,0-9.4,2-12.7,5.2l3.6,3.5
			C343.2,43.3,346.4,41.9,349.9,41.9z"/>
		<path class="st1" d="M337.8,59.9c-0.6-1.5-1-3.2-1-4.9c0-3.3,1.2-6.3,3.3-8.6l-3.6-3.5c-2.9,3.2-4.7,7.4-4.7,12.1
			c0,2.4,0.5,4.7,1.4,6.8l0,0L337.8,59.9z"/>
		<path class="st5" d="M361.9,59.8l4.6,1.9c0.9-2.1,1.3-4.4,1.3-6.8c0-5.1-2.1-9.7-5.5-13l-3.4,3.7c2.4,2.4,3.9,5.6,3.9,9.3
			C362.9,56.7,362.5,58.3,361.9,59.8z"/>
	</g>
	<path class="st4" d="M352.7,59.2l-7-10l3.2,11.8l0.2,0.6c0.5,1.1,1.8,1.6,2.9,1.1s1.6-1.8,1.1-2.9L352.7,59.2z"/>
</g>
<g>
	<g>
		<g>
			<g>
				<path class="st7" d="M715.7,38.7L715.7,38.7c0.3,0.1,0.6-0.2,0.8-0.4c0.2-0.3,0.7-0.7,1-0.7c0.2,0.1,0,0.5,0.2,0.7
					c0,0,0.2,0.2,0.1,0.2c-0.1,0.2-0.2,1.7-0.1,1.8c0,0.2,0,0.2-0.1,0.4s-0.4,0-0.6,0c-0.1,0.1-0.2,0.2-0.3,0.3
					c-0.1,0.4,0.6,1.2,0.5,1.7l0,0c0,0.1-0.1,0.4-0.1,0.5s0,0.1-0.1,0.1l-0.3-0.1c-0.1-0.1-0.1-0.4-0.1-0.4c-0.1,0-0.2,0.1-0.2,0.1
					c0,0.1-0.1,0.5-0.3,0.6c-0.1,0.1-0.3,0.1-0.4,0.1l0,0c0,0,0,0,0,0.1c0.1,0.1,0.2,0.2,0.2,0.3c0,0.2-0.2,0.3-0.3,0.3
					c-0.3,0-0.4-0.1-0.7-0.1l0,0c-0.1,0-0.1,0.4-0.2,0.4c-0.1,0.2-0.3,0.4-0.4,0.6l0,0l0,0c-0.2,0.1-0.3,0.2-0.4,0.3
					c0,0.1-0.1,0.3-0.1,0.4c-0.4,0.3-0.9,0.2-1.2,0.8c0,0.1-0.2,0.4-0.2,0.4c-0.2,0-0.3,0-0.5,0c0-0.1,0.1-0.4,0.3-0.4
					c0-0.1-0.3-0.4-0.2-0.4c0,0,0,0,0-0.1l0,0c0-0.2,0.3-0.3,0.2-0.7c0-0.2-0.3-0.3-0.4-0.2l-1.3,1.6c-0.1,0.1-0.5,0.2-0.7,0.2
					c-0.2,0.1-0.3,0.5,0,0.6c0,0.1,0.1,0.2,0.1,0.3c0.1,0,0.4-0.2,0.6-0.1c0.1,0.1,0.1,0.3,0.1,0.4l0,0c0,0.1,0.2,0.3,0.3,0.3l0,0
					l0,0c0.3,0,0.3-0.7,0.9-0.7c0.2-0.1,0.5,0.2,0.7,0.1c0.2,0,0.3,0,0.4,0.1c0,0,0,0.4-0.1,0.4l-0.6,0.3c0.1,0.1-0.5,0.7-0.6,0.6
					c0,0.1-0.2,0.3-0.2,0.4l-0.1,0.1l0,0c0,0.1-0.1,0.5-0.1,0.5l0,0l0,0l0.1,0.1c0.9,0.1,0.9,1.4,1.2,1.6l0,0
					c0.2,0.2,0.5,0.3,0.7,0.5l0,0c0.3,0.1-0.3,0.2-0.3,0.3c0.2,0.1,0.4,0.2,0.5,0.5l0,0c0,0.3-0.7,0.6-0.9,0.8l0,0l0,0
					c0.1,0,0.2,0,0.3,0c0.2-0.3,0.7-0.1,1,0l0,0c0,0.2-0.4,0.3-0.4,0.4c0.1,0,0.2-0.2,0.3-0.1c0,0.1,0.1,0.2,0,0.3s-0.2,0-0.2,0.1
					l0,0c0,0.4,0.5,0.9-0.2,0.9c-0.2,0.3-0.2,0.4-0.3,0.8c-0.2,0.1-0.2,0.4-0.3,0.5c-0.1,0-0.2,0-0.3,0c0,0.1,0.2,0.2,0.3,0.2
					c0,0.2-0.3,0.1-0.2,0.3c0,0.2,0.1,0.3,0,0.5c-0.4,0-0.1,0.3-0.4,0.5c-0.1,0.2-0.5,0.2-0.5,0.3c-0.1,0.1-0.5,0.8-0.6,0.8l0,0
					c-0.2,0.1-0.6,0.1-0.6,0.3c0,0.1,0,0.1,0,0.1c-0.4,0.2-0.9,0.7-1.3,0.6c-0.2-0.1-0.2,0.4-0.4,0.4c-0.1,0.1-0.4-0.2-0.4-0.3
					c-0.2-0.1-0.2,0.1-0.2,0.1c-0.1,0.3-0.6,0.7-0.9,0.7c-0.2,0.1-1.3,0.2-1.3,0.4l0,0c0,0.1-0.1,0.3-0.2,0.3c-0.1,0.1,0,0.1,0,0.2
					c0.1,0,0.1,0,0.2,0c0,0.1,0,0.2,0,0.3c-0.2,0.1-0.2,0.1-0.4,0.1l0,0c-0.1,0-0.2-0.3-0.3-0.4c-0.3-0.1,0-0.4,0-0.5l0,0l0,0
					c-0.2,0-0.3,0.1-0.4,0.1l0,0c0,0-0.4-0.5-0.4-0.3c0.1,0,0.1,0.1,0,0.1h-0.6c-0.2,0-0.9-0.2-0.9-0.5l0,0c0-0.1,0.1-0.3,0.1-0.4
					c0,0,0,0-0.1-0.1c-0.1,0-0.8-0.1-0.8-0.1c-0.1,0-0.1-0.2-0.2-0.2h-0.2c-0.1,0.1-0.3,0.4-0.4,0.4l0,0c-0.1,0-0.2,0-0.3,0.1
					c0,0.2-0.3,0.1-0.4,0.1l-0.1-0.1l-0.3,0.1c-0.2,0.1-0.3-0.1-0.5-0.1l-0.2,0.2c-0.1,0-0.3-0.1-0.4,0c-0.1,0-0.1,0.1-0.1,0.2
					c0.1,0.1,0.1,0.3,0.1,0.4c0.1,0,0.1,0.4,0.1,0.4c0,0.1-0.1,0.1-0.2,0.1l0,0c-0.2,0-0.3-0.3-0.3-0.5c0-0.1,0-0.1-0.1-0.2
					c-0.2,0-0.2,0.2-0.3,0.2l0,0c-0.1,0-0.1,0-0.2-0.1c0-0.2-0.4-0.4-0.4-0.5c-0.1,0-0.2,0-0.2,0l-0.1-0.1l0,0c0-0.2,0-0.5,0-0.7
					c-0.1,0-0.2,0-0.2-0.1c-0.1-0.1-0.2-0.5-0.3-0.7c-0.2-0.1-0.3,0.1-0.5,0.1l0,0c-0.2-0.1-0.1-0.2-0.2-0.4
					c-0.1-0.3,0.1-0.4,0.1-0.7l0,0c0-0.1,0.4-0.3,0.5-0.4c0,0,0,0,0.1,0s0.3-1.2,0.2-1.3c0-0.1-0.3-0.2-0.3-0.3c0,0,0-0.1-0.1-0.1
					c0-0.2-0.1-0.3-0.2-0.5c-0.1,0-0.2-0.1-0.2,0c-0.1,0.1,0,0.4-0.2,0.5c-0.1,0-0.3-0.2-0.4-0.3c-0.1,0-0.4-0.2-0.5-0.2l0,0
					c-0.1,0-0.3,0.2-0.4,0.3c-0.4,0-0.7,0.5-1.1,0.6c-0.1,0.1-1.1,0.3-1.3,0c-0.1-0.1,0-0.4,0-0.5c-0.1-0.1-0.2-0.1-0.2-0.3
					l-0.4-0.1c-0.3-0.1-0.4-0.4-0.8-0.4c0,0-0.5,0.2-0.6,0.3c0,0.1,0,0.3,0,0.4c-0.2,0.1-0.2,0.1-0.4,0c-0.1-0.2,0-0.4,0-0.6
					c-0.1-0.1-0.4-0.1-0.5,0c-0.1,0-0.2,0.2-0.4,0.2s-0.3-0.2-0.4-0.3c-0.2,0-0.4,0-0.6,0c-0.2-0.2-0.3-0.4-0.5-0.6
					c-0.1-0.1-0.3,0-0.4-0.2c0,0,0,0-0.1,0c-0.1-0.1-0.2-0.4-0.2-0.6c-0.1-0.1-0.4,0-0.4-0.1c-0.1,0-0.2-0.3-0.2-0.3
					c-0.1-0.1-0.3-0.1-0.4-0.3l0,0c0-0.1-0.3-0.5-0.3-0.5c-0.3,0.1-0.7,0.2-1-0.1c-0.1-0.1-0.1-0.3-0.1-0.4
					c-0.3-0.3-0.4-0.6-0.9-0.6c-0.1,0-0.1,0-0.1-0.1c0-0.2,0-0.2,0.1-0.3l0,0c0.2-0.1,0.1-0.6,0.1-0.8l0,0c0-0.2,0-0.1,0-0.2
					c0.2,0,0.3,0.1,0.4,0.1c0-0.1,0,0,0-0.1l0,0c0-0.3-0.1-0.6-0.1-0.9l0,0c-0.1-0.2,0.2-0.4,0.2-0.5s0-0.1-0.1-0.2
					c-0.3-0.1-0.3-0.4-0.3-0.6c0.1-0.3-0.7-0.9-0.9-0.8c-0.1,0-0.1-0.1-0.1-0.1c0-0.1,0.1-0.5,0.1-0.7c-0.1-0.1-0.5-0.4-0.6-0.5l0,0
					c-0.1-0.2,0-0.4,0.3-0.5c0.1-0.2,0.1-0.5,0.1-0.7l0,0c0-0.3-0.3-0.1-0.5-0.1c-0.1-0.1-0.2-0.1-0.1-0.4c0.2-0.1,0.2-0.4,0.1-0.4
					c0-0.1,0.3-0.2,0.3-0.4c0.2,0,0.9-0.6,1.3-0.4c0.3,0,0.1,0.4,0.4,0.4c0.5-0.4,0.8-0.5,1.5-0.5l0,0c0.1,0,0.7-0.1,0.7-0.1
					c0.2-0.1,0.2-0.2,0.2-0.3c0,0,0.6-0.7,0.6-0.8c0.1-0.3,0.1-0.6,0-1l0,0c0-0.1,0-0.2,0-0.3c-0.1-0.1,0-0.2,0.1-0.2
					c0.5-0.1,0.9,0.1,1.3,0.1l0,0c0.1-0.1-0.1-0.5,0.3-0.8c0.1-0.1,0.3-0.5,0.3-0.6l0,0c0.1-0.1,0.2-0.1,0.2,0c0,0.2,1,0.4,1,0.4
					l0,0c0.2,0,0.2,0,0.2-0.2V39l0,0c0.1-0.3,0.6-0.3,0.8-0.4l0,0c0.1-0.1,0.1-0.4,0.4-0.4c0.1,0,0.4,0,0.4,0.2l0,0
					c0,0.1,0.1,0.2,0.1,0.3s0.5,0.6,0.6,0.6s0.3,0.2,0.4,0.2c0,0.2,0,0.5,0.2,0.6c0,0.2,0.2,0.6,0,0.8l0,0c-0.2,0.3-0.3,0.4-0.1,0.7
					c0.1,0.1,0.4,0.1,0.6,0.2c0.1,0,2,0.7,1.9,1.1l0,0c0,0.2,0.1,0.5,0.2,0.5l0,0l0,0v0.3l0,0c0,0,0,0,0.1,0l0,0
					c0.2,0,0.4,0.1,0.7,0.1c0.2,0.1,0.6,0.2,0.7,0.2l0,0c0.5,0,0.9,0,1.3,0l0,0c0.5,0.1,0.7,0.5,1,0.6c0.2-0.2,0.5,0.1,0.5,0.2l0,0
					c0.3,0,0.4,0.2,0.6,0.3c0,0.1,0.1,0.1,0.2,0.1c0.1-0.3,2-0.7,2-1l0,0l0,0c0.3-0.1,0.7,0.2,1.1,0.1c0.1-0.2,0.4-0.5,0.5-0.6
					c0.2-0.1,0.7-0.6,0.7-0.7c-0.1-0.2-0.4-1.1,0.1-1.1l0,0c0,0,0.7,0.4,0.7,0.3c0.2,0,0.6-0.5,0.6-0.6c0.2,0,0.6-0.1,0.7-0.3
					c0.1-0.1,0.3-0.5,0.3-0.5c0.1-0.1,0.3-0.2,0.4-0.2l0,0l0,0c0.1-0.1,0.3-0.3,0.4-0.3c0,0,0.8-0.1,0.9-0.1c0-0.1,0-0.2,0-0.3
					c-0.1-0.3-0.5-0.5-0.8-0.7c-0.1,0-0.2,0.1-0.3,0.1c-0.1,0.1-0.1,0.2-0.2,0.3c-0.2,0-0.5-0.2-0.6-0.1l0,0c-0.2,0-0.3,0.1-0.6,0.1
					c0-0.1-0.1-0.1-0.1-0.2c0.1-0.1,0.3-0.3,0.2-0.4c0-0.4,0.1-0.6,0.2-1l0,0l0.1-0.1c0.4,0,0.8,0,1-0.3c0,0,0,0,0.1-0.1
					c0-0.2,0.1-0.5,0.1-0.7l0,0c0-0.3,0.4-0.8,0.4-0.8c0.1-0.2-0.2-0.4-0.3-0.5v-0.1c0-0.2,0.1-0.2,0.2-0.4c0.2,0,0.3-0.1,0.5-0.1
					c0.1-0.2,0.7-0.4,0.9-0.4s0.3,0.1,0.5,0.1l0,0c0.3,0,0.4,0,0.7,0.1l0,0l0,0l0,0l0,0c0,0,0.9,0.9,0.9,1.1l0,0l0,0l0,0l0,0
					c0.1,0.1,0.3,0.3,0.4,0.4l0,0l0,0c0,0.2,0.1,0.3,0.3,0.4l0,0c0,0.1,0.1,0.3,0.1,0.3l0,0c0.2,0,0.5,0,0.6,0c0,0.1,0.3,0,0.4,0
					c0,0,0.1,0.1,0.2,0.1c0,0.2,0.3,0.2,0.5,0.3C715.2,38.2,715.5,38.7,715.7,38.7L715.7,38.7L715.7,38.7z M712.9,60.4
					c0-0.2,0-0.4,0.1-0.6l0,0c0-0.3,0.1-0.3,0.1-0.6l0,0c0-0.2,0.2-0.7,0.4-0.9c0,0,0.3-0.1,0.4-0.1l0,0c0.5,0.1,0.2,0.4,0.2,0.6
					l0,0c0,0.3,0.1,0.7,0,1c0,0.1-0.1,0.2-0.1,0.3c-0.1,0.1-0.3,0.1-0.3,0.3l0,0c-0.1,0.3,0,0.5-0.2,0.8l0,0l0,0l0,0
					c0-0.1-0.2-0.2-0.2-0.3l0,0C713.1,60.7,713,60.7,712.9,60.4L712.9,60.4L712.9,60.4z M704.7,63.6c0.3,0,0.9-0.3,1.3-0.2
					c0.1,0,0.2,0.1,0.3,0.2c0.1,0.1-0.1,0.3-0.3,0.9l0,0l0,0c-0.1,0.3-0.8,0.5-0.8,0.5l0,0l0,0c-0.1,0-0.6-0.1-0.6-0.3l0,0
					C704.2,63.9,704.7,64.1,704.7,63.6L704.7,63.6L704.7,63.6z"/>
			</g>
		</g>
		<circle class="st0" cx="696" cy="47.8" r="2.5"/>
		<circle class="st5" cx="703.2" cy="46" r="2.6"/>
		<circle class="st1" cx="710.1" cy="51.5" r="3.7"/>
		<circle class="st0" cx="707.7" cy="58.1" r="1.4"/>
		<circle class="st9" cx="696.7" cy="56" r="3.1"/>
	</g>
</g>
<g>
	<path class="st1" d="M467.8,55.2c0-2.3-0.5-4.4-1.3-6.4c-0.1-0.2-0.1-0.3-0.2-0.5c-0.9-2-2.1-3.9-3.6-5.4c-0.1-0.1-0.2-0.2-0.4-0.4
		c-1.6-1.5-3.4-2.8-5.4-3.6c-0.2-0.1-0.3-0.1-0.5-0.2c-2-0.8-4.1-1.2-6.4-1.3c-0.1,0-0.2,0-0.2,0h-0.2c-2.3,0-4.4,0.5-6.4,1.3
		c-0.2,0.1-0.3,0.1-0.5,0.2c-2,0.9-3.9,2.1-5.4,3.6c-0.1,0.1-0.2,0.2-0.4,0.4c-1.5,1.6-2.8,3.4-3.6,5.4c-0.1,0.2-0.1,0.3-0.2,0.5
		c-0.8,2-1.2,4.1-1.3,6.4c0,0.1,0,0.2,0,0.2v0.2c0,2.3,0.5,4.4,1.3,6.4c0.1,0.2,0.1,0.3,0.2,0.5l4.6-1.9l2.5-1
		c-0.1-0.2-0.1-0.3-0.2-0.5l-2.5,1c-0.5-1.4-0.9-2.9-0.9-4.5h2.7c0-0.1,0-0.2,0-0.2v-0.2h-2.7c0-1.6,0.3-3.1,0.9-4.5l2.5,1
		c0.1-0.2,0.1-0.3,0.2-0.5l-2.5-1c0.6-1.4,1.5-2.7,2.5-3.8l1.9,1.9c0.1-0.1,0.2-0.2,0.4-0.4l-1.9-1.9c1.1-1.1,2.4-1.9,3.8-2.5l1,2.5
		c0.2-0.1,0.3-0.1,0.5-0.2l-1-2.5c1.4-0.5,2.9-0.9,4.5-0.9v2.7c0.1,0,0.2,0,0.2,0h0.2v-2.7c1.6,0,3.1,0.3,4.5,0.9l-1,2.5
		c0.2,0.1,0.3,0.1,0.5,0.2l1-2.5c1.4,0.6,2.7,1.5,3.8,2.5l-1.8,2c0.1,0.1,0.2,0.2,0.4,0.4l1.9-1.9c1.1,1.1,1.9,2.4,2.5,3.8l-2.5,1
		c0.1,0.2,0.1,0.3,0.2,0.5l2.5-1c0.5,1.4,0.9,2.9,0.9,4.5h-2.7c0,0.1,0,0.2,0,0.2v0.2h2.7c0,1.6-0.3,3.1-0.9,4.5l-2.5-1
		c-0.1,0.2-0.1,0.3-0.2,0.5l2.5,1l4.6,1.9c0.1-0.2,0.1-0.3,0.2-0.5c0.8-2,1.2-4.1,1.3-6.4c0-0.1,0-0.2,0-0.2S467.8,55.3,467.8,55.2z
		"/>
	<path class="st5" d="M451.7,59.4l-7-10l3.2,11.8l0.2,0.6c0.5,1.1,1.8,1.6,2.9,1.1s1.6-1.8,1.1-2.9L451.7,59.4z"/>
	<path class="st4" d="M452.1,61.6l5.2-11l-8.7,8.6l-0.4,0.5c-0.7,1-0.5,2.4,0.5,3.1c1,0.7,2.4,0.5,3.1-0.5L452.1,61.6z"/>
</g>
<g>
	<g>
		<path class="st1" d="M549.9,63c-7.2,0-13-5.8-13-13s5.8-13,13-13s13,5.8,13,13h5c0-9.9-8.1-18-18-18s-18,8.1-18,18s8.1,18,18,18
			c2.6,0,5.1-0.6,7.4-1.6l-2-4.6C553.5,62.6,551.8,63,549.9,63z"/>
	</g>
	<g>
		<path class="st0" d="M549.9,58c-4.4,0-8-3.6-8-8s3.6-8,8-8c1.3,0,2.6,0.3,3.7,0.9l1.8-3.6c-1.6-0.8-3.5-1.3-5.5-1.3
			c-6.6,0-12,5.4-12,12s5.4,12,12,12c1.7,0,3.4-0.4,4.9-1.1l-1.6-3.7C552.1,57.7,551,58,549.9,58z"/>
	</g>
</g>
<g>
	<g>
		<path class="st1" d="M499.9,63c-7.2,0-13-5.8-13-13s5.8-13,13-13c7,0,12.7,5.6,13,12.5h5c-0.3-9.7-8.2-17.5-18-17.5
			c-9.9,0-18,8.1-18,18s8.1,18,18,18c2.8,0,5.5-0.7,7.9-1.9l-2.3-4.4C503.8,62.5,501.9,63,499.9,63z"/>
		<path class="st5" d="M506.3,61.3l2.3,4.4c5.3-3,9-8.7,9.2-15.2h-5C512.7,55.1,510.1,59.1,506.3,61.3z"/>
	</g>
</g>
<g>
	<circle class="st1" cx="596.1" cy="63.5" r="2"/>
	<circle class="st1" cx="594.8" cy="58" r="2"/>
	<circle class="st1" cx="600.1" cy="53.2" r="2"/>
	<circle class="st1" cx="611.7" cy="49" r="2"/>
	<circle class="st1" cx="592.8" cy="48.5" r="2"/>
	<circle class="st1" cx="588.9" cy="45.8" r="2"/>
	<circle class="st1" cx="612.7" cy="40" r="2"/>
	<circle class="st1" cx="595.3" cy="40" r="2"/>
	<circle class="st1" cx="587.4" cy="38.5" r="2"/>
	<circle class="st1" cx="601.9" cy="60" r="2"/>
	<circle class="st1" cx="587.9" cy="54.6" r="2"/>
	<circle class="st1" cx="607" cy="52.6" r="2"/>
	<circle class="st1" cx="603" cy="42" r="2"/>
</g>
<g>
	<circle class="st1" cx="660.4" cy="47.8" r="5.9"/>
	<circle class="st4" cx="646.2" cy="52.3" r="3.1"/>
	<circle class="st1" cx="642.3" cy="58.1" r="1.8"/>
	<circle class="st5" cx="648.9" cy="62.7" r="1.5"/>
	<circle class="st1" cx="647.3" cy="40" r="4.2"/>
	<circle class="st1" cx="654.7" cy="57.8" r="2.4"/>
	<circle class="st0" cx="637.9" cy="48.7" r="4.4"/>
</g>
<g>
	<g>
		<rect x="831.9" y="61" class="st10" width="9.9" height="7"/>
		<rect x="831.9" y="40" class="st10" width="9.9" height="6"/>
		<rect x="831.9" y="54" class="st10" width="9.9" height="6"/>
		<rect x="831.9" y="47" class="st10" width="9.9" height="6"/>
		<polygon class="st10" points="831.9,32 831.9,38.5 831.9,39 863.9,39 863.9,32 		"/>
	</g>
	<path class="st11" d="M831.9,40h9.9v6h-9.9v1h9.9v6h-9.9v1h9.9v6h-9.9v1h9.9v7h1v-7h9.8v7h1v-7h10.3v-1h-10.3v-6h10.3v-1h-10.3v-6
		h10.3v-1h-10.3v-6h10.3v-1h-32V40z M842.7,40h9.8v6h-9.8V40z M842.7,47h9.8v6h-9.8V47z M842.7,54h9.8v6h-9.8V54z"/>
</g>
<g>
	<g>
		<g>
			<g>
				<path class="st7" d="M765.7,38.7L765.7,38.7c0.3,0.1,0.6-0.2,0.8-0.4c0.2-0.3,0.7-0.7,1-0.7c0.2,0.1,0,0.5,0.2,0.7
					c0,0,0.2,0.2,0.1,0.2c-0.1,0.2-0.2,1.7-0.1,1.8c0,0.2,0,0.2-0.1,0.4s-0.4,0-0.6,0c-0.1,0.1-0.2,0.2-0.3,0.3
					c-0.1,0.4,0.6,1.2,0.5,1.7l0,0c0,0.1-0.1,0.4-0.1,0.5s0,0.1-0.1,0.1l-0.3-0.1c-0.1-0.1-0.1-0.4-0.1-0.4c-0.1,0-0.2,0.1-0.2,0.1
					c0,0.1-0.1,0.5-0.3,0.6c-0.1,0.1-0.3,0.1-0.4,0.1l0,0c0,0,0,0,0,0.1c0.1,0.1,0.2,0.2,0.2,0.3c0,0.2-0.2,0.3-0.3,0.3
					c-0.3,0-0.4-0.1-0.7-0.1l0,0c-0.1,0-0.1,0.4-0.2,0.4c-0.1,0.2-0.3,0.4-0.4,0.6l0,0l0,0c-0.2,0.1-0.3,0.2-0.4,0.3
					c0,0.1-0.1,0.3-0.1,0.4c-0.4,0.3-0.9,0.2-1.2,0.8c0,0.1-0.2,0.4-0.2,0.4c-0.2,0-0.3,0-0.5,0c0-0.1,0.1-0.4,0.3-0.4
					c0-0.1-0.3-0.4-0.2-0.4c0,0,0,0,0-0.1l0,0c0-0.2,0.3-0.3,0.2-0.7c0-0.2-0.3-0.3-0.4-0.2l-1.3,1.6c-0.1,0.1-0.5,0.2-0.7,0.2
					c-0.2,0.1-0.3,0.5,0,0.6c0,0.1,0.1,0.2,0.1,0.3c0.1,0,0.4-0.2,0.6-0.1c0.1,0.1,0.1,0.3,0.1,0.4l0,0c0,0.1,0.2,0.3,0.3,0.3l0,0
					l0,0c0.3,0,0.3-0.7,0.9-0.7c0.2-0.1,0.5,0.2,0.7,0.1c0.2,0,0.3,0,0.4,0.1c0,0,0,0.4-0.1,0.4l-0.6,0.3c0.1,0.1-0.5,0.7-0.6,0.6
					c0,0.1-0.2,0.3-0.2,0.4l-0.1,0.1l0,0c0,0.1-0.1,0.5-0.1,0.5l0,0l0,0l0.1,0.1c0.9,0.1,0.9,1.4,1.2,1.6l0,0
					c0.2,0.2,0.5,0.3,0.7,0.5l0,0c0.3,0.1-0.3,0.2-0.3,0.3c0.2,0.1,0.4,0.2,0.5,0.5l0,0c0,0.3-0.7,0.6-0.9,0.8l0,0l0,0
					c0.1,0,0.2,0,0.3,0c0.2-0.3,0.7-0.1,1,0l0,0c0,0.2-0.4,0.3-0.4,0.4c0.1,0,0.2-0.2,0.3-0.1c0,0.1,0.1,0.2,0,0.3s-0.2,0-0.2,0.1
					l0,0c0,0.4,0.5,0.9-0.2,0.9c-0.2,0.3-0.2,0.4-0.3,0.8c-0.2,0.1-0.2,0.4-0.3,0.5c-0.1,0-0.2,0-0.3,0c0,0.1,0.2,0.2,0.3,0.2
					c0,0.2-0.3,0.1-0.2,0.3c0,0.2,0.1,0.3,0,0.5c-0.4,0-0.1,0.3-0.4,0.5c-0.1,0.2-0.5,0.2-0.5,0.3c-0.1,0.1-0.5,0.8-0.6,0.8l0,0
					c-0.2,0.1-0.6,0.1-0.6,0.3c0,0.1,0,0.1,0,0.1c-0.4,0.2-0.9,0.7-1.3,0.6c-0.2-0.1-0.2,0.4-0.4,0.4c-0.1,0.1-0.4-0.2-0.4-0.3
					c-0.2-0.1-0.2,0.1-0.2,0.1c-0.1,0.3-0.6,0.7-0.9,0.7c-0.2,0.1-1.3,0.2-1.3,0.4l0,0c0,0.1-0.1,0.3-0.2,0.3c-0.1,0.1,0,0.1,0,0.2
					c0.1,0,0.1,0,0.2,0c0,0.1,0,0.2,0,0.3c-0.2,0.1-0.2,0.1-0.4,0.1l0,0c-0.1,0-0.2-0.3-0.3-0.4c-0.3-0.1,0-0.4,0-0.5l0,0l0,0
					c-0.2,0-0.3,0.1-0.4,0.1l0,0c0,0-0.4-0.5-0.4-0.3c0.1,0,0.1,0.1,0,0.1h-0.6c-0.2,0-0.9-0.2-0.9-0.5l0,0c0-0.1,0.1-0.3,0.1-0.4
					c0,0,0,0-0.1-0.1c-0.1,0-0.8-0.1-0.8-0.1c-0.1,0-0.1-0.2-0.2-0.2h-0.2c-0.1,0.1-0.3,0.4-0.4,0.4l0,0c-0.1,0-0.2,0-0.3,0.1
					c0,0.2-0.3,0.1-0.4,0.1l-0.1-0.1l-0.3,0.1c-0.2,0.1-0.3-0.1-0.5-0.1l-0.2,0.2c-0.1,0-0.3-0.1-0.4,0c-0.1,0-0.1,0.1-0.1,0.2
					c0.1,0.1,0.1,0.3,0.1,0.4c0.1,0,0.1,0.4,0.1,0.4c0,0.1-0.1,0.1-0.2,0.1l0,0c-0.2,0-0.3-0.3-0.3-0.5c0-0.1,0-0.1-0.1-0.2
					c-0.2,0-0.2,0.2-0.3,0.2l0,0c-0.1,0-0.1,0-0.2-0.1c0-0.2-0.4-0.4-0.4-0.5c-0.1,0-0.2,0-0.2,0l-0.1-0.1l0,0c0-0.2,0-0.5,0-0.7
					c-0.1,0-0.2,0-0.2-0.1c-0.1-0.1-0.2-0.5-0.3-0.7c-0.2-0.1-0.3,0.1-0.5,0.1l0,0c-0.2-0.1-0.1-0.2-0.2-0.4
					c-0.1-0.3,0.1-0.4,0.1-0.7l0,0c0-0.1,0.4-0.3,0.5-0.4c0,0,0,0,0.1,0s0.3-1.2,0.2-1.3c0-0.1-0.3-0.2-0.3-0.3c0,0,0-0.1-0.1-0.1
					c0-0.2-0.1-0.3-0.2-0.5c-0.1,0-0.2-0.1-0.2,0c-0.1,0.1,0,0.4-0.2,0.5c-0.1,0-0.3-0.2-0.4-0.3c-0.1,0-0.4-0.2-0.5-0.2l0,0
					c-0.1,0-0.3,0.2-0.4,0.3c-0.4,0-0.7,0.5-1.1,0.6c-0.1,0.1-1.1,0.3-1.3,0c-0.1-0.1,0-0.4,0-0.5c-0.1-0.1-0.2-0.1-0.2-0.3
					l-0.4-0.1c-0.3-0.1-0.4-0.4-0.8-0.4c0,0-0.5,0.2-0.6,0.3c0,0.1,0,0.3,0,0.4c-0.2,0.1-0.2,0.1-0.4,0c-0.1-0.2,0-0.4,0-0.6
					c-0.1-0.1-0.4-0.1-0.5,0c-0.1,0-0.2,0.2-0.4,0.2s-0.3-0.2-0.4-0.3c-0.2,0-0.4,0-0.6,0c-0.2-0.2-0.3-0.4-0.5-0.6
					c-0.1-0.1-0.3,0-0.4-0.2c0,0,0,0-0.1,0c-0.1-0.1-0.2-0.4-0.2-0.6c-0.1-0.1-0.4,0-0.4-0.1c-0.1,0-0.2-0.3-0.2-0.3
					c-0.1-0.1-0.3-0.1-0.4-0.3l0,0c0-0.1-0.3-0.5-0.3-0.5c-0.3,0.1-0.7,0.2-1-0.1c-0.1-0.1-0.1-0.3-0.1-0.4
					c-0.3-0.3-0.4-0.6-0.9-0.6c-0.1,0-0.1,0-0.1-0.1c0-0.2,0-0.2,0.1-0.3l0,0c0.2-0.1,0.1-0.6,0.1-0.8l0,0c0-0.2,0-0.1,0-0.2
					c0.2,0,0.3,0.1,0.4,0.1c0-0.1,0,0,0-0.1l0,0c0-0.3-0.1-0.6-0.1-0.9l0,0c-0.1-0.2,0.2-0.4,0.2-0.5s0-0.1-0.1-0.2
					c-0.3-0.1-0.3-0.4-0.3-0.6c0.1-0.3-0.7-0.9-0.9-0.8c-0.1,0-0.1-0.1-0.1-0.1c0-0.1,0.1-0.5,0.1-0.7c-0.1-0.1-0.5-0.4-0.6-0.5l0,0
					c-0.1-0.2,0-0.4,0.3-0.5c0.1-0.2,0.1-0.5,0.1-0.7l0,0c0-0.3-0.3-0.1-0.5-0.1c-0.1-0.1-0.2-0.1-0.1-0.4c0.2-0.1,0.2-0.4,0.1-0.4
					c0-0.1,0.3-0.2,0.3-0.4c0.2,0,0.9-0.6,1.3-0.4c0.3,0,0.1,0.4,0.4,0.4c0.5-0.4,0.8-0.5,1.5-0.5l0,0c0.1,0,0.7-0.1,0.7-0.1
					c0.2-0.1,0.2-0.2,0.2-0.3c0,0,0.6-0.7,0.6-0.8c0.1-0.3,0.1-0.6,0-1l0,0c0-0.1,0-0.2,0-0.3c-0.1-0.1,0-0.2,0.1-0.2
					c0.5-0.1,0.9,0.1,1.3,0.1l0,0c0.1-0.1-0.1-0.5,0.3-0.8c0.1-0.1,0.3-0.5,0.3-0.6l0,0c0.1-0.1,0.2-0.1,0.2,0c0,0.2,1,0.4,1,0.4
					l0,0c0.2,0,0.2,0,0.2-0.2V39l0,0c0.1-0.3,0.6-0.3,0.8-0.4l0,0c0.1-0.1,0.1-0.4,0.4-0.4c0.1,0,0.4,0,0.4,0.2l0,0
					c0,0.1,0.1,0.2,0.1,0.3s0.5,0.6,0.6,0.6s0.3,0.2,0.4,0.2c0,0.2,0,0.5,0.2,0.6c0,0.2,0.2,0.6,0,0.8l0,0c-0.2,0.3-0.3,0.4-0.1,0.7
					c0.1,0.1,0.4,0.1,0.6,0.2c0.1,0,2,0.7,1.9,1.1l0,0c0,0.2,0.1,0.5,0.2,0.5l0,0l0,0v0.3l0,0c0,0,0,0,0.1,0l0,0
					c0.2,0,0.4,0.1,0.7,0.1c0.2,0.1,0.6,0.2,0.7,0.2l0,0c0.5,0,0.9,0,1.3,0l0,0c0.5,0.1,0.7,0.5,1,0.6c0.2-0.2,0.5,0.1,0.5,0.2l0,0
					c0.3,0,0.4,0.2,0.6,0.3c0,0.1,0.1,0.1,0.2,0.1c0.1-0.3,2-0.7,2-1l0,0l0,0c0.3-0.1,0.7,0.2,1.1,0.1c0.1-0.2,0.4-0.5,0.5-0.6
					c0.2-0.1,0.7-0.6,0.7-0.7c-0.1-0.2-0.4-1.1,0.1-1.1l0,0c0,0,0.7,0.4,0.7,0.3c0.2,0,0.6-0.5,0.6-0.6c0.2,0,0.6-0.1,0.7-0.3
					c0.1-0.1,0.3-0.5,0.3-0.5c0.1-0.1,0.3-0.2,0.4-0.2l0,0l0,0c0.1-0.1,0.3-0.3,0.4-0.3c0,0,0.8-0.1,0.9-0.1c0-0.1,0-0.2,0-0.3
					c-0.1-0.3-0.5-0.5-0.8-0.7c-0.1,0-0.2,0.1-0.3,0.1c-0.1,0.1-0.1,0.2-0.2,0.3c-0.2,0-0.5-0.2-0.6-0.1l0,0c-0.2,0-0.3,0.1-0.6,0.1
					c0-0.1-0.1-0.1-0.1-0.2c0.1-0.1,0.3-0.3,0.2-0.4c0-0.4,0.1-0.6,0.2-1l0,0l0.1-0.1c0.4,0,0.8,0,1-0.3c0,0,0,0,0.1-0.1
					c0-0.2,0.1-0.5,0.1-0.7l0,0c0-0.3,0.4-0.8,0.4-0.8c0.1-0.2-0.2-0.4-0.3-0.5v-0.1c0-0.2,0.1-0.2,0.2-0.4c0.2,0,0.3-0.1,0.5-0.1
					c0.1-0.2,0.7-0.4,0.9-0.4s0.3,0.1,0.5,0.1l0,0c0.3,0,0.4,0,0.7,0.1l0,0l0,0l0,0l0,0c0,0,0.9,0.9,0.9,1.1l0,0l0,0l0,0l0,0
					c0.1,0.1,0.3,0.3,0.4,0.4l0,0l0,0c0,0.2,0.1,0.3,0.3,0.4l0,0c0,0.1,0.1,0.3,0.1,0.3l0,0c0.2,0,0.5,0,0.6,0c0,0.1,0.3,0,0.4,0
					c0,0,0.1,0.1,0.2,0.1c0,0.2,0.3,0.2,0.5,0.3C765.2,38.2,765.5,38.7,765.7,38.7L765.7,38.7L765.7,38.7z M762.9,60.4
					c0-0.2,0-0.4,0.1-0.6l0,0c0-0.3,0.1-0.3,0.1-0.6l0,0c0-0.2,0.2-0.7,0.4-0.9c0,0,0.3-0.1,0.4-0.1l0,0c0.5,0.1,0.2,0.4,0.2,0.6
					l0,0c0,0.3,0.1,0.7,0,1c0,0.1-0.1,0.2-0.1,0.3c-0.1,0.1-0.3,0.1-0.3,0.3l0,0c-0.1,0.3,0,0.5-0.2,0.8l0,0l0,0l0,0
					c0-0.1-0.2-0.2-0.2-0.3l0,0C763.1,60.7,763,60.7,762.9,60.4L762.9,60.4L762.9,60.4z M754.7,63.6c0.3,0,0.9-0.3,1.3-0.2
					c0.1,0,0.2,0.1,0.3,0.2c0.1,0.1-0.1,0.3-0.3,0.9l0,0l0,0c-0.1,0.3-0.8,0.5-0.8,0.5l0,0l0,0c-0.1,0-0.6-0.1-0.6-0.3l0,0
					C754.2,63.9,754.7,64.1,754.7,63.6L754.7,63.6L754.7,63.6z"/>
			</g>
		</g>
	</g>
	<g>
		<circle class="st8" cx="746" cy="47.8" r="2.5"/>
		<circle class="st8" cx="753.2" cy="46" r="2.6"/>
		<circle class="st8" cx="760.1" cy="51.5" r="3.7"/>
		<circle class="st8" cx="757.7" cy="58.1" r="1.4"/>
		<circle class="st8" cx="746.7" cy="56" r="3.1"/>
	</g>
	<g>
		<circle class="st1" cx="760.1" cy="51.5" r="1.9"/>
		<circle class="st1" cx="746" cy="47.8" r="1.3"/>
		<circle class="st1" cx="753.2" cy="46" r="1.4"/>
		<circle class="st1" cx="757.7" cy="58.1" r="0.7"/>
		<circle class="st1" cx="746.7" cy="56.1" r="1.6"/>
	</g>
	<g>

			<rect x="746.4" y="54.2" transform="matrix(0.9145 -0.4045 0.4045 0.9145 41.9541 307.9719)" class="st12" width="6.8" height="1"/>

			<rect x="737.1" y="47.5" transform="matrix(0.9987 -5.080090e-02 5.080090e-02 0.9987 -1.4812 37.7254)" class="st12" width="8.6" height="1"/>

			<rect x="755.7" y="46.3" transform="matrix(6.339852e-02 -0.998 0.998 6.339852e-02 665.4482 802.6585)" class="st12" width="9.4" height="1"/>
		<rect x="753.4" y="45.9" transform="matrix(0.957 -0.2902 0.2902 0.957 18.4834 220.8474)" class="st12" width="1" height="4.4"/>
	</g>
</g>
<g>
	<path class="st7" d="M806,63.4c-0.3-0.1-1,0.1-1.3,0.2c0,0.6-0.5,0.3-0.3,1.1l0,0c0,0.1,0.5,0.3,0.6,0.3l0,0l0,0
		c0,0.1,0.7-0.2,0.8-0.5l0,0l0,0c0.2-0.5,0.4-0.8,0.3-0.9C806.2,63.5,806.1,63.4,806,63.4z"/>
	<path class="st7" d="M817.9,38.4l-0.1-0.2c-0.2-0.2,0-0.6-0.2-0.7c-0.3,0-0.8,0.5-1,0.7c-0.2,0.2-0.5,0.5-0.8,0.4
		c-0.2,0-0.5-0.5-0.5-0.7c-0.2,0-0.5-0.1-0.5-0.3l-0.2-0.1c-0.1,0-0.4,0-0.4,0c-0.1-0.1-0.5,0-0.6,0s-0.1-0.3-0.1-0.3
		c-0.1-0.1-0.3-0.2-0.3-0.4c-0.1-0.1-0.3-0.2-0.4-0.4c0-0.2-0.9-1.1-0.9-1.1c-0.2-0.1-0.4-0.1-0.7-0.1c-0.1,0-0.3-0.2-0.5-0.1
		c-0.2,0-0.8,0.2-0.9,0.4c-0.2,0.1-0.3,0.1-0.5,0.1c-0.1,0.1-0.2,0.1-0.2,0.4v0.1c0.2,0.1,0.4,0.3,0.3,0.5c0,0-0.4,0.5-0.4,0.8
		c0,0.2-0.1,0.5-0.1,0.7c0,0,0,0-0.1,0.1c-0.3,0.3-0.7,0.3-1,0.3c-0.1,0-0.1,0.1-0.1,0.1c-0.1,0.4-0.2,0.6-0.2,1
		c0.1,0.2-0.1,0.3-0.2,0.4c0,0.1,0.1,0.2,0.1,0.2c0.3,0,0.4-0.1,0.6-0.1c0.1,0,0.4,0.1,0.6,0.1c0.1-0.1,0.1-0.2,0.2-0.3
		c0.2,0,0.2-0.2,0.3-0.1c0.3,0.2,0.7,0.4,0.8,0.7c0,0.1,0,0.2,0,0.3c-0.1,0-0.9,0-0.9,0.1c-0.1,0-0.4,0.2-0.4,0.3
		c-0.2,0-0.3,0.1-0.4,0.2c0,0-0.2,0.4-0.3,0.5c-0.1,0.2-0.5,0.2-0.7,0.3c0,0.2-0.4,0.6-0.6,0.6c0,0.2-0.7-0.3-0.7-0.3
		c-0.5,0-0.2,0.9-0.1,1.1c0.1,0.1-0.5,0.5-0.7,0.7c-0.1,0.1-0.5,0.4-0.5,0.6c-0.4,0.1-0.8-0.2-1.1-0.1c0,0.3-1.9,0.7-2,1
		c-0.1,0-0.1,0-0.2-0.1c-0.2-0.1-0.3-0.3-0.6-0.3c-0.1-0.1-0.4-0.3-0.5-0.2c-0.3,0-0.6-0.5-1-0.6c-0.4,0-0.9,0-1.3,0
		c-0.2,0-0.5-0.1-0.7-0.2c-0.2,0-0.3,0-0.5-0.1c0,0.1,0,0.2,0.1,0.3c0.1,0.3,0.2,0.8,0.2,0.8s0.1,0.1-0.1,0.3s0.1,0.3-0.3,0.3
		s-0.7,0.1-0.7,0.1s0,0-0.1,0.1c-0.1,0.1-0.5,0.3-0.6,0.4c-0.1,0.1,0,0.8,0,1.1c0,0.4,0.4,0.4-1.1,0.3c-1.4-0.1-1.2,0.7-1.2,0.7
		s0,0,0.2,0.3s0,0.5-0.1,0.6s-0.4,0.2-0.5,0.3c-0.1,0.1-0.5,0-0.7-0.1c-0.2-0.2-0.4-0.2-0.7-0.2s-0.4,0.1-0.6,0.1
		c-0.2,0-0.4,0-0.5,0.1c-0.2,0-0.4,0.2-0.6,0.2c-0.2,0-0.1,0-0.7,0c-0.6-0.1-0.5-0.3-0.7-0.4c-0.3-0.1-0.5,0-0.9,0.1
		c-0.4,0.1-0.4,0-0.6-0.1c-0.2-0.1-0.5,0.1-0.6,0.2s-0.4,0.3-0.4,0.3h-0.6h-0.3c0.1,0.3,0.1,0.5,0.1,0.8c0,0.1,0,0,0,0.1
		c-0.2,0-0.3-0.1-0.4-0.1c-0.1,0.1,0,0,0,0.2c0,0.2,0.1,0.6-0.1,0.8c-0.1,0.1-0.1,0.2-0.1,0.3c0.1,0,0,0,0.1,0.1
		c0.5,0,0.6,0.3,0.9,0.6c0,0.1,0,0.3,0.1,0.4c0.2,0.3,0.6,0.1,1,0.1c0,0,0.3,0.4,0.3,0.5c0.1,0.1,0.3,0.2,0.4,0.3
		c0,0,0.1,0.3,0.2,0.3c0,0.1,0.3,0,0.4,0.1c0,0.2,0.1,0.5,0.2,0.6c0,0,0,0,0.1,0c0.1,0.2,0.3,0.1,0.4,0.2c0.1,0.2,0.3,0.5,0.5,0.6
		c0.2,0,0.4,0,0.6,0c0.1,0.1,0.2,0.3,0.4,0.3s0.3-0.1,0.4-0.2c0.1,0,0.4,0,0.5,0c0,0.2-0.1,0.4,0,0.6c0.2,0.1,0.2,0.1,0.4,0
		c0.1-0.1,0-0.3,0-0.4c0.1-0.1,0.6-0.3,0.6-0.3c0.3,0,0.5,0.4,0.8,0.4c0,0,0.3,0.1,0.4,0.1c0,0.2,0.1,0.2,0.2,0.3
		c0,0.1-0.1,0.4,0,0.5c0.2,0.3,1.2,0.1,1.3,0c0.4-0.1,0.7-0.6,1.1-0.6c0.1-0.1,0.3-0.3,0.4-0.3c0.1,0,0.4,0.2,0.5,0.2
		c0.1,0.1,0.3,0.4,0.4,0.3c0.2,0,0.1-0.4,0.2-0.5c0.1-0.1,0.2,0,0.2,0c0.1,0.2,0.2,0.2,0.2,0.5c0,0,0,0.1,0.1,0.1
		c0,0.1,0.3,0.2,0.3,0.3c0.1,0.2-0.1,1.3-0.2,1.3c0,0,0,0-0.1,0c-0.1,0.1-0.5,0.3-0.5,0.4c-0.1,0.2-0.2,0.4-0.1,0.7
		c0,0.2-0.1,0.4,0.2,0.4c0.2,0,0.3-0.3,0.5-0.1c0.1,0.2,0.2,0.6,0.3,0.7c0.1,0.1,0.1,0.1,0.2,0.1c0.1,0.2,0,0.5,0,0.7l0.1,0.1h0.2
		c0,0,0.4,0.3,0.4,0.5c0.1,0,0.1,0,0.2,0.1c0.1,0,0.1-0.2,0.3-0.2c0.1,0.1,0.1,0,0.1,0.2s0.1,0.4,0.3,0.5c0.1,0,0.2,0.1,0.2-0.1
		c0-0.1,0-0.4-0.1-0.4c0-0.1,0-0.4-0.1-0.4c0-0.1,0-0.2,0.1-0.2s0.3,0.1,0.4,0c0,0,0.2-0.1,0.2-0.2c0.2,0,0.3,0.2,0.5,0.1l0.3-0.1
		l0.1,0.1c0.1,0,0.4,0.1,0.4-0.1c0.1-0.1,0.2-0.1,0.3-0.1s0.4-0.3,0.4-0.4c0,0,0.2-0.1,0.2,0c0.1,0,0,0.2,0.2,0.2
		c0,0,0.7,0.1,0.8,0.1c0,0,0,0,0.1,0.1c0,0.1-0.1,0.3-0.1,0.4c-0.1,0.3,0.7,0.5,0.9,0.5c0.1,0,0.6,0.1,0.6,0c0.1,0,0.1-0.1,0-0.1
		c0-0.3,0.3,0.2,0.4,0.3c0.2,0,0.3-0.1,0.4-0.1c0,0.1-0.3,0.4,0,0.5c0.1,0.1,0.2,0.4,0.3,0.4c0.2,0,0.2,0,0.4-0.1c0-0.1,0-0.2,0-0.3
		c0,0-0.1,0-0.2,0c0-0.1-0.1-0.1,0-0.2c0.1,0,0.2-0.2,0.2-0.3c0-0.2,1.1-0.3,1.3-0.4c0.3,0,0.9-0.3,0.9-0.7c0,0,0-0.2,0.2-0.1
		c0,0.1,0.3,0.4,0.4,0.3c0.2,0,0.2-0.4,0.4-0.4c0.5,0.2,1-0.3,1.3-0.6c0-0.1,0-0.1,0-0.1c0-0.2,0.4-0.3,0.6-0.3
		c0.2,0,0.5-0.7,0.6-0.8c0-0.1,0.4-0.1,0.5-0.3c0.3-0.1,0-0.5,0.4-0.5c0-0.2,0-0.3,0-0.5c-0.1-0.2,0.2-0.2,0.2-0.3
		c-0.1,0-0.3-0.1-0.3-0.2s0.2,0,0.3,0c0.2-0.1,0.1-0.4,0.3-0.5c0-0.5,0.1-0.5,0.3-0.8c0.7,0,0.2-0.5,0.2-0.9c0.1-0.1,0.2,0,0.2-0.1
		c0.1-0.1,0-0.2,0-0.3c-0.1-0.1-0.2,0.1-0.3,0.1c0-0.2,0.3-0.2,0.4-0.4c-0.3-0.1-0.8-0.4-1,0c-0.1,0-0.2,0-0.3,0
		c0.2-0.2,0.9-0.5,0.9-0.8c-0.1-0.3-0.3-0.4-0.5-0.5c0-0.1,0.6-0.1,0.3-0.3c-0.2-0.2-0.5-0.3-0.7-0.5c-0.3-0.2-0.3-1.4-1.2-1.6
		c0,0-0.1,0-0.1-0.1l0.1-0.5l0.1-0.1c0,0,0.2-0.3,0.2-0.4c0.1,0.1,0.7-0.5,0.6-0.6l0.6-0.3c0.1,0,0.1-0.3,0.1-0.4
		c-0.1-0.1-0.2-0.1-0.4-0.1c-0.3,0.1-0.5-0.2-0.7-0.1c-0.6,0-0.6,0.7-0.9,0.7c-0.1,0-0.3-0.2-0.3-0.3c0-0.1,0-0.3-0.1-0.4
		c-0.2-0.1-0.6,0.1-0.6,0.1c0-0.1-0.1-0.2-0.1-0.3c-0.2-0.1-0.1-0.5,0-0.6c0.1,0,0.6-0.1,0.7-0.2c0,0,1.3-1.5,1.3-1.6
		c0.2-0.1,0.4,0,0.4,0.2c0.1,0.3-0.2,0.4-0.2,0.7c0,0,0,0,0,0.1c-0.1,0,0.2,0.4,0.2,0.4c-0.2,0-0.3,0.3-0.3,0.4c0.2,0,0.3,0,0.5,0
		c0,0,0.2-0.3,0.2-0.4c0.3-0.7,0.8-0.5,1.2-0.8c0-0.1,0.1-0.3,0.1-0.4c0.1-0.1,0.2-0.3,0.4-0.3c0.1-0.2,0.4-0.4,0.4-0.6
		c0.1,0,0.1-0.3,0.2-0.4c0.2,0,0.4,0.1,0.7,0.1c0.1,0,0.3-0.1,0.3-0.3c0-0.1-0.1-0.2-0.2-0.3c0-0.1,0-0.1,0-0.1c0.1,0,0.3,0,0.4-0.1
		c0.1-0.1,0.3-0.5,0.3-0.6c0,0,0.1-0.1,0.2-0.1c0.1,0,0,0.3,0.1,0.4l0.3,0.1c0.1,0,0.1-0.1,0.1-0.1c0-0.1,0.1-0.5,0.1-0.5
		c0.1-0.5-0.6-1.2-0.5-1.7c0-0.1,0.2-0.2,0.3-0.3c0.2,0,0.5,0.1,0.6,0c0.1-0.1,0.1-0.2,0.1-0.4C817.6,40.1,817.8,38.6,817.9,38.4z"
		/>
	<path class="st7" d="M813.9,58.3L813.9,58.3c-0.1,0-0.3,0-0.4,0.1c-0.2,0.2-0.4,0.6-0.4,0.9l0,0c0,0.2-0.1,0.3-0.1,0.6l0,0
		c0,0.2,0,0.4-0.1,0.6c0.1,0.3,0.2,0.3,0.4,0.5l0,0c0,0.1,0.2,0.2,0.2,0.3l0,0l0,0l0,0c0.3-0.3,0.1-0.5,0.2-0.8l0,0
		c0-0.2,0.2-0.2,0.3-0.3c0-0.1,0.1-0.2,0.1-0.3c0.1-0.3,0-0.7,0-1l0,0C814.1,58.6,814.4,58.3,813.9,58.3z"/>
	<path class="st1" d="M784.8,50c0,0,0.4-0.1,0.4-0.3c0.1-0.1,0.4-0.3,0.6-0.2c0.2,0.1,0.2,0.2,0.6,0.1c0.4-0.1,0.6-0.2,0.9-0.1
		s0.2,0.3,0.7,0.4c0.6,0.1,0.5,0,0.7,0s0.5-0.2,0.6-0.2c0.2,0,0.3-0.1,0.5-0.1s0.3-0.1,0.6-0.1s0.6,0,0.7,0.2
		c0.2,0.2,0.5,0.2,0.7,0.1s0.4-0.1,0.5-0.3s0.3-0.4,0.1-0.6c-0.2-0.3-0.2-0.3-0.2-0.3s-0.2-0.8,1.2-0.7s1.1,0,1.1-0.3
		c0-0.4-0.1-1,0-1.1s0.5-0.3,0.6-0.4c0.1-0.1,0.1-0.1,0.1-0.1s0.3,0,0.7-0.1c0.4,0,0.2-0.1,0.3-0.3s0.1-0.3,0.1-0.3
		s-0.1-0.5-0.2-0.8c0-0.1,0-0.2-0.1-0.3c-0.1,0-0.1,0-0.2,0l0,0c0,0,0,0-0.1,0l0,0v-0.3l0,0l0,0c-0.2-0.1-0.2-0.4-0.2-0.5l0,0
		c0.1-0.5-1.8-1.1-1.9-1.1c-0.2,0-0.5-0.1-0.6-0.2c-0.2-0.3-0.2-0.4,0.1-0.7l0,0c0.3-0.2,0.1-0.6,0-0.8c-0.1-0.1-0.2-0.5-0.2-0.6
		s-0.3-0.2-0.4-0.2c-0.1,0-0.7-0.4-0.6-0.6c0-0.1-0.1-0.2-0.1-0.3l0,0c0-0.2-0.2-0.3-0.4-0.2c-0.3,0-0.2,0.2-0.4,0.4l0,0
		c-0.3,0.1-0.7,0.1-0.8,0.4l0,0c0,0.1,0,0.5,0,0.5c0,0.1-0.1,0.2-0.2,0.2l0,0c0,0-1-0.1-1-0.4c-0.1,0-0.2,0-0.2,0l0,0
		c0,0.1-0.2,0.5-0.3,0.6c-0.5,0.2-0.2,0.6-0.3,0.8l0,0c-0.5,0-0.8-0.3-1.3-0.1c-0.1,0-0.2,0.1-0.1,0.2c0.1,0.1,0.1,0.2,0,0.3l0,0
		c0.1,0.3,0,0.6,0,1c0,0-0.6,0.7-0.6,0.8s0,0.2-0.2,0.3l-0.7,0.1l0,0c-0.7,0-0.9,0-1.5,0.5c-0.4,0-0.1-0.3-0.4-0.4
		c-0.4-0.1-1,0.4-1.3,0.4c0,0.2-0.3,0.3-0.3,0.4c0.1,0,0.2,0.3-0.1,0.4c-0.1,0.3,0,0.3,0.1,0.4c0.2,0,0.5-0.2,0.5,0.1l0,0
		c0,0.3,0.1,0.5-0.1,0.7c-0.2,0.1-0.4,0.3-0.3,0.5l0,0c0.1,0.1,0.5,0.4,0.6,0.5s-0.1,0.5-0.1,0.7l0.1,0.1c0.2-0.1,1,0.5,0.9,0.8
		c-0.1,0.2,0,0.6,0.3,0.6c0,0,0.1,0,0.1,0.2s-0.3,0.3-0.2,0.5l0,0l0,0h0.3L784.8,50z"/>
</g>
<g>
	<g>
		<path class="st13" d="M885.5,46.3c-2.4,0.1-3.6,2.1-3.7,5.8c0,3.7,1.3,5.6,3.7,5.7c2.5,0,3.8-1.9,3.7-5.7
			C889.2,48.2,888,46.3,885.5,46.3z M885.6,56.2c-1.1,0-1.6-1.4-1.6-4.1c0-2.9,0.5-4.3,1.6-4.2c1-0.1,1.5,1.3,1.5,4.2
			C887.1,54.9,886.6,56.2,885.6,56.2z"/>
		<path class="st13" d="M894,46.3c-2.4,0.1-3.6,2.1-3.7,5.8c0,3.7,1.3,5.6,3.7,5.7c2.5,0,3.8-1.9,3.7-5.7S896.5,46.3,894,46.3z
			 M894.1,56.2c-1.1,0-1.6-1.4-1.6-4.1c0-2.9,0.5-4.3,1.6-4.2c1-0.1,1.5,1.3,1.5,4.2C895.6,54.9,895.1,56.2,894.1,56.2z"/>
		<polygon class="st13" points="906,46.3 899.8,57.7 901.3,57.7 907.5,46.3 		"/>
		<path class="st13" d="M902.8,48.9c0-1.7-0.7-2.6-2.1-2.6c-1.4,0.1-2.1,0.9-2.1,2.6c0,1.7,0.7,2.6,2.1,2.6S902.8,50.6,902.8,48.9z
			 M899.8,48.9c0-1.3,0.3-2,0.9-1.9c0.6,0,0.9,0.6,0.9,1.9c0,1.3-0.3,1.9-0.9,1.9C900.1,50.8,899.8,50.2,899.8,48.9z"/>
		<path class="st13" d="M906.5,52.5c-1.4,0.1-2.1,0.9-2.1,2.6c0,1.7,0.7,2.6,2.1,2.6c1.4,0,2.1-0.8,2.1-2.6
			C908.7,53.4,907.9,52.5,906.5,52.5z M906.6,57c-0.6,0-0.9-0.6-0.9-1.9c0-1.3,0.3-2,0.9-1.9c0.6,0,0.9,0.6,0.9,1.9
			C907.4,56.4,907.1,57,906.6,57z"/>
	</g>
	<g>
		<path class="st14" d="M914.8,57.7v-7.4h3.1l-3.8-4.1l-3.8,4.1h3v7.3L914.8,57.7L914.8,57.7z"/>
	</g>
	<rect x="881.9" y="34.4" class="st15" width="36" height="7.2"/>
</g>
<g>
	<path class="st16" d="M934,58.6C934,58.6,934,58.5,934,58.6C934,58.5,934,58.5,934,58.6z"/>
	<g>
		<path class="st17" d="M944.9,45.8c-0.9,1-1.4,2.3-1.5,3.7h5.3L944.9,45.8z"/>
		<g>
			<path class="st17" d="M951.1,49.5h5.3c-0.1-1.4-0.7-2.7-1.5-3.7L951.1,49.5z"/>
			<path class="st17" d="M959,41.5l-3.5,3.5c1.1,1.2,1.7,2.7,1.8,4.4h5C962.2,46.4,961,43.7,959,41.5z"/>
		</g>
		<g>
			<path class="st18" d="M951.1,50.5l3.7,3.7c0.9-1,1.4-2.3,1.5-3.7H951.1z"/>
			<path class="st18" d="M963.3,50.5c-0.1,3.3-1.5,6.4-3.6,8.7l2.5,2.5c2.8-2.9,4.5-6.8,4.6-11.1L963.3,50.5z"/>
			<path class="st18" d="M957.3,50.5c-0.1,1.7-0.8,3.2-1.8,4.4l3.5,3.5c2-2.1,3.2-4.9,3.3-8L957.3,50.5L957.3,50.5z"/>
		</g>
		<g>
			<path class="st19" d="M949.4,48.8v-5.3c-1.4,0.1-2.7,0.7-3.7,1.5L949.4,48.8z"/>
			<path class="st19" d="M944.9,44.4c1.2-1.1,2.7-1.7,4.4-1.8v-5c-3.1,0.1-5.9,1.4-8,3.3L944.9,44.4z"/>
			<path class="st19" d="M938.2,37.6l2.5,2.5c2.3-2.1,5.3-3.5,8.7-3.6V33C945.1,33.2,941.1,34.9,938.2,37.6z"/>
		</g>
		<g>
			<path class="st20" d="M941.4,59.2c2.1,2,4.9,3.2,8,3.3v-5c-1.7-0.1-3.2-0.8-4.4-1.8L941.4,59.2z"/>
			<path class="st20" d="M945.6,54.9c1,0.9,2.3,1.4,3.7,1.5v-5.3L945.6,54.9z"/>
		</g>
		<path class="st19" d="M950.4,56.5c1.4-0.1,2.7-0.7,3.7-1.5l-3.7-3.7V56.5z"/>
		<g>
			<path class="st18" d="M932.9,50.5c0.1,4.3,1.9,8.2,4.6,11.1l2.5-2.5c-2.1-2.3-3.5-5.3-3.6-8.7h-3.5V50.5z"/>
			<path class="st18" d="M937.4,50.5c0.1,3.1,1.4,5.8,3.3,8l3.5-3.5c-1.1-1.2-1.7-2.7-1.8-4.4L937.4,50.5L937.4,50.5z"/>
			<path class="st18" d="M943.4,50.5c0.1,1.4,0.7,2.7,1.5,3.7l3.7-3.7H943.4z"/>
		</g>
		<path class="st18" d="M954.1,45.1c-1-0.9-2.3-1.4-3.7-1.5v5.3L954.1,45.1z"/>
		<path class="st15" d="M949.9,33c9.4,0,17,7.6,17,17s-7.6,17-17,17s-17-7.6-17-17S940.5,33,949.9,33 M949.9,32c-9.9,0-18,8.1-18,18
			s8.1,18,18,18s18-8.1,18-18S959.8,32,949.9,32L949.9,32z"/>
	</g>
</g>
<g>
	<polygon class="st21" points="68,100.7 64.3,98.6 64.3,100.2 50.5,100.2 50.5,86.3 52.1,86.3 50,82.7 47.9,86.3 49.5,86.3
		49.5,100.2 35.7,100.2 35.7,98.6 32,100.7 35.7,102.8 35.7,101.2 49.5,101.2 49.5,115 47.9,115 50,118.7 52.1,115 50.5,115
		50.5,101.2 64.3,101.2 64.3,102.8 	"/>
	<g>
		<path class="st19" d="M50.5,112.4c6.1-0.3,11-5.1,11.2-11.2H50.5V112.4z"/>
		<path class="st18" d="M49.5,89c-6.1,0.3-11,5.1-11.2,11.2h11.2V89z"/>
		<path class="st20" d="M61.7,100.2c-0.3-6.1-5.1-11-11.2-11.2v11.2H61.7z"/>
		<path class="st22" d="M38.3,101.2c0.3,6.1,5.1,11,11.2,11.2v-11.2H38.3z"/>
	</g>
</g>
<g>
	<g>
		<g>
			<path class="st18" d="M115.8,89.4L115.8,89.4c0.3,0.1,0.6-0.2,0.8-0.4c0.2-0.3,0.7-0.7,1-0.7c0.2,0.1,0,0.5,0.2,0.7
				c0,0,0.2,0.2,0.1,0.2c-0.1,0.2-0.2,1.7-0.1,1.8c0,0.2,0,0.2-0.1,0.4c-0.1,0.2-0.4,0-0.6,0c-0.1,0.1-0.2,0.2-0.3,0.3
				c-0.1,0.4,0.6,1.2,0.5,1.7l0,0c0,0.1-0.1,0.4-0.1,0.5s0,0.1-0.1,0.1l-0.3-0.1c-0.1-0.1-0.1-0.4-0.1-0.4c-0.1,0-0.2,0.1-0.2,0.1
				c0,0.1-0.1,0.5-0.3,0.6c-0.1,0.1-0.3,0.1-0.4,0.1l0,0c0,0,0,0,0,0.1c0.1,0.1,0.2,0.2,0.2,0.3c0,0.2-0.2,0.3-0.3,0.3
				c-0.3,0-0.4-0.1-0.7-0.1l0,0c-0.1,0-0.1,0.4-0.2,0.4c-0.1,0.2-0.3,0.4-0.4,0.6l0,0l0,0c-0.2,0.1-0.3,0.2-0.4,0.3
				c0,0.1-0.1,0.3-0.1,0.4c-0.4,0.3-0.9,0.2-1.2,0.8c0,0.1-0.2,0.4-0.2,0.4c-0.2,0-0.3,0-0.5,0c0-0.1,0.1-0.4,0.3-0.4
				c0-0.1-0.3-0.4-0.2-0.4c0,0,0,0,0-0.1l0,0c0-0.2,0.3-0.3,0.2-0.7c-0.1-0.2-0.3-0.3-0.4-0.2l-1.3,1.6c-0.1,0.1-0.5,0.2-0.7,0.2
				c-0.2,0.1-0.3,0.5,0,0.6c0,0.1,0.1,0.2,0.1,0.3c0.1,0,0.4-0.2,0.6-0.1c0.1,0.1,0.1,0.3,0.1,0.4l0,0c0,0.1,0.2,0.3,0.3,0.3l0,0
				l0,0c0.3,0,0.3-0.7,0.9-0.7c0.2-0.1,0.5,0.2,0.7,0.1c0.2,0,0.3,0,0.4,0.1c0,0,0,0.4-0.1,0.4l-0.6,0.3c0.1,0.1-0.5,0.7-0.6,0.6
				c0,0.1-0.2,0.3-0.2,0.4l-0.1,0.1l0,0c0,0.1-0.1,0.5-0.1,0.5l0,0l0,0l0.1,0.1c0.9,0.1,0.9,1.4,1.2,1.6l0,0
				c0.2,0.2,0.5,0.3,0.7,0.5l0,0c0.3,0.1-0.3,0.2-0.3,0.3c0.2,0.1,0.4,0.2,0.5,0.5l0,0c0,0.3-0.7,0.6-0.9,0.8l0,0l0,0
				c0.1,0,0.2,0,0.3,0c0.2-0.3,0.7-0.1,1,0l0,0c0,0.2-0.4,0.3-0.4,0.4c0.1,0,0.2-0.2,0.3-0.1c0,0.1,0.1,0.2,0,0.3
				c-0.1,0.1-0.2,0-0.2,0.1l0,0c0,0.4,0.5,0.9-0.2,0.9c-0.2,0.3-0.2,0.4-0.3,0.8c-0.2,0.1-0.2,0.4-0.3,0.5c-0.1,0-0.2,0-0.3,0
				c0,0.1,0.2,0.2,0.3,0.2c0,0.2-0.3,0.1-0.2,0.3c0,0.2,0.1,0.3,0,0.5c-0.4,0-0.1,0.3-0.4,0.5c-0.1,0.2-0.5,0.2-0.5,0.3
				c-0.1,0.1-0.5,0.8-0.6,0.8l0,0c-0.2,0.1-0.6,0.1-0.6,0.3c0,0.1,0,0.1,0,0.1c-0.4,0.2-0.9,0.7-1.3,0.6c-0.2-0.1-0.2,0.4-0.4,0.4
				c-0.1,0.1-0.4-0.2-0.4-0.3c-0.2-0.1-0.2,0.1-0.2,0.1c-0.1,0.3-0.6,0.7-0.9,0.7c-0.2,0.1-1.3,0.2-1.3,0.4l0,0
				c0,0.1-0.1,0.3-0.2,0.3c-0.1,0.1,0,0.1,0,0.2c0.1,0,0.1,0,0.2,0c0,0.1,0,0.2,0,0.3c-0.2,0.1-0.2,0.1-0.4,0.1l0,0
				c-0.1,0-0.2-0.3-0.3-0.4c-0.3-0.1,0-0.4,0-0.5l0,0l0,0c-0.2,0-0.3,0.1-0.4,0.1l0,0c0,0-0.4-0.5-0.4-0.3c0.1,0,0.1,0.1,0,0.1h-0.6
				c-0.2,0-0.9-0.2-0.9-0.5l0,0c0-0.1,0.1-0.3,0.1-0.4c0,0,0,0-0.1-0.1c-0.1,0-0.8-0.1-0.8-0.1c-0.1,0-0.1-0.2-0.2-0.2h-0.2
				c-0.1,0.1-0.3,0.4-0.4,0.4l0,0c-0.1,0-0.2,0-0.3,0.1c0,0.2-0.3,0.1-0.4,0.1l-0.1-0.1l-0.3,0.1c-0.2,0.1-0.3-0.1-0.5-0.1l-0.2,0.2
				c-0.1,0.1-0.3-0.1-0.4,0c-0.1,0-0.1,0.1-0.1,0.2c0.1,0.1,0.1,0.3,0.1,0.4c0.1,0,0.1,0.4,0.1,0.4c0,0.1-0.1,0.1-0.2,0.1l0,0
				c-0.2,0-0.3-0.3-0.3-0.5c0-0.1,0-0.1-0.1-0.2c-0.2,0-0.2,0.2-0.3,0.2l0,0c-0.1,0-0.1,0-0.2-0.1c0-0.2-0.4-0.4-0.4-0.5
				c-0.1,0-0.2,0-0.2,0l-0.1-0.1l0,0c0-0.2,0-0.5,0-0.7c-0.1,0-0.2,0-0.2-0.1c-0.1-0.1-0.2-0.5-0.3-0.7c-0.2-0.1-0.3,0.1-0.5,0.1
				l0,0c-0.2-0.1-0.1-0.2-0.2-0.4c-0.1-0.3,0.1-0.4,0.1-0.7l0,0c0-0.1,0.4-0.3,0.5-0.4c0,0,0,0,0.1,0s0.3-1.2,0.2-1.3
				c0-0.1-0.3-0.2-0.3-0.3c0,0,0-0.1-0.1-0.1c0-0.2-0.1-0.3-0.2-0.5c-0.1,0-0.2-0.1-0.2,0c-0.1,0.1,0,0.4-0.2,0.5
				c-0.1,0-0.3-0.2-0.4-0.3c-0.1,0-0.4-0.2-0.5-0.2l0,0c-0.1,0-0.3,0.2-0.4,0.3c-0.4,0-0.7,0.5-1.1,0.6c-0.1,0.1-1.1,0.3-1.3,0
				c-0.1-0.1,0-0.4,0-0.5c-0.1-0.1-0.2-0.1-0.2-0.3l-0.4-0.1c-0.3-0.1-0.4-0.4-0.8-0.4c0,0-0.5,0.2-0.6,0.3c0,0.1,0,0.3,0,0.4
				c-0.2,0.1-0.2,0.1-0.4,0c-0.1-0.2,0-0.4,0-0.6c-0.1-0.1-0.4-0.1-0.5,0c-0.1,0-0.2,0.2-0.4,0.2c-0.2-0.1-0.3-0.2-0.4-0.3
				c-0.2,0-0.4,0-0.6,0c-0.2-0.2-0.3-0.4-0.5-0.6c-0.1-0.1-0.3,0-0.4-0.2c0,0,0,0-0.1,0c-0.1-0.1-0.2-0.4-0.2-0.6
				c-0.1-0.1-0.4,0-0.4-0.1c-0.1,0-0.2-0.3-0.2-0.3c-0.1-0.1-0.3-0.1-0.4-0.3l0,0c0-0.1-0.3-0.5-0.3-0.5c-0.3,0.1-0.7,0.2-1-0.1
				c-0.1-0.1-0.1-0.3-0.1-0.4c-0.3-0.3-0.4-0.6-0.9-0.6c-0.1,0-0.1,0-0.1-0.1c0-0.2,0-0.2,0.1-0.3l0,0c0.2-0.1,0.1-0.6,0.1-0.8l0,0
				c0-0.2,0-0.1,0-0.2c0.2,0,0.3,0.1,0.4,0.1c0-0.1,0,0,0-0.1l0,0c0-0.3-0.1-0.6-0.1-0.9l0,0c-0.1-0.2,0.2-0.4,0.2-0.5
				s0-0.1-0.1-0.2c-0.3-0.1-0.3-0.4-0.3-0.6c0.1-0.3-0.7-0.9-0.9-0.8c-0.1,0-0.1-0.1-0.1-0.1c0-0.1,0.1-0.5,0.1-0.7
				c-0.1-0.1-0.5-0.4-0.6-0.5l0,0c-0.1-0.2,0-0.4,0.3-0.5c0.1-0.2,0.1-0.5,0.1-0.7l0,0c0-0.3-0.3-0.1-0.5-0.1
				c-0.1-0.1-0.2-0.1-0.1-0.4c0.2-0.1,0.2-0.4,0.1-0.4c0-0.1,0.3-0.2,0.3-0.4c0.2,0,0.9-0.6,1.3-0.4c0.3,0,0.1,0.4,0.4,0.4
				c0.5-0.4,0.8-0.5,1.5-0.5l0,0c0.1,0,0.7-0.1,0.7-0.1c0.2-0.1,0.2-0.2,0.2-0.3c0,0,0.6-0.7,0.6-0.8c0.1-0.3,0.1-0.6,0-1l0,0
				c0-0.1,0-0.2,0-0.3c-0.1-0.1,0-0.2,0.1-0.2c0.5-0.1,0.9,0.1,1.3,0.1l0,0c0.1-0.1-0.1-0.5,0.3-0.8c0.1-0.1,0.3-0.5,0.3-0.6l0,0
				c0.1-0.1,0.2-0.1,0.2,0c0,0.2,1,0.4,1,0.4l0,0c0.2,0,0.2,0,0.2-0.2v-0.5l0,0c0.1-0.3,0.6-0.3,0.8-0.4l0,0
				c0.1-0.1,0.1-0.4,0.4-0.4c0.1,0,0.4,0,0.4,0.2l0,0c0,0.1,0.1,0.2,0.1,0.3c0,0.1,0.5,0.6,0.6,0.6s0.3,0.2,0.4,0.2
				c0,0.2,0,0.5,0.2,0.6c0,0.2,0.2,0.6,0,0.8l0,0c-0.2,0.3-0.3,0.4-0.1,0.7c0.1,0.1,0.4,0.1,0.6,0.2c0.1,0,2,0.7,1.9,1.1l0,0
				c0,0.2,0.1,0.5,0.2,0.5l0,0l0,0v0.3l0,0c0,0,0,0,0.1,0l0,0c0.2,0,0.4,0.1,0.7,0.1c0.2,0.1,0.6,0.2,0.7,0.2l0,0c0.5,0,0.9,0,1.3,0
				l0,0c0.5,0.1,0.7,0.5,1,0.6c0.2-0.2,0.5,0.1,0.5,0.2l0,0c0.3,0,0.4,0.2,0.6,0.3c0,0.1,0.1,0.1,0.2,0.1c0.1-0.3,2-0.7,2-1l0,0l0,0
				c0.3-0.1,0.7,0.2,1.1,0.1c0.1-0.2,0.4-0.5,0.5-0.6c0.2-0.1,0.7-0.6,0.7-0.7c-0.1-0.2-0.4-1.1,0.1-1.1l0,0c0,0,0.7,0.4,0.7,0.3
				c0.2,0,0.6-0.5,0.6-0.6c0.2,0,0.6-0.1,0.7-0.3c0.1-0.1,0.3-0.5,0.3-0.5c0.1-0.1,0.3-0.2,0.4-0.2l0,0l0,0c0.1-0.1,0.3-0.3,0.4-0.3
				c0,0,0.8-0.1,0.9-0.1c0-0.1,0-0.2,0-0.3c-0.1-0.3-0.5-0.5-0.8-0.7c-0.1,0-0.2,0.1-0.3,0.1c-0.1,0.1-0.1,0.2-0.2,0.3
				c-0.2,0-0.5-0.2-0.6-0.1l0,0c-0.2,0-0.3,0.1-0.6,0.1c0-0.1-0.1-0.1-0.1-0.2c0.1-0.1,0.3-0.3,0.2-0.4c0-0.4,0.1-0.6,0.2-1l0,0
				l0.1-0.1c0.4,0,0.8,0,1-0.3c0,0,0,0,0.1-0.1c0-0.2,0.1-0.5,0.1-0.7l0,0c0-0.3,0.4-0.8,0.4-0.8c0.1-0.2-0.2-0.4-0.3-0.5v-0.1
				c0-0.2,0.1-0.2,0.2-0.4c0.2,0,0.3-0.1,0.5-0.1c0.1-0.2,0.7-0.4,0.9-0.4c0.2,0,0.3,0.1,0.5,0.1l0,0c0.3,0,0.4,0,0.7,0.1l0,0l0,0
				l0,0l0,0c0,0,0.9,0.9,0.9,1.1l0,0l0,0l0,0l0,0c0.1,0.1,0.3,0.3,0.4,0.4l0,0l0,0c0,0.2,0.1,0.3,0.3,0.4l0,0c0,0.1,0.1,0.3,0.1,0.3
				l0,0c0.2,0,0.5,0,0.6,0c0,0.1,0.3,0,0.4,0c0,0,0.1,0.1,0.2,0.1c0,0.2,0.3,0.2,0.5,0.3C115.4,88.9,115.6,89.4,115.8,89.4
				L115.8,89.4L115.8,89.4z M113,111.1c0-0.2,0-0.4,0.1-0.6l0,0c0-0.3,0.1-0.3,0.1-0.6l0,0c0-0.2,0.2-0.7,0.4-0.9
				c0,0,0.3-0.1,0.4-0.1l0,0c0.5,0.1,0.2,0.4,0.2,0.6l0,0c0,0.3,0.1,0.7,0,1c0,0.1-0.1,0.2-0.1,0.3c-0.1,0.1-0.3,0.1-0.3,0.3l0,0
				c-0.1,0.3,0,0.5-0.2,0.8l0,0l0,0l0,0c0-0.1-0.2-0.2-0.2-0.3l0,0C113.2,111.4,113.1,111.3,113,111.1L113,111.1L113,111.1z
				 M104.9,114.2c0.3,0,0.9-0.3,1.3-0.2c0.1,0,0.2,0.1,0.3,0.2c0.1,0.1-0.1,0.3-0.3,0.9l0,0l0,0c-0.1,0.3-0.8,0.5-0.8,0.5l0,0l0,0
				c-0.1,0-0.6-0.1-0.6-0.3l0,0C104.4,114.6,104.8,114.8,104.9,114.2L104.9,114.2L104.9,114.2z"/>
		</g>
	</g>
	<g>
		<path class="st23" d="M99.8,103.7c1-0.2,0.9-1.4,0.8-1.6c-0.1-0.4-0.5-1.1-1.2-1c-0.8,0.1-0.9,1.2-0.9,1.2
			C98.5,102.8,98.8,103.9,99.8,103.7L99.8,103.7L99.8,103.7z M100.9,105.8c0,0.1-0.1,0.3,0,0.5c0.1,0.4,0.5,0.3,0.5,0.3h0.6v-1.1
			h-0.6C101.1,105.5,100.9,105.7,100.9,105.8L100.9,105.8L100.9,105.8z M101.7,101.7c0.6,0,1-0.6,1-1.4s-0.4-1.4-1-1.4s-1,0.6-1,1.4
			S101.2,101.7,101.7,101.7L101.7,101.7L101.7,101.7z M104.1,101.8c0.7,0.1,1.2-0.7,1.3-1.3c0.1-0.6-0.4-1.3-0.9-1.4
			s-1.2,0.7-1.2,1.2C103.2,101.1,103.4,101.7,104.1,101.8L104.1,101.8L104.1,101.8z M105.9,105.3c0,0-1.2-0.9-1.8-1.8
			c-0.9-1.4-2.2-0.8-2.6-0.1c-0.4,0.7-1.1,1.2-1.2,1.3c-0.1,0.1-1.4,0.8-1.1,2s1.4,1.3,1.4,1.3s0.7,0,1.5-0.2c0.9-0.2,1.6,0,1.6,0
			s2,0.7,2.6-0.6C106.8,105.9,105.9,105.3,105.9,105.3L105.9,105.3L105.9,105.3z M102.5,107.2h-1.4c-0.6,0-0.7-0.5-0.8-0.5
			c0-0.1-0.2-0.4-0.1-0.9c0.2-0.8,0.9-0.9,0.9-0.9h0.8V104h0.6V107.2L102.5,107.2L102.5,107.2L102.5,107.2z M104.8,107.2h-1.4
			c-0.6,0-0.6-0.5-0.6-0.5V105h0.6v1.4c0,0.2,0.3,0.3,0.3,0.3h0.6V105h0.6L104.8,107.2L104.8,107.2L104.8,107.2z M107.1,102.8
			c0-0.3-0.2-1.1-1.1-1.1s-1,0.8-1,1.4c0,0.5,0,1.3,1.2,1.3C107.2,104.3,107.1,103.1,107.1,102.8L107.1,102.8L107.1,102.8z"/>
	</g>
</g>
<g>
	<g>
		<g>
			<path class="st19" d="M165.8,89.4L165.8,89.4c0.3,0.1,0.6-0.2,0.8-0.4c0.2-0.3,0.7-0.7,1-0.7c0.2,0.1,0,0.5,0.2,0.7
				c0,0,0.2,0.2,0.1,0.2c-0.1,0.2-0.2,1.7-0.1,1.8c0,0.2,0,0.2-0.1,0.4c-0.1,0.2-0.4,0-0.6,0c-0.1,0.1-0.2,0.2-0.3,0.3
				c-0.1,0.4,0.6,1.2,0.5,1.7l0,0c0,0.1-0.1,0.4-0.1,0.5s0,0.1-0.1,0.1l-0.3-0.1c-0.1-0.1-0.1-0.4-0.1-0.4c-0.1,0-0.1,0.1-0.2,0.1
				c0,0.1-0.1,0.5-0.3,0.6c-0.1,0.1-0.3,0.1-0.4,0.1l0,0c0,0,0,0,0,0.1c0.1,0.1,0.2,0.2,0.2,0.3c0,0.2-0.2,0.3-0.3,0.3
				c-0.3,0-0.4-0.1-0.7-0.1l0,0c-0.1,0-0.1,0.4-0.2,0.4c-0.1,0.2-0.3,0.4-0.4,0.6l0,0l0,0c-0.2,0.1-0.3,0.2-0.4,0.3
				c0,0.1-0.1,0.3-0.1,0.4c-0.4,0.3-0.9,0.2-1.2,0.8c0,0.1-0.2,0.4-0.2,0.4c-0.2,0-0.3,0-0.5,0c0-0.1,0.1-0.4,0.3-0.4
				c0-0.1-0.3-0.4-0.2-0.4c0,0,0,0,0-0.1l0,0c0-0.2,0.3-0.3,0.2-0.7c-0.1-0.2-0.3-0.3-0.4-0.2l-1.3,1.6c-0.1,0.1-0.5,0.2-0.7,0.2
				c-0.2,0.1-0.3,0.5,0,0.6c0,0.1,0.1,0.2,0.1,0.3c0.1,0,0.4-0.2,0.6-0.1c0.1,0.1,0.1,0.3,0.1,0.4l0,0c0,0.1,0.2,0.3,0.3,0.3l0,0
				l0,0c0.3,0,0.3-0.7,0.9-0.7c0.2-0.1,0.5,0.2,0.7,0.1c0.2,0,0.3,0,0.4,0.1c0,0,0,0.4-0.1,0.4l-0.6,0.3c0.1,0.1-0.5,0.7-0.6,0.6
				c0,0.1-0.2,0.3-0.2,0.4l-0.1,0.1l0,0c0,0.1-0.1,0.5-0.1,0.5l0,0l0,0l0.1,0.1c0.9,0.1,0.9,1.4,1.2,1.6l0,0
				c0.2,0.2,0.5,0.3,0.7,0.5l0,0c0.3,0.1-0.3,0.2-0.3,0.3c0.2,0.1,0.4,0.2,0.5,0.5l0,0c0,0.3-0.7,0.6-0.9,0.8l0,0l0,0
				c0.1,0,0.2,0,0.3,0c0.2-0.3,0.7-0.1,1,0l0,0c0,0.2-0.4,0.3-0.4,0.4c0.1,0,0.2-0.2,0.3-0.1c0,0.1,0.1,0.2,0,0.3
				c-0.1,0.1-0.2,0-0.2,0.1l0,0c0,0.4,0.5,0.9-0.2,0.9c-0.2,0.3-0.2,0.4-0.3,0.8c-0.2,0.1-0.1,0.4-0.3,0.5c-0.1,0-0.2,0-0.3,0
				c0,0.1,0.2,0.2,0.3,0.2c0,0.2-0.3,0.1-0.2,0.3c0,0.2,0.1,0.3,0,0.5c-0.4,0-0.1,0.3-0.4,0.5c-0.1,0.2-0.5,0.2-0.5,0.3
				c-0.1,0.1-0.5,0.8-0.6,0.8l0,0c-0.2,0.1-0.6,0.1-0.6,0.3c0,0.1,0,0.1,0,0.1c-0.4,0.2-0.9,0.7-1.3,0.6c-0.2-0.1-0.2,0.4-0.4,0.4
				c-0.1,0.1-0.4-0.2-0.4-0.3c-0.2-0.1-0.2,0.1-0.2,0.1c-0.1,0.3-0.6,0.7-0.9,0.7c-0.2,0.1-1.3,0.2-1.3,0.4l0,0
				c0,0.1-0.1,0.3-0.2,0.3c-0.1,0.1,0,0.1,0,0.2c0.1,0,0.1,0,0.2,0c0,0.1,0,0.2,0,0.3c-0.1,0.1-0.2,0.1-0.4,0.1l0,0
				c-0.1,0-0.2-0.3-0.3-0.4c-0.3-0.1,0-0.4,0-0.5l0,0l0,0c-0.2,0-0.3,0.1-0.4,0.1l0,0c0,0-0.4-0.5-0.4-0.3c0.1,0,0.1,0.1,0,0.1h-0.6
				c-0.2,0-0.9-0.2-0.9-0.5l0,0c0-0.1,0.1-0.3,0.1-0.4c0,0,0,0-0.1-0.1c-0.1,0-0.8-0.1-0.8-0.1c-0.1,0-0.1-0.2-0.2-0.2h-0.2
				c-0.1,0.1-0.3,0.4-0.4,0.4l0,0c-0.1,0-0.2,0-0.3,0.1c0,0.2-0.3,0.1-0.4,0.1l-0.1-0.1l-0.3,0.1c-0.2,0.1-0.3-0.1-0.5-0.1l-0.2,0.2
				c-0.1,0.1-0.3-0.1-0.4,0c-0.1,0-0.1,0.1-0.1,0.2c0.1,0.1,0.1,0.3,0.1,0.4c0.1,0,0.1,0.4,0.1,0.4c0,0.1-0.1,0.1-0.2,0.1l0,0
				c-0.2,0-0.3-0.3-0.3-0.5c0-0.1,0-0.1-0.1-0.2c-0.2,0-0.2,0.2-0.3,0.2l0,0c-0.1,0-0.1,0-0.2-0.1c0-0.2-0.4-0.4-0.4-0.5
				c-0.1,0-0.2,0-0.2,0l-0.1-0.1l0,0c0-0.2,0-0.5,0-0.7c-0.1,0-0.2,0-0.2-0.1c-0.1-0.1-0.2-0.5-0.3-0.7c-0.2-0.1-0.3,0.1-0.5,0.1
				l0,0c-0.2-0.1-0.1-0.2-0.2-0.4c-0.1-0.3,0.1-0.4,0.1-0.7l0,0c0-0.1,0.4-0.3,0.5-0.4c0,0,0,0,0.1,0s0.3-1.2,0.2-1.3
				c0-0.1-0.3-0.2-0.3-0.3c0,0,0-0.1-0.1-0.1c0-0.2-0.1-0.3-0.2-0.5c-0.1,0-0.2-0.1-0.2,0c-0.1,0.1,0,0.4-0.2,0.5
				c-0.1,0-0.3-0.2-0.4-0.3c-0.1,0-0.4-0.2-0.5-0.2l0,0c-0.1,0-0.3,0.2-0.4,0.3c-0.4,0-0.7,0.5-1.1,0.6c-0.1,0.1-1.1,0.3-1.3,0
				c-0.1-0.1,0-0.4,0-0.5c-0.1-0.1-0.2-0.1-0.2-0.3l-0.4-0.1c-0.3-0.1-0.4-0.4-0.8-0.4c0,0-0.5,0.2-0.6,0.3c0,0.1,0,0.3,0,0.4
				c-0.2,0.1-0.2,0.1-0.4,0c-0.1-0.2,0-0.4,0-0.6c-0.1-0.1-0.4-0.1-0.5,0c-0.1,0-0.2,0.2-0.4,0.2c-0.2-0.1-0.3-0.2-0.4-0.3
				c-0.2,0-0.4,0-0.6,0c-0.2-0.2-0.3-0.4-0.5-0.6c-0.1-0.1-0.3,0-0.4-0.2c0,0,0,0-0.1,0c-0.1-0.1-0.2-0.4-0.2-0.6
				c-0.1-0.1-0.4,0-0.4-0.1c-0.1,0-0.2-0.3-0.2-0.3c-0.1-0.1-0.3-0.1-0.4-0.3l0,0c0-0.1-0.3-0.5-0.3-0.5c-0.3,0.1-0.7,0.2-1-0.1
				c-0.1-0.1-0.1-0.3-0.1-0.4c-0.3-0.3-0.4-0.6-0.9-0.6c-0.1,0-0.1,0-0.1-0.1c0-0.2,0-0.2,0.1-0.3l0,0c0.2-0.1,0.1-0.6,0.1-0.8l0,0
				c0-0.2,0-0.1,0-0.2c0.2,0,0.3,0.1,0.4,0.1c0-0.1,0,0,0-0.1l0,0c0-0.3-0.1-0.6-0.1-0.9l0,0c-0.1-0.2,0.2-0.4,0.2-0.5
				s0-0.1-0.1-0.2c-0.3-0.1-0.3-0.4-0.3-0.6c0.1-0.3-0.7-0.9-0.9-0.8c-0.1,0-0.1-0.1-0.1-0.1c0-0.1,0.1-0.5,0.1-0.7
				c-0.1-0.1-0.5-0.4-0.6-0.5l0,0c-0.1-0.2,0-0.4,0.3-0.5c0.1-0.2,0.1-0.5,0.1-0.7l0,0c0-0.3-0.3-0.1-0.5-0.1
				c-0.1-0.1-0.2-0.1-0.1-0.4c0.2-0.1,0.2-0.4,0.1-0.4c0-0.1,0.3-0.2,0.3-0.4c0.2,0,0.9-0.6,1.3-0.4c0.3,0,0.1,0.4,0.4,0.4
				c0.5-0.4,0.8-0.5,1.5-0.5l0,0c0.1,0,0.7-0.1,0.7-0.1c0.2-0.1,0.2-0.2,0.2-0.3c0,0,0.6-0.7,0.6-0.8c0.1-0.3,0.1-0.6,0-1l0,0
				c0-0.1,0-0.2,0-0.3c-0.1-0.1,0-0.2,0.1-0.2c0.5-0.1,0.9,0.1,1.3,0.1l0,0c0.1-0.1-0.1-0.5,0.3-0.8c0.1-0.1,0.3-0.5,0.3-0.6l0,0
				c0.1-0.1,0.2-0.1,0.2,0c0,0.2,1,0.4,1,0.4l0,0c0.1,0,0.2,0,0.2-0.2v-0.5l0,0c0.1-0.3,0.6-0.3,0.8-0.4l0,0
				c0.1-0.1,0.1-0.4,0.4-0.4c0.1,0,0.4,0,0.4,0.2l0,0c0,0.1,0.1,0.2,0.1,0.3c0,0.1,0.5,0.6,0.6,0.6s0.4,0.2,0.4,0.2
				c0,0.2,0,0.5,0.2,0.6c0,0.2,0.2,0.6,0,0.8l0,0c-0.2,0.3-0.3,0.4-0.1,0.7c0.1,0.1,0.4,0.1,0.6,0.2c0.1,0,2,0.7,1.9,1.1l0,0
				c0,0.2,0.1,0.5,0.2,0.5l0,0l0,0v0.3l0,0c0,0,0,0,0.1,0l0,0c0.2,0,0.4,0.1,0.7,0.1c0.2,0.1,0.6,0.2,0.7,0.2l0,0c0.5,0,0.9,0,1.3,0
				l0,0c0.5,0.1,0.7,0.5,1,0.6c0.2-0.2,0.5,0.1,0.5,0.2l0,0c0.3,0,0.4,0.2,0.6,0.3c0,0.1,0.1,0.1,0.2,0.1c0.1-0.3,2-0.7,2-1l0,0l0,0
				c0.3-0.1,0.7,0.2,1.1,0.1c0.1-0.2,0.4-0.5,0.5-0.6s0.7-0.6,0.7-0.7c-0.1-0.2-0.4-1.1,0.1-1.1l0,0c0,0,0.7,0.4,0.7,0.3
				c0.2,0,0.6-0.5,0.6-0.6c0.2,0,0.6-0.1,0.7-0.3c0.1-0.1,0.3-0.5,0.3-0.5c0.1-0.1,0.3-0.2,0.4-0.2l0,0l0,0c0.1-0.1,0.3-0.3,0.4-0.3
				c0,0,0.8-0.1,0.9-0.1c0-0.1,0-0.2,0-0.3c-0.1-0.3-0.5-0.5-0.8-0.7c-0.1,0-0.2,0.1-0.3,0.1c-0.1,0.1-0.1,0.2-0.2,0.3
				c-0.2,0-0.5-0.2-0.6-0.1l0,0c-0.2,0-0.3,0.1-0.6,0.1c0-0.1-0.1-0.1-0.1-0.2c0.1-0.1,0.3-0.3,0.2-0.4c0-0.4,0.1-0.6,0.2-1l0,0
				l0.1-0.1c0.4,0,0.8,0,1-0.3c0,0,0,0,0.1-0.1c0-0.2,0.1-0.5,0.1-0.7l0,0c0-0.3,0.4-0.8,0.4-0.8c0.1-0.2-0.2-0.4-0.3-0.5v-0.1
				c0-0.2,0.1-0.2,0.2-0.4c0.2,0,0.3-0.1,0.5-0.1c0.1-0.2,0.7-0.4,0.9-0.4s0.3,0.1,0.5,0.1l0,0c0.3,0,0.4,0,0.7,0.1l0,0l0,0l0,0l0,0
				c0,0,0.9,0.9,0.9,1.1l0,0l0,0l0,0l0,0c0.1,0.1,0.3,0.3,0.4,0.4l0,0l0,0c0,0.2,0.1,0.3,0.3,0.4l0,0c0,0.1,0.1,0.3,0.1,0.3l0,0
				c0.2,0,0.5,0,0.6,0c0,0.1,0.3,0,0.4,0c0,0,0.1,0.1,0.2,0.1c0,0.2,0.3,0.2,0.5,0.3C165.4,88.9,165.6,89.4,165.8,89.4L165.8,89.4
				L165.8,89.4z M163,111.1c0-0.2,0-0.4,0.1-0.6l0,0c0-0.3,0.1-0.3,0.1-0.6l0,0c0-0.2,0.2-0.7,0.4-0.9c0,0,0.3-0.1,0.4-0.1l0,0
				c0.5,0.1,0.2,0.4,0.2,0.6l0,0c0,0.3,0.1,0.7,0,1c0,0.1-0.1,0.2-0.1,0.3c-0.1,0.1-0.3,0.1-0.3,0.3l0,0c-0.1,0.3,0,0.5-0.2,0.8l0,0
				l0,0l0,0c0-0.1-0.2-0.2-0.2-0.3l0,0C163.2,111.4,163.1,111.3,163,111.1L163,111.1L163,111.1z M154.9,114.2c0.3,0,0.9-0.3,1.3-0.2
				c0.1,0,0.2,0.1,0.3,0.2s-0.1,0.3-0.3,0.9l0,0l0,0c-0.1,0.3-0.8,0.5-0.8,0.5l0,0l0,0c-0.1,0-0.6-0.1-0.6-0.3l0,0
				C154.4,114.6,154.8,114.8,154.9,114.2L154.9,114.2L154.9,114.2z"/>
		</g>
	</g>
	<g>
		<path class="st23" d="M149.9,99.1v7.5l2,1.4l5.1-3.1v-2.2l-4.5-1.4l1,2l1.3,0.6l-4.7,2.5l1.9-1.8l-0.1-5L149.9,99.1z"/>
	</g>
</g>
<g>
	<polygon class="st5" points="185.3,95.7 184.9,95.7 182,95.7 182,105.7 184.9,105.7 185.3,105.7 186.9,105.7 186.9,95.7 	"/>
	<polygon class="st7" points="183.9,92.3 183.9,95.7 184.4,95.7 184.9,95.7 184.9,92.3 	"/>
	<polygon class="st7" points="184.4,105.7 183.9,105.7 183.9,109 184.4,109 184.9,109 184.9,105.7 	"/>
</g>
<g>
	<polygon class="st5" points="196,97.3 195.3,97.3 192.4,97.3 192.4,103.3 195.3,103.3 196,103.3 197.2,103.3 197.2,97.3 	"/>
	<polygon class="st7" points="194.8,92.4 194.3,92.4 194.3,97.3 194.8,97.3 195.3,97.3 195.3,92.4 	"/>
	<polygon class="st7" points="194.8,103.3 194.3,103.3 194.3,109 194.8,109 195.3,109 195.3,103.3 	"/>
</g>
<g>
	<polygon class="st5" points="206.2,93.5 205.7,93.5 202.8,93.5 202.8,107.5 205.7,107.5 206.2,107.5 207.6,107.5 207.6,93.5 	"/>
	<polygon class="st7" points="204.7,91.5 204.7,93.5 205.2,93.5 205.7,93.5 205.7,91.5 	"/>
	<polygon class="st7" points="205.2,107.5 204.7,107.5 204.7,109.9 205.2,109.9 205.7,109.9 205.7,107.5 	"/>
</g>
<g>
	<polygon class="st1" points="217,89.7 216.1,89.7 213.1,89.7 213.1,111.7 216.1,111.7 217,111.7 218,111.7 218,89.7 	"/>
	<polygon class="st7" points="215.1,87.3 215.1,89.7 215.6,89.7 216.1,89.7 216.1,87.3 	"/>
	<polygon class="st7" points="215.6,111.7 215.1,111.7 215.1,114.1 216.1,114.1 216.1,111.7 	"/>
</g>
<g>
	<path class="st1" d="M240.2,100.7c0-3.2,1.5-6,3.9-7.8l-4.6-6.8c-4.5,3.3-7.4,8.6-7.4,14.6c0,9.9,8.1,18,18,18
		c4.5,0,8.6-1.7,11.8-4.4l-5.5-6c-1.7,1.4-3.9,2.3-6.3,2.3C244.6,110.5,240.2,106.1,240.2,100.7z"/>
	<path class="st0" d="M259.8,100.7c0,2.7-1.1,5.1-2.8,6.9l5.6,6c3.4-3.3,5.4-7.8,5.4-12.9c0-6.2-3.1-11.6-7.9-14.9l-4.4,6.9
		C258.2,94.5,259.8,97.4,259.8,100.7z"/>
	<path class="st6" d="M254.9,92.2l4.4-6.9c-2.7-1.6-5.9-2.6-9.3-2.6c-3.6,0-6.9,1.1-9.7,2.9l4.6,6.8c1.5-0.9,3.2-1.5,5.1-1.5
		C251.8,90.9,253.4,91.3,254.9,92.2z"/>
	<g>
		<path class="st5" d="M250,91.9c-4.9,0-8.8,3.9-8.8,8.8s3.9,8.8,8.8,8.8s8.8-3.9,8.8-8.8S254.9,91.9,250,91.9z M249.2,96.4h5.1V97
			h-5.1V96.4z M248,99.9v5.3h-1.6V101h-0.9l1.6-2.3h1.7L248,99.9z M247.1,98.5h-1.6l1.6-2.3h1.7L247.1,98.5z M254.5,99.3h-0.8v5.8
			h-2.2l0.4-1.1v-4.8h-3.1v-0.7h5.6L254.5,99.3L254.5,99.3z"/>
	</g>
</g>
<g>
	<g>
		<path class="st24" d="M296.4,104.2v-3H283c0.3,9,7.5,16.2,16.5,16.5v-16.5H298v3H296.4z"/>
		<path class="st24" d="M298.9,97.7h0.6V96h-0.3v-0.7h0.3V83.7c-9,0.3-16.2,7.5-16.5,16.5h13.4V100h-0.9l1.6-2.3H298.9l-0.9,1.2v1.3
			h1.5v-1.8h-0.6L298.9,97.7L298.9,97.7z M297.1,97.5h-1.6l1.6-2.3h1.7L297.1,97.5z"/>
		<path class="st24" d="M304.3,96h-3.8v1.6h4v0.7h-0.8v1.8H317c-0.3-9-7.5-16.2-16.5-16.5v11.7h3.8V96z"/>
		<rect x="300.5" y="98.3" class="st24" width="1.5" height="1.8"/>
		<path class="st24" d="M303.8,104.2h-2.2l0.5-1.1v-1.9h-1.5v16.5c9-0.3,16.2-7.5,16.5-16.5h-13.2L303.8,104.2L303.8,104.2z"/>
		<path class="st7" d="M300.5,82.7L300.5,82.7h-1l0,0c-9.7,0.3-17.5,8.2-17.5,18c0,9.9,8.1,18,18,18s18-8.1,18-18
			C318,90.9,310.2,83,300.5,82.7z M300.5,117.7v-16.5h1.5v-1h-1.5v-1.8h-1v1.8H298v1h1.5v16.5c-9-0.3-16.2-7.5-16.5-16.5h13.4v-1
			H283c0.3-9,7.5-16.2,16.5-16.5v11.7h1V83.7c9,0.3,16.2,7.5,16.5,16.5h-13.2v1H317C316.7,110.2,309.5,117.4,300.5,117.7z"/>
		<rect x="299.5" y="96" class="st7" width="1" height="1.6"/>
	</g>
	<g>
		<path class="st8" d="M300,90l-10.3,10.7l10.2,7.7l10.3-7.9L300,90z M299.2,95.4h5.1V96h-5.1V95.4z M298,98.9v5.3h-1.6V100h-0.9
			l1.6-2.3h1.7L298,98.9z M297.1,97.5h-1.6l1.6-2.3h1.7L297.1,97.5z M303.8,98.3v5.8h-2.2l0.5-1.1v-4.8H299v-0.7h5.6v0.7L303.8,98.3
			L303.8,98.3z"/>
	</g>
	<path class="st1" d="M311,98c-0.5,0-1,0.2-1.4,0.4l-7.6-7.7c0.3-0.4,0.4-0.9,0.4-1.4c0-1.4-1.1-2.5-2.5-2.5s-2.5,1.1-2.5,2.5
		c0,0.5,0.2,1,0.4,1.4l-7.6,7.9c-0.4-0.2-0.8-0.4-1.3-0.4c-1.4,0-2.5,1.1-2.5,2.5s1.1,2.5,2.5,2.5c0.6,0,1.2-0.2,1.7-0.6l7.1,5.3
		c-0.2,0.3-0.2,0.7-0.2,1.1c0,1.4,1.1,2.5,2.5,2.5s2.5-1.1,2.5-2.5c0-0.4-0.1-0.8-0.3-1.1l7.1-5.5c0.4,0.4,1,0.6,1.6,0.6
		c1.4,0,2.5-1.1,2.5-2.5C313.5,99.1,312.4,98,311,98z M300,106.4c-0.6,0-1.2,0.2-1.7,0.6l-7.1-5.3c0.2-0.3,0.2-0.7,0.2-1.1
		c0-0.5-0.2-1-0.4-1.4l7.6-7.9c0.4,0.2,0.8,0.4,1.3,0.4s1-0.2,1.4-0.4l7.6,7.7c-0.3,0.4-0.4,0.9-0.4,1.4c0,0.4,0.1,0.8,0.3,1.1
		l-7.1,5.5C301.2,106.6,300.6,106.4,300,106.4z"/>
</g>
<g>
	<g>
		<path class="st2" d="M355,86.7h-10c-0.6,0-1,0.4-1,1v7c0,0.6,0.4,1,1,1h10c0.6,0,1-0.4,1-1v-7C356,87.1,355.6,86.7,355,86.7z"/>
		<path class="st0" d="M355,85.7h-10c-1.1,0-2,0.9-2,2v7c0,1.1,0.9,2,2,2h10c1.1,0,2-0.9,2-2v-7C357,86.6,356.1,85.7,355,85.7z
			 M356,94.7c0,0.6-0.4,1-1,1h-10c-0.6,0-1-0.4-1-1v-7c0-0.6,0.4-1,1-1h10c0.6,0,1,0.4,1,1V94.7z"/>
	</g>
	<g>
		<path class="st3" d="M344,105.7h-10c-0.6,0-1,0.4-1,1v7c0,0.6,0.4,1,1,1h10c0.6,0,1-0.4,1-1v-7C345,106.1,344.6,105.7,344,105.7z"
			/>
		<path class="st1" d="M344,104.7h-10c-1.1,0-2,0.9-2,2v7c0,1.1,0.9,2,2,2h10c1.1,0,2-0.9,2-2v-7C346,105.6,345.1,104.7,344,104.7z
			 M345,113.7c0,0.6-0.4,1-1,1h-10c-0.6,0-1-0.4-1-1v-7c0-0.6,0.4-1,1-1h10c0.6,0,1,0.4,1,1V113.7z"/>
	</g>
	<g>
		<path class="st3" d="M366,105.7h-10c-0.6,0-1,0.4-1,1v7c0,0.6,0.4,1,1,1h10c0.6,0,1-0.4,1-1v-7C367,106.1,366.6,105.7,366,105.7z"
			/>
		<path class="st1" d="M366,104.7h-10c-1.1,0-2,0.9-2,2v7c0,1.1,0.9,2,2,2h10c1.1,0,2-0.9,2-2v-7C368,105.6,367.1,104.7,366,104.7z
			 M367,113.7c0,0.6-0.4,1-1,1h-10c-0.6,0-1-0.4-1-1v-7c0-0.6,0.4-1,1-1h10c0.6,0,1,0.4,1,1V113.7z"/>
	</g>
	<g>
		<polygon class="st7" points="362,104.7 360.4,104.7 350.4,96.7 352,96.7 		"/>
		<polygon class="st7" points="347.8,96.7 349.4,96.7 339.5,104.7 338,104.7 		"/>
	</g>
</g>
<g>
	<polygon class="st25" points="395.2,106.7 404.8,106.7 408.3,101.7 391.7,101.7 	"/>
	<polygon class="st14" points="400,113.7 403.5,108.7 396.5,108.7 	"/>
	<polygon class="st26" points="390.3,99.7 409.7,99.7 413.2,94.7 386.8,94.7 	"/>
	<polygon class="st13" points="382,87.7 385.5,92.7 414.5,92.7 418,87.7 	"/>
</g>
<g>
	<path class="st27" d="M453.8,104.7V86.5c0-2.1-1.7-3.8-3.8-3.8s-3.8,1.7-3.8,3.8v18.2c-2.2,1.3-3.7,3.7-3.7,6.5
		c0,4.1,3.4,7.5,7.5,7.5s7.5-3.4,7.5-7.5C457.5,108.4,456,106,453.8,104.7z M450,116.2c-2.8,0-5-2.2-5-5c0-2,1.2-3.8,3-4.6V95.4
		c0-1.2,0.9-2.1,2-2.1s2,0.9,2,2.1v11.2c1.8,0.8,3,2.5,3,4.6C455,113.9,452.8,116.2,450,116.2z"/>
	<path class="st13" d="M452,106.6V95.4c0-1.2-0.9-2.1-2-2.1s-2,0.9-2,2.1v11.2c-1.8,0.8-3,2.5-3,4.6c0,2.8,2.2,5,5,5s5-2.2,5-5
		C455,109.1,453.8,107.4,452,106.6z"/>
</g>
<g>
	<circle class="st28" cx="500" cy="100.7" r="18"/>
	<text transform="matrix(1 0 0 1 491.8436 105.8276)" class="st23 st29 st30">32</text>
</g>
<g>
	<path class="st4" d="M549,96.2h-11.2c-1.6,0-2.9-1.3-2.9-2.9v-1c0-1.6,1.3-2.9,2.9-2.9H549V96.2z"/>
	<text transform="matrix(0.9673 0 0 1 537.9531 93.4067)" class="st23 st29 st31">NAME</text>
	<path class="st23" d="M549.4,92.7"/>
	<path class="st32" d="M572.8,96.2h-23.4v-6.9h23.4c1.6,0,2.9,1.3,2.9,2.9v1C575.7,94.8,574.4,96.2,572.8,96.2z"/>
	<text transform="matrix(0.9673 0 0 1 552.2539 93.4067)" class="st23 st29 st31">166</text>
	<path class="st4" d="M549,104h-11.2c-1.6,0-2.9-1.3-2.9-2.9v-1c0-1.6,1.3-2.9,2.9-2.9H549V104z"/>
	<text transform="matrix(0.9673 0 0 1 537.9531 101.2964)" class="st23 st29 st31">NAME</text>
	<path class="st23" d="M549.4,100.6"/>
	<path class="st33" d="M568,104h-18.6v-6.9H568c1.6,0,2.9,1.3,2.9,2.9v1C570.9,102.7,569.6,104,568,104z"/>
	<text transform="matrix(0.9673 0 0 1 552.2539 101.2944)" class="st23 st29 st31">166</text>
	<path class="st4" d="M549.4,112l-11.2,0.1c-1.6,0-3-1.3-3-2.9v-1c0-1.6,1.3-3,2.9-3l11.2-0.1L549.4,112z"/>
	<text transform="matrix(0.9673 -6.149004e-03 5.947993e-03 1 538.2894 109.3191)" class="st23 st29 st31">NAME</text>
	<path class="st23" d="M549.7,108.6"/>
	<path class="st34" d="M564.4,111.9l-14.7,0.1v-6.9l14.7-0.1c1.6,0,3,1.3,3,2.9v1C567.4,110.6,566.1,111.9,564.4,111.9z"/>
	<text transform="matrix(0.9673 -6.149004e-03 5.947993e-03 1 552.5869 109.2282)" class="st23 st29 st31">166</text>
</g>
<g>
	<g>
		<path class="st1" d="M588.9,108.7c-3.7-6.2-1.6-14.2,4.5-17.8c6.2-3.7,14.2-1.6,17.8,4.5c3.6,6,1.7,13.8-4.1,17.5l2.6,4.3
			c8.2-5.2,10.8-16,5.8-24.4c-5.1-8.5-16.1-11.3-24.7-6.3c-8.5,5.1-11.3,16.1-6.3,24.7c1.5,2.4,3.4,4.4,5.7,5.9l2.6-4.3
			C591.3,111.8,590,110.5,588.9,108.7z"/>
	</g>
</g>
<text transform="matrix(1 0 0 1 593.3062 118.3296)" class="st35 st29 st36">NAME</text>
<g>
	<g>
		<path class="st37" d="M664.8,108.7h-29c-1.3,0-2.4-1.1-2.4-2.4l0,0c0-1.3,1.1-2.4,2.4-2.4h29c1.3,0,2.4,1.1,2.4,2.4l0,0
			C667.2,107.7,666.1,108.7,664.8,108.7z"/>
		<path class="st38" d="M654.2,108.7h-18.5c-1.3,0-2.4-1.1-2.4-2.4l0,0c0-1.3,1.1-2.4,2.4-2.4h18.5c1.3,0,2.4,1.1,2.4,2.4l0,0
			C656.6,107.7,655.5,108.7,654.2,108.7z"/>
		<text transform="matrix(0.5836 0 0 1 635.6289 102.5156)" class="st39 st29 st40">NAME</text>
		<text transform="matrix(0.5836 0 0 1 655.0479 102.1719)" class="st41 st29 st42">00 </text>
		<text transform="matrix(0.5836 0 0 1 659.1914 102.1719)" class="st43 st29 st42">/</text>
		<text transform="matrix(0.5836 0 0 1 659.8926 102.1719)" class="st41 st29 st42"> </text>
		<text transform="matrix(0.5836 0 0 1 660.7676 102.1719)" class="st44 st29 st42">00</text>
		<text transform="matrix(0.5836 0 0 1 657.3965 97.9658)" class="st45 st29 st46">00%</text>
	</g>
	<g>
		<path class="st37" d="M664.8,108.7h-29c-1.3,0-2.4-1.1-2.4-2.4l0,0c0-1.3,1.1-2.4,2.4-2.4h29c1.3,0,2.4,1.1,2.4,2.4l0,0
			C667.2,107.7,666.1,108.7,664.8,108.7z"/>
		<path class="st38" d="M654.2,108.7h-18.5c-1.3,0-2.4-1.1-2.4-2.4l0,0c0-1.3,1.1-2.4,2.4-2.4h18.5c1.3,0,2.4,1.1,2.4,2.4l0,0
			C656.6,107.7,655.5,108.7,654.2,108.7z"/>
		<text transform="matrix(0.5836 0 0 1 655.0479 102.1719)" class="st39 st29 st42">00 / 00</text>
	</g>
</g>
<text transform="matrix(1 0 0 1 590.5034 105.8277)" class="st47 st29 st48">00%</text>
<g>
	<rect x="732" y="100" class="st1" width="2.7" height="18.3"/>
	<rect x="742.5" y="100" class="st1" width="2.7" height="18.3"/>
	<rect x="737.3" y="103.3" class="st0" width="2.7" height="15.1"/>
	<rect x="747.8" y="106.5" class="st0" width="2.7" height="11.8"/>
</g>
<g>
	<path class="st1" d="M754.9,100.2L754.9,100.2c0.7,0,1.3,0.6,1.3,1.3v15.6c0,0.7-0.6,1.3-1.3,1.3l0,0c-0.7,0-1.3-0.6-1.3-1.3v-15.6
		C753.6,100.8,754.2,100.2,754.9,100.2z"/>
	<path class="st1" d="M765.4,100.2L765.4,100.2c0.7,0,1.3,0.6,1.3,1.3v15.6c0,0.7-0.6,1.3-1.3,1.3l0,0c-0.7,0-1.3-0.6-1.3-1.3v-15.6
		C764.1,100.8,764.7,100.2,765.4,100.2z"/>
	<path class="st0" d="M760.2,103.4L760.2,103.4c0.7,0,1.3,0.6,1.3,1.3v12.4c0,0.7-0.6,1.3-1.3,1.3l0,0c-0.7,0-1.3-0.6-1.3-1.3v-12.4
		C758.8,104,759.4,103.4,760.2,103.4z"/>
	<path class="st0" d="M770.7,106.7L770.7,106.7c0.7,0,1.3,0.6,1.3,1.3v9.2c0,0.7-0.6,1.3-1.3,1.3l0,0c-0.7,0-1.3-0.6-1.3-1.3V108
		C769.4,107.3,770,106.7,770.7,106.7z"/>
</g>
<text transform="matrix(1 0 0 1 741.3535 97.6768)" class="st49 st29 st50">00</text>
<path class="st51" d="M369.6,89.2"/>
<path class="st51" d="M358.3,114.6"/>
<path class="st51" d="M369.6,89.2"/>
<path class="st51" d="M358.3,114.6"/>
<g>
	<g>
		<text transform="matrix(0.9495 0 0 1 694.2051 92.2646)" class="st51 st29 st52">00</text>
	</g>
	<g>
		<path class="st51" d="M712.8,97.7"/>
		<g>
			<path class="st51" d="M712.8,97.7"/>
		</g>
		<path class="st53" d="M700.3,99.1c1.4,0,2.7-0.9,2.7-1.8c0-0.9-1.4-1.3-2.8-1.3c-1.4,0-2.6,0.4-2.6,1.4S699,99.1,700.3,99.1z
			 M705.7,104.5v-2.8c0-0.9,0.1-0.8,0-1.4c-0.3-0.7-1-0.9-1.7-0.9h-3.1c-1.4,0,1.4,0,0,0c-0.7,0-4.5,0-5,0.3c-0.7,0.5-0.6,0.6-0.6,2
			v2.8c0,0.7-0.2,1.9,0.9,1.9c1,0,1-0.5,1-1.2c0-1,0-1.3,0-1.9c0-0.7-0.1-0.8,0.1-0.8c0.2,0,0.2,0,0.2,0.7c0,0.7,0,9.9,0,10.5
			c0,0.5,0.3,1.5,1.3,1.5c1,0,1.5-0.9,1.5-1.4v-4.8c0-0.5,0-0.7,0.2-0.7c0.2,0,0.1,0.2,0.1,0.7v4.8c0,0.3,0.4,1.4,1.4,1.4
			c0.7,0,1.4-1.1,1.4-1.4c0-1.8,0-10,0-10.6c0-0.3,0-0.7,0.1-0.7c0.2,0,0.2,0.1,0.2,0.6v1.8c0,1.2,0.3,1.5,1,1.5
			C705.8,106.3,705.7,105.1,705.7,104.5z"/>
		<path class="st53" d="M707.8,99.7c0.8,0,1.7-0.6,1.7-1.3s-0.9-0.8-1.7-0.8s-1.6,0.2-1.6,0.8S706.9,99.7,707.8,99.7z M711.1,103.5
			v-2c0-0.6,0.1-0.6,0-1c-0.2-0.5-0.6-0.7-1.1-0.7h-1.9c-0.8,0,0.8,0,0,0c-0.4,0-2.8,0-3.1,0.2c-0.4,0.4-0.4,0.4-0.4,1.5v2
			c0,0.5-0.1,1.3,0.6,1.3c0.6,0,0.6-0.4,0.6-0.9c0-0.7,0-0.9,0-1.4c0-0.5,0-0.6,0.1-0.6c0.1,0,0.1,0,0.1,0.5c0,0.5,0,7.1,0,7.5
			c0,0.3,0.2,0.7,0.9,0.7c0.6,0,0.9-0.3,0.9-0.6v-3.5c0-0.3,0-0.5,0.1-0.5c0.1,0,0.1,0.2,0.1,0.5v3.5c0,0.2,0.3,0.7,0.9,0.7
			c0.4,0,0.8-0.4,0.8-0.6c0-1.3,0-7.2,0-7.6c0-0.2,0-0.5,0.1-0.5s0.1,0.1,0.1,0.4v1.3c0,0.9,0.2,1.1,0.6,1.1
			C711.1,104.8,711.1,104,711.1,103.5z"/>
		<path class="st53" d="M699.5,110.2c0-1.3,0-7.2,0-7.6c0-0.2,0-0.5,0.1-0.5"/>
		<path class="st53" d="M692.4,99.7c0.8,0,1.7-0.6,1.7-1.3c0-0.7-0.9-0.8-1.7-0.8s-1.6,0.2-1.6,0.8
			C690.8,99.1,691.6,99.7,692.4,99.7z M695.8,103.6v-2c0-0.6,0.1-0.6,0-1c-0.2-0.5-0.6-0.7-1.1-0.7h-1.9c-0.8,0,0.8,0,0,0
			c-0.4,0-2.8,0-3.1,0.2c-0.4,0.4-0.4,0.4-0.4,1.5v2c0,0.5-0.1,1.3,0.6,1.3c0.6,0,0.6-0.4,0.6-0.9c0-0.7,0-0.9,0-1.4
			c0-0.5,0-0.6,0.1-0.6c0.1,0,0.1,0,0.1,0.5c0,0.5,0,7.1,0,7.5c0,0.3,0.2,0.7,0.9,0.7c0.6,0,0.9-0.3,0.9-0.6v-3.5
			c0-0.3,0-0.5,0.1-0.5c0.1,0,0.1,0.2,0.1,0.5v3.5c0,0.2,0.3,0.7,0.9,0.7c0.4,0,0.8-0.4,0.8-0.6c0-1.3,0-7.2,0-7.6
			c0-0.2,0-0.5,0.1-0.5s0.1,0.1,0.1,0.4v1.3c0,0.9,0.2,1.1,0.6,1.1C695.8,104.9,695.8,104,695.8,103.6z"/>
	</g>
</g>
</svg>
